<?xml version="1.0" standalone="no"?>
<!DOCTYPE svg PUBLIC "-//W3C//DTD SVG 1.1//EN" "http://www.w3.org/Graphics/SVG/1.1/DTD/svg11.dtd" >
<svg>
<metadata>
Created by FontForge 20090622 at Sun Feb 26 13:12:50 2017
 By deploy user
&#194;&#169;2009 Kai Bernau and Commercial Type.
</metadata>
<defs>
<font id="LyonText-Regular" horiz-adv-x="600" >
  <font-face 
    font-family="Lyon Text Regular"
    font-weight="400"
    font-stretch="normal"
    units-per-em="1000"
    panose-1="2 0 5 3 7 0 0 2 0 4"
    ascent="760"
    descent="-240"
    x-height="470"
    cap-height="664"
    bbox="-169 -267 1235 1098"
    underline-thickness="50"
    underline-position="-50"
    unicode-range="U+0020-U+FB04"
  />
<missing-glyph horiz-adv-x="500" 
 />
    <glyph glyph-name="f_f" unicode="ff" horiz-adv-x="628" 
d="M324 0v34l57 21v368h-200v-368l57 -21v-34h-205v34l63 21v365h-72v41l73 20q2 97 75.5 167.5t162.5 70.5q76 0 112 -47q62 74 145 74q56 0 92 -27.5t36 -62.5q0 -21 -14.5 -36.5t-37.5 -15.5l-24 4l-24 83q-18 12 -46 12q-49 0 -78.5 -38t-29.5 -116v-79h136v-47h-136
v-368l90 -21v-34h-232zM381 470q0 63 18 114l-27 73q-30 19 -60 19q-56 0 -93.5 -45t-37.5 -156v-5h200z" />
    <glyph glyph-name="f_i" unicode="fi" horiz-adv-x="570" 
d="M334 0v34l55 21v368h-208v-368l66 -21v-34h-214v34l63 21v365h-72v41l71 20q8 120 76 192.5t161 72.5q57 0 95.5 -28t38.5 -64q0 -22 -15 -36t-40 -14l-25 4l-24 82q-21 14 -55 14q-126 0 -126 -211v-23h231l60 13v-428l75 -21v-34h-213z" />
    <glyph glyph-name="f_l" unicode="fl" horiz-adv-x="584" 
d="M334 0v34l58 21v368h-211v-368l66 -21v-34h-214v34l63 21v365h-72v41l71 20q7 121 71 193t164 72q47 0 82 -19l64 19v-691l74 -21v-34h-216zM181 514v-44h211v188q-39 46 -88 46q-58 0 -90.5 -41t-32.5 -149z" />
    <glyph glyph-name="f_f_i" unicode="ffi" horiz-adv-x="855" 
d="M619 0v34l55 21v368h-208v-368l66 -21v-34h-214v34l63 21v368h-200v-368l57 -21v-34h-205v34l63 21v365h-72v41l73 20q2 97 75.5 167.5t162.5 70.5q78 0 114 -49q68 76 168 76q57 0 95.5 -28t38.5 -64q0 -22 -15 -36t-40 -14l-25 4l-24 82q-21 14 -55 14
q-126 0 -126 -211v-23h231l60 13v-428l75 -21v-34h-213zM381 479q-1 58 17 107l-26 71q-30 19 -60 19q-56 0 -93.5 -45t-37.5 -156v-5h200v9z" />
    <glyph glyph-name="f_f_l" unicode="ffl" horiz-adv-x="869" 
d="M619 0v34l58 21v368h-211v-368l67 -21v-34h-209v34l57 21v368h-200v-368l57 -21v-34h-205v34l63 21v365h-72v41l73 20q2 97 75.5 167.5t162.5 70.5q75 0 113 -47q63 74 156 74q55 0 92 -20l65 20v-691l74 -21v-34h-216zM466 514v-44h211v188q-39 46 -88 46
q-60 0 -91.5 -40.5t-31.5 -149.5zM381 475q0 60 17 109l-26 73q-30 19 -60 19q-56 0 -93.5 -45t-37.5 -156v-5h200v5z" />
    <glyph glyph-name="f_b" unicode="fb" horiz-adv-x="849" 
d="M33 0v34l63 21v365h-72v41l71 20q7 121 71 193t164 72q46 0 82 -19l64 19v-340q55 77 147 77q78 0 134 -56.5t56 -170.5t-80.5 -193t-185.5 -79q-73 0 -119 19l-37 16v640q-40 45 -87 45q-58 0 -90.5 -41t-32.5 -149v-44h136v-51h-136v-364l90 -21v-34h-238zM578 416
q-54 0 -102 -45v-303q44 -40 103 -40t102.5 52t43.5 146q0 86 -41 138t-106 52z" />
    <glyph glyph-name="f_f_b" unicode="ffb" horiz-adv-x="1134" 
d="M324 34l57 21v368h-200v-368l57 -21v-34h-205v34l63 21v365h-72v41l73 20q2 97 75.5 167.5t162.5 70.5q76 0 112 -47q65 74 168 74q46 0 82 -19l64 19v-340q55 77 147 77q78 0 134 -56.5t56 -170.5t-80.5 -193t-185.5 -79q-73 0 -119 19l-37 16v640q-40 45 -87 45
q-58 0 -90.5 -41t-32.5 -149v-44h136v-47h-136v-368l90 -21v-34h-232v34zM863 416q-54 0 -102 -45v-303q44 -40 103 -40t102.5 52t43.5 146q0 86 -41 138t-106 52zM381 470q0 62 17 115l-26 72q-30 19 -60 19q-56 0 -93.5 -45t-37.5 -156v-5h200z" />
    <glyph glyph-name="f_f_h" unicode="ffh" horiz-adv-x="1151" 
d="M621 0v34l55 22v603q-40 45 -87 45q-58 0 -90.5 -41t-32.5 -149v-44h136v-47h-136v-368l64 -21v-34h-206v34l57 21v368h-200v-368l57 -21v-34h-205v34l63 21v365h-72v41l73 20q2 97 75.5 167.5t162.5 70.5q76 0 112 -47q65 74 168 74q47 0 83 -19l63 19v-354
q14 17 31.5 34t55.5 37t76 20q72 0 104 -37t32 -131v-261l65 -21v-33h-207v34l57 20v253q-3 56 -23.5 82.5t-68.5 26.5q-29 0 -59.5 -14t-46.5 -27.5t-16 -15.5v-305l66 -20v-34h-206zM381 470q0 62 17 115l-26 72q-30 19 -60 19q-56 0 -93.5 -45t-37.5 -156v-5h200z" />
    <glyph glyph-name="f_f_j" unicode="ffj" horiz-adv-x="843" 
d="M381 55v368h-200v-368l57 -21v-34h-205v34l63 21v365h-72v41l73 20q2 97 75.5 167.5t162.5 70.5q78 0 114 -49q68 76 168 76q57 0 95.5 -28t38.5 -64q0 -22 -15 -36t-40 -14l-25 4l-24 82q-21 14 -55 14q-126 0 -126 -211v-23h231l60 13v-457q0 -110 -31 -173
q-21 -43 -58.5 -70.5t-82.5 -33.5l-5 29q50 16 72 76t22 172v397h-208v-368l90 -21v-34h-238v34zM181 475v-5h200v9q-1 58 17 107l-26 71q-30 19 -60 19q-56 0 -93.5 -45t-37.5 -156z" />
    <glyph glyph-name="f_f_k" unicode="ffk" horiz-adv-x="1105" 
d="M621 0v34l55 22v603q-40 45 -87 45q-58 0 -90.5 -41t-32.5 -149v-44h136v-47h-136v-368l64 -21v-34h-206v34l57 21v368h-200v-368l57 -21v-34h-205v34l63 21v365h-72v41l73 20q2 97 75.5 167.5t162.5 70.5q76 0 112 -47q65 74 168 74q47 0 83 -19l63 19v-692l66 -20v-34
h-206zM1041 -17q-47 -2 -103 70l-172 225v2l36 11l140 128l-61 20v31h202v-28l-67 -17l-162 -137l239 -283q-15 -21 -52 -22zM381 470q0 62 17 115l-26 72q-30 19 -60 19q-56 0 -93.5 -45t-37.5 -156v-5h200z" />
    <glyph glyph-name="f_h" unicode="fh" horiz-adv-x="866" 
d="M336 0v34l55 22v603q-40 45 -87 45q-58 0 -90.5 -41t-32.5 -149v-44h136v-51h-136v-364l64 -21v-34h-212v34l63 21v365h-72v41l71 20q7 121 71 193t164 72q47 0 83 -19l63 19v-354q14 17 31.5 34t55.5 37t76 20q72 0 104 -37t32 -131v-261l65 -21v-33h-207v34l57 20v253
q-3 56 -23.5 82.5t-68.5 26.5q-29 0 -59.5 -14t-46.5 -27.5t-16 -15.5v-305l66 -20v-34h-206z" />
    <glyph glyph-name="f_j" unicode="fj" horiz-adv-x="558" 
d="M300 -251l-5 29q50 16 72 76t22 172v397h-208v-368l90 -21v-34h-238v34l63 21v365h-72v41l71 20q8 120 76 192.5t161 72.5q57 0 95.5 -28t38.5 -64q0 -22 -15 -36t-40 -14l-25 4l-24 82q-21 14 -55 14q-126 0 -126 -211v-23h231l60 13v-457q0 -110 -31 -173
q-21 -43 -58.5 -70.5t-82.5 -33.5z" />
    <glyph glyph-name="f_k" unicode="fk" horiz-adv-x="820" 
d="M336 0v34l55 22v603q-40 45 -87 45q-58 0 -90.5 -41t-32.5 -149v-44h136v-51h-136v-364l64 -21v-34h-212v34l63 21v365h-72v41l71 20q7 121 71 193t164 72q47 0 83 -19l63 19v-692l66 -20v-34h-206zM756 -17q-47 -2 -103 70l-172 225v2l36 11l140 128l-61 20v31h202v-28
l-67 -17l-162 -137l239 -283q-15 -21 -52 -22z" />
    <glyph glyph-name=".notdef" horiz-adv-x="500" 
 />
    <glyph glyph-name=".null" horiz-adv-x="0" 
 />
    <glyph glyph-name="nonmarkingreturn" horiz-adv-x="333" 
 />
    <glyph glyph-name="space" unicode=" " horiz-adv-x="198" 
 />
    <glyph glyph-name="exclam" unicode="!" horiz-adv-x="285" 
d="M94 695h97l-25 -502h-47zM142 -7q-25 0 -43.5 19t-18.5 44t18.5 43.5t43.5 18.5q26 0 44.5 -18t18.5 -44t-18.5 -44.5t-44.5 -18.5z" />
    <glyph glyph-name="quotedbl" unicode="&#x22;" horiz-adv-x="471" 
d="M122 505l-37 288h114l-48 -288h-29zM309 505l-37 288h114l-48 -288h-29z" />
    <glyph glyph-name="numbersign" unicode="#" horiz-adv-x="593" 
d="M82 383v58h110l27 153h58l-27 -153h147l27 153h58l-27 -153h106v-58h-117l-30 -174h103v-58h-114l-26 -151h-58l26 151h-147l-26 -151h-58l26 151h-102v58h113l30 174h-99zM239 383l-30 -174h147l30 174h-147z" />
    <glyph glyph-name="dollar" unicode="$" horiz-adv-x="580" 
d="M275 -125v114h-1q-49 0 -105.5 14t-91.5 36l-13 166h38l55 -136q53 -36 118 -37v252l-51 13q-145 39 -145 163q0 66 53.5 120t142.5 66v138h41v-135h1q44 0 90.5 -12t73.5 -27l6 -155h-34l-51 127q-38 23 -86 26v-237l61 -16q143 -39 143 -158q0 -75 -62.5 -132
t-141.5 -72v-118h-41zM329 271l-13 3v-239q49 9 80 40.5t31 80.5q0 93 -98 115zM164 492q0 -80 96 -105l15 -4v223q-49 -8 -80 -39.5t-31 -74.5z" />
    <glyph glyph-name="percent" unicode="%" horiz-adv-x="894" 
d="M216 605q77 0 119 -52.5t42 -124.5q0 -81 -48.5 -134.5t-118.5 -53.5q-71 0 -115.5 48t-44.5 127q0 82 48.5 136t117.5 54zM182 -50l470 680h59l-470 -680h-59zM209 564q-41 0 -63 -40t-22 -91q0 -62 24.5 -107t70.5 -45q40 0 62 40t22 92q0 64 -26.5 107.5t-67.5 43.5z
M685 346q77 0 119 -52.5t42 -124.5q0 -81 -48.5 -134.5t-118.5 -53.5q-71 0 -115.5 48t-44.5 127q0 82 48.5 136t117.5 54zM678 305q-41 0 -63 -40t-22 -91q0 -62 24.5 -107t70.5 -45q40 0 62 40t22 92q0 64 -26.5 107.5t-67.5 43.5z" />
    <glyph glyph-name="ampersand" unicode="&#x26;" horiz-adv-x="762" 
d="M737 439l-89 -23l-95 -182q-17 -33 -44 -75q43 -52 72 -76.5t59 -26.5q24 -2 44 11t28 27l7 14l23 -15l-6 -11.5t-18 -26t-29.5 -32.5t-39 -25.5t-48.5 -10.5q-43 1 -73.5 23.5t-73.5 75.5q-96 -106 -204 -106q-106 0 -160.5 55.5t-54.5 133.5q0 37 15 70t43 60t52.5 45
t56.5 37q-44 46 -61.5 75.5t-16.5 69.5q1 73 55 114t128 41q69 0 110.5 -31t41.5 -83q0 -50 -35 -87.5t-113 -81.5q60 -64 93 -105l78 -99q18 31 37 71l72 152l-72 22v31h218v-31zM347 221q-45 54 -120 134q-47 -32 -74.5 -67t-27.5 -85q0 -60 43.5 -105t119.5 -45
q81 0 140 65zM205 552q0 -8 1 -15t2 -12.5t4 -12l5 -10.5t7.5 -11.5t8.5 -11l11 -12.5t12 -13l15 -15l16 -16q88 66 88 132q0 41 -23 65t-62 24q-33 0 -59 -23.5t-26 -68.5z" />
    <glyph glyph-name="quotesingle" unicode="'" horiz-adv-x="284" 
d="M122 505l-37 288h114l-48 -288h-29z" />
    <glyph glyph-name="parenleft" unicode="(" horiz-adv-x="343" 
d="M337 -180h-55q-191 202 -191 453q0 253 196 459h54q-86 -110 -125.5 -215.5t-39.5 -243.5q0 -133 38.5 -238.5t122.5 -214.5z" />
    <glyph glyph-name="parenright" unicode=")" horiz-adv-x="343" 
d="M5 732h55q191 -202 191 -453q0 -253 -196 -459h-54q86 110 125.5 215.5t39.5 243.5q0 133 -38.5 238.5t-122.5 214.5z" />
    <glyph glyph-name="asterisk" unicode="*" horiz-adv-x="411" 
d="M373 515l-130 -8l15 -130l-25 -6l-45 124l-120 -55l-13 21l104 81l-88 96l15 18l109 -71l65 113l21 -8l-34 -126l127 -25z" />
    <glyph glyph-name="plus" unicode="+" horiz-adv-x="558" 
d="M516 208h-206v-208h-62v208h-206v58h206v208h62v-208h206v-58z" />
    <glyph glyph-name="comma" unicode="," horiz-adv-x="270" 
d="M45 -179q44 30 66.5 69t22.5 75q0 78 -75 96q-8 35 6.5 63.5t50.5 28.5q38 0 65.5 -31.5t27.5 -93.5q0 -67 -40.5 -132.5t-104.5 -99.5q-17 21 -19 25z" />
    <glyph glyph-name="hyphen" unicode="-" horiz-adv-x="343" 
d="M39 230v77h265v-77h-265z" />
    <glyph glyph-name="period" unicode="." horiz-adv-x="260" 
d="M129 -4q-28 0 -48.5 21t-20.5 49t20.5 48.5t48.5 20.5t49 -20.5t21 -48.5t-20.5 -49t-49.5 -21z" />
    <glyph glyph-name="slash" unicode="/" horiz-adv-x="504" 
d="M74 -203l-48 21l403 925l48 -21z" />
    <glyph glyph-name="zero" unicode="0" horiz-adv-x="640" 
d="M159 269q0 -58 14.5 -110t55.5 -93.5t103 -41.5q65 0 107 56t42 148q0 103 -47.5 172t-122.5 69q-64 0 -108 -55t-44 -145zM324 -19q-118 0 -191.5 72.5t-73.5 193.5q0 106 77.5 186.5t182.5 80.5q119 0 190.5 -75.5t71.5 -191.5q0 -107 -75.5 -186.5t-181.5 -79.5z" />
    <glyph glyph-name="one" unicode="1" horiz-adv-x="412" 
d="M261 508v-455l117 -16v-37h-326v37l122 15v372h-130v42l213 42h4z" />
    <glyph glyph-name="two" unicode="2" horiz-adv-x="439" 
d="M189 134l-60 -62h271v-72h-371v26l36 39l54.5 58l49.5 53.5t35.5 42t30.5 43t15 37t7 42.5q0 45 -27 74.5t-70 29.5q-50 0 -100 -58l-25 18q35 53 73.5 81t97.5 28q65 0 102.5 -36.5t37.5 -91.5q0 -57 -37 -111.5t-120 -140.5z" />
    <glyph glyph-name="three" unicode="3" horiz-adv-x="422" 
d="M107 -204q-33 0 -59 16.5t-26 44.5q0 33 41 44l71 -62q69 0 111.5 43t42.5 104q0 68 -54.5 110.5t-136.5 36.5v44l37 18q63 31 96.5 72.5t33.5 81.5q0 45 -26 70t-68 25q-54 0 -103 -58l-25 20q35 52 73.5 80t97.5 28q66 0 103.5 -36.5t37.5 -93.5q0 -34 -19 -66
t-37.5 -49.5t-55.5 -46.5l-29 -24v-3q67 -11 114 -56.5t47 -118.5q0 -91 -84.5 -157.5t-182.5 -66.5z" />
    <glyph glyph-name="four" unicode="4" horiz-adv-x="554" 
d="M321 -195v210h-312v30l374 468h23v-440h139v-58h-139v-210h-85zM85 73h236v303z" />
    <glyph glyph-name="five" unicode="5" horiz-adv-x="418" 
d="M77 -204q-32 0 -58.5 16t-26.5 45q0 33 41 44l71 -62q72 11 112.5 57.5t40.5 116.5q0 62 -45 124.5t-164 139.5l94 224h231v-83h-224l-32 -79q119 -61 173 -132t54 -158q0 -69 -44.5 -129t-105.5 -92t-117 -32z" />
    <glyph glyph-name="six" unicode="6" horiz-adv-x="573" 
d="M560 667q-111 -40 -220 -125.5t-155 -193.5q69 61 143 61q88 0 140 -54t52 -144q0 -89 -63.5 -160t-163.5 -71q-103 0 -168.5 59.5t-65.5 171.5q0 91 42 173t113 142.5t157 104.5t181 69zM282 349q-63 0 -111 -41q-12 -40 -12 -83q0 -100 40 -152t105 -52q51 0 84 37
t33 115q0 81 -38.5 128.5t-100.5 47.5z" />
    <glyph glyph-name="seven" unicode="7" horiz-adv-x="510" 
d="M95 -205l-70 29l375 589h-350v88h438v-9l-316 -552z" />
    <glyph glyph-name="eight" unicode="8" horiz-adv-x="512" 
d="M45 146q0 34 11.5 62t36.5 51t46 37.5t57 34.5l-37 30q-88 70 -88 148q0 72 58 122t146 50q76 0 126 -41.5t50 -105.5q0 -56 -38.5 -104.5t-91.5 -83.5l20 -15q43 -34 65 -54t41 -53.5t19 -69.5q0 -78 -61.5 -126t-146.5 -48q-94 0 -153.5 46.5t-59.5 119.5zM252 286
l-28 22q-49 -39 -68.5 -72.5t-19.5 -81.5q0 -51 33 -92.5t91 -41.5q59 0 89.5 30t30.5 70q0 11 -1.5 22t-7.5 21.5t-9 18.5t-14 19t-15 16.5t-19 18l-19 16t-22 17.5t-21 17zM157 534q0 -35 22.5 -65t68.5 -65l45 -36q71 69 71 151q0 57 -29 89.5t-75 32.5
q-44 0 -73.5 -29.5t-29.5 -77.5z" />
    <glyph glyph-name="nine" unicode="9" horiz-adv-x="573" 
d="M43 -175q67 27 129 65.5t124 103.5t91 139q-64 -53 -136 -53q-88 0 -143 56t-55 145t63.5 160t163.5 71q101 0 167.5 -62.5t66.5 -168.5q0 -89 -37.5 -170.5t-102 -142.5t-147 -106t-176.5 -70zM292 140q66 0 109 36q11 46 11 91q0 100 -39.5 152t-103.5 52
q-52 0 -86 -37.5t-34 -114.5q0 -81 41 -130t102 -49z" />
    <glyph glyph-name="colon" unicode=":" horiz-adv-x="261" 
d="M138 -4q-28 0 -48.5 21t-20.5 49t20.5 48.5t48.5 20.5t49 -20.5t21 -48.5t-21 -49t-49 -21zM141 337q-29 0 -49.5 20.5t-20.5 49.5q0 28 21 48.5t49 20.5t48.5 -20.5t20.5 -48.5t-20.5 -49t-48.5 -21z" />
    <glyph glyph-name="semicolon" unicode=";" horiz-adv-x="266" 
d="M145 337q-29 0 -49.5 20.5t-20.5 49.5q0 28 21 48.5t49 20.5t48.5 -20.5t20.5 -48.5t-20.5 -49t-48.5 -21zM55 -179q44 30 66.5 69t22.5 75q0 78 -75 96q-8 35 6.5 63.5t50.5 28.5q38 0 65.5 -31.5t27.5 -93.5q0 -67 -40.5 -132.5t-104.5 -99.5q-17 21 -19 25z" />
    <glyph glyph-name="less" unicode="&#x3c;" horiz-adv-x="558" 
d="M514 418l-400 -183l400 -180v-69l-472 220v59l472 220v-67z" />
    <glyph glyph-name="equal" unicode="=" horiz-adv-x="558" 
d="M42 293v55h474v-55h-474zM42 147v55h474v-55h-474z" />
    <glyph glyph-name="greater" unicode="&#x3e;" horiz-adv-x="558" 
d="M43 53l400 183l-400 180v69l472 -220v-59l-472 -220v67z" />
    <glyph glyph-name="question" unicode="?" horiz-adv-x="406" 
d="M92 591v104l29 -5q52 -9 104.5 -40.5t91.5 -86t39 -116.5q0 -90 -98 -127l-82 -30l4 -97h-45l-23 163l116 41q42 15 59 32.5t17 42.5q0 41 -53.5 73.5t-134.5 42.5zM152 -7q-25 0 -43.5 19t-18.5 44t18.5 43.5t43.5 18.5q26 0 44.5 -18t18.5 -44t-18.5 -44.5t-44.5 -18.5
z" />
    <glyph glyph-name="at" unicode="@" horiz-adv-x="956" 
d="M535 150l13 41h-6l-23 -34q-56 -83 -87 -111q-42 -38 -83 -38q-40 0 -61 24t-22 63q-1 84 51.5 171.5t125 141t132.5 53.5q43 0 71 -24l9 36h59l-97 -320q-16 -61 -8 -85t35 -24q62 0 129 81t67 199q0 126 -85.5 210.5t-217.5 84.5q-161 0 -275 -123.5t-114 -304.5
q0 -154 94 -240.5t244 -86.5q68 0 143 18v-25q-87 -33 -190 -33q-168 0 -268.5 98t-100.5 250q0 100 42.5 191t110.5 154.5t155.5 101t176.5 37.5q161 0 253.5 -94t92.5 -227q0 -69 -26.5 -131.5t-67.5 -104.5t-90.5 -66.5t-96.5 -24.5q-57 0 -82 36t-3 106zM392 77
q37 0 113 108t94 166l11 35q-29 36 -64 36q-62 0 -124 -100.5t-62 -197.5q0 -47 32 -47z" />
    <glyph glyph-name="A" unicode="A" horiz-adv-x="674" 
d="M3 0v32l58 23l243 614l34 5l35 10l230 -629l68 -22v-33h-257v33l85 23l-61 175h-244l-58 -163l96 -35v-33h-229zM317 574l-101 -283h201l-99 283h-1z" />
    <glyph glyph-name="B" unicode="B" horiz-adv-x="639" 
d="M49 0v33l85 23v550l-85 26v32l231 3q131 2 200 -36.5t69 -114.5q0 -74 -54 -111t-139 -45v-2q97 -5 161 -48t64 -126q0 -88 -77 -139t-210 -49zM332 331h-101v-251q10 -21 37.5 -34.5t66.5 -13.5q58 0 101 38t43 106q0 64 -41 104t-106 51zM231 633v-261q220 2 220 133
t-220 128z" />
    <glyph glyph-name="C" unicode="C" horiz-adv-x="716" 
d="M395 -25q-91 0 -160.5 29.5t-108.5 78.5t-58 106t-19 120q0 159 108 265.5t271 106.5q112 0 209 -54l6 -167h-37l-55 134q-57 38 -132 38q-111 0 -185.5 -80t-74.5 -208q0 -150 75.5 -234.5t192.5 -84.5q75 0 137 45l75 141h37l-26 -168q-131 -68 -255 -68z" />
    <glyph glyph-name="D" unicode="D" horiz-adv-x="773" 
d="M231 627v-534q6 -57 121 -54q122 3 191.5 83t69.5 197q0 88 -30.5 152t-84.5 98t-120.5 48t-146.5 10zM49 0v33l85 23v550l-85 26v32l300 4q175 2 272.5 -88.5t97.5 -236.5q0 -155 -112.5 -251.5t-304.5 -94.5z" />
    <glyph glyph-name="E" unicode="E" horiz-adv-x="632" 
d="M361 321h-130v-274h234l81 132h37l-32 -179h-502v33l85 23v549l-85 27v32h411l87 4v-177h-36l-54 128h-226v-252h130l29 82h32v-204h-35z" />
    <glyph glyph-name="F" unicode="F" horiz-adv-x="577" 
d="M362 319h-131v-263l102 -19v-37h-284v33l85 23v549l-85 27v32h410l88 4v-177h-36l-55 128h-225v-254h131l28 82h32v-204h-36z" />
    <glyph glyph-name="G" unicode="G" horiz-adv-x="752" 
d="M407 -25q-95 0 -166 28t-111.5 77t-60 107.5t-19.5 125.5q0 149 114.5 258.5t279.5 109.5q110 0 203 -54l6 -162h-39l-56 132q-54 35 -133 35q-122 0 -194 -89t-72 -214q0 -145 80 -224.5t195 -79.5q70 0 119 22v204l-93 26v28h246v-33l-57 -16v-207l-31 -17
q-101 -57 -211 -57z" />
    <glyph glyph-name="H" unicode="H" horiz-adv-x="793" 
d="M477 0v33l85 23v267h-331v-267l85 -24v-32h-267v33l85 23v550l-85 26v32h267v-32l-85 -26v-236h331v236l-85 26v32h267v-32l-85 -26v-550l85 -24v-32h-267z" />
    <glyph glyph-name="I" unicode="I" horiz-adv-x="354" 
d="M49 0v33l85 23v550l-85 26v32h267v-32l-85 -26v-550l85 -24v-32h-267z" />
    <glyph glyph-name="J" unicode="J" horiz-adv-x="346" 
d="M235 606v-555q0 -58 -9 -100.5t-32 -80.5t-67.5 -60.5t-110.5 -27.5l-6 34q43 9 70 28t39 51t15.5 62.5t3.5 81.5v568l-93 21v36h275v-32z" />
    <glyph glyph-name="K" unicode="K" horiz-adv-x="681" 
d="M49 0v33l85 23v550l-85 26v32h267v-32l-85 -26v-550l85 -24v-32h-267zM518 0l-279 359v4l28 13l224 230l-70 29v29h209v-32l-81 -26l-212 -220l259 -334l75 -20v-32h-153z" />
    <glyph glyph-name="L" unicode="L" horiz-adv-x="594" 
d="M231 47h220l81 152h37l-36 -199h-484v33l85 23v549l-85 27v32h284v-32l-102 -26v-559z" />
    <glyph glyph-name="M" unicode="M" horiz-adv-x="913" 
d="M46 0v32l85 24l3 550l-84 26v32h199l220 -495l184 447l4 48h209v-32l-85 -26l3 -550l85 -24v-32h-271v33l89 23l3 530l-210 -499l-18 -53h-36l-19 53l-221 486v-503l110 -37v-33h-250z" />
    <glyph glyph-name="N" unicode="N" horiz-adv-x="777" 
d="M660 -11h-23l-438 534v-453l107 -37v-33h-247v33l85 23v540l-95 36v32h160l394 -482v410l-107 39v33h247v-33l-85 -25v-489z" />
    <glyph glyph-name="O" unicode="O" horiz-adv-x="786" 
d="M404 17q74 0 127 47t75.5 112t22.5 136q0 132 -70.5 229.5t-174.5 97.5q-58 0 -103 -26t-71 -69t-39.5 -92t-13.5 -101q0 -80 26 -154t84 -127t137 -53zM392 681q85 0 152.5 -29.5t107 -79t60 -109.5t20.5 -126q0 -166 -95 -264t-244 -98q-148 0 -243.5 95t-95.5 248
q0 166 95 264.5t243 98.5z" />
    <glyph glyph-name="P" unicode="P" horiz-adv-x="597" 
d="M277 314q90 7 141.5 47t51.5 110q0 69 -60 114.5t-179 45.5v-575l127 -23v-33h-309v33l85 23v550l-85 26v32l219 2q148 1 226.5 -47.5t78.5 -131.5q0 -71 -47 -121t-113 -70t-136 -15v33z" />
    <glyph glyph-name="Q" unicode="Q" horiz-adv-x="786" 
d="M392 681q85 0 152.5 -29t107 -78t60 -108.5t20.5 -124.5q0 -147 -78 -244t-203 -116q102 -73 173 -107.5t154 -34.5q96 0 185 60l20 -22q-20 -20 -27 -26.5t-32.5 -26t-47 -27.5t-58.5 -16.5t-79 -8.5q-57 0 -111.5 15t-113.5 49.5t-102 65.5t-114 87q-110 29 -177 118.5
t-67 215.5q0 163 95 260.5t243 97.5zM384 639q-58 0 -103 -26t-71 -69t-39.5 -92t-13.5 -101q0 -80 26 -154t84 -127t137 -53q74 0 127 47t75.5 112t22.5 136q0 132 -70.5 229.5t-174.5 97.5z" />
    <glyph glyph-name="R" unicode="R" horiz-adv-x="666" 
d="M49 0v33l85 23v550l-85 26v32l230 3q140 1 211.5 -42.5t71.5 -121.5q0 -123 -151 -172l195 -275l87 -23v-33h-162l-175 247l-39 58l-86 -5v-244l85 -24v-32h-267zM231 632v-289h83q62 7 103 45t41 95q0 73 -60 112.5t-167 36.5z" />
    <glyph glyph-name="S" unicode="S" horiz-adv-x="517" 
d="M51 33l-13 177h38l55 -144q49 -40 116 -40q59 0 96.5 34t37.5 90q0 87 -96 127l-102 43q-69 30 -102.5 70.5t-33.5 101.5q0 82 66.5 137t168.5 55q88 0 155 -41l6 -165h-34l-52 136q-42 28 -88 28q-57 0 -92.5 -33.5t-35.5 -78.5q0 -76 85 -114l119 -54q71 -32 102 -74
t31 -100q0 -89 -74.5 -148t-164.5 -59q-49 0 -101 14.5t-87 37.5z" />
    <glyph glyph-name="T" unicode="T" horiz-adv-x="647" 
d="M107 664h433l67 8l10 -181h-36l-54 128h-155v-563l94 -23v-33h-286v33l95 23v563h-155l-54 -128h-36l9 181z" />
    <glyph glyph-name="U" unicode="U" horiz-adv-x="739" 
d="M377 -24q-151 0 -210.5 72t-59.5 206v352l-85 26v32h270v-32l-85 -26v-327q0 -246 179 -246q102 0 149 58.5t46 182.5l-3 323l-116 35v32h263v-32l-85 -26v-352q-1 -90 -40 -154.5t-97 -94t-126 -29.5z" />
    <glyph glyph-name="V" unicode="V" horiz-adv-x="655" 
d="M307 -12l-244 618l-64 26v32h255v-32l-85 -26l180 -475h2l174 466l-108 33v34h239v-32l-66 -30l-241 -614h-42z" />
    <glyph glyph-name="W" unicode="W" horiz-adv-x="968" 
d="M645 -7l-160 469l-164 -469h-73l-186 613l-63 26v32h255v-32l-86 -26l140 -511l151 444l-22 67l-86 26v32h270v-34l-84 -24l163 -504l140 495l-104 33v34h233v-32l-66 -30l-184 -609h-74z" />
    <glyph glyph-name="X" unicode="X" horiz-adv-x="713" 
d="M19 0v33l75 22l225 280l-188 271l-75 26v32h274v-32l-85 -26l141 -201h2l147 192l-102 33v34h253v-32l-75 -26l-197 -241l210 -309l70 -23v-33h-270v33l85 23l-161 241h-2l-175 -239l85 -25v-33h-237z" />
    <glyph glyph-name="Y" unicode="Y" horiz-adv-x="630" 
d="M557 602l-193 -322v-224l94 -23v-33h-286v33l95 23v206l-196 344l-64 26v32h251v-32l-75 -26l155 -286h4l158 277l-94 33v34h217v-32z" />
    <glyph glyph-name="Z" unicode="Z" horiz-adv-x="620" 
d="M31 0v25l417 593h-291l-64 -139h-36l21 191l75 -6h439v-3l-430 -614h311l82 152h37l-37 -204l-78 5h-446z" />
    <glyph glyph-name="bracketleft" unicode="[" horiz-adv-x="355" 
d="M310 -181h-182v914h182v-39h-100v-836h100v-39z" />
    <glyph glyph-name="backslash" unicode="\" horiz-adv-x="504" 
d="M477 -182l-48 -21l-403 925l48 21z" />
    <glyph glyph-name="bracketright" unicode="]" horiz-adv-x="355" 
d="M45 733h182v-914h-182v39h100v836h-100v39z" />
    <glyph glyph-name="asciicircum" unicode="^" horiz-adv-x="424" 
d="M76 468h-46l152 288h60l152 -288h-49l-136 216z" />
    <glyph glyph-name="underscore" unicode="_" horiz-adv-x="408" 
d="M4 -205v59h400v-59h-400z" />
    <glyph glyph-name="grave" unicode="`" horiz-adv-x="400" 
d="M228 551l-100 186v19h80l61 -205h-41z" />
    <glyph glyph-name="a" unicode="a" horiz-adv-x="502" 
d="M169 -15q-45 0 -82.5 31t-37.5 86q0 57 39.5 89t121.5 54l103 27v52q-1 56 -27.5 86.5t-67.5 30.5q-34 0 -63 -18l-4 -99q-25 -3 -40 -3q-48 0 -48 43q0 38 59 78.5t132 40.5q75 0 110 -35t35 -110v-270q0 -16 6.5 -21.5t26.5 -5.5h50v-28q-58 -25 -95 -25
q-36 0 -54 21.5t-18 56.5h-3l-15.5 -15l-15 -14.5t-12.5 -11.5t-13.5 -11t-12 -8.5t-13 -7.5t-13 -5t-15 -5t-15.5 -2t-18 -1zM222 53q55 0 91 54v132l-96 -32q-39 -13 -58 -30t-19 -47q0 -36 24 -56.5t58 -20.5z" />
    <glyph glyph-name="b" unicode="b" horiz-adv-x="546" 
d="M244 -16q-73 0 -119 19l-37 16v641l-62 19v32l147 35v-340q55 77 147 77q78 0 134 -56.5t56 -170.5t-80.5 -193t-185.5 -79zM277 419q-56 0 -104 -48v-303q44 -40 103 -40t103.5 53.5t44.5 147.5q0 86 -41 138t-106 52z" />
    <glyph glyph-name="c" unicode="c" horiz-adv-x="469" 
d="M250 -16q-90 0 -152.5 62t-62.5 172q0 116 77 190.5t174 74.5q61 0 103 -29t42 -71q0 -23 -14 -39t-39 -16l-34 3l-15 93q-24 16 -60 16q-63 0 -104.5 -52t-41.5 -131q0 -85 49 -144t124 -59q32 0 61 16t43 32l13 15l20 -13q-2 -5 -5.5 -13t-19 -28.5t-34 -36.5t-52 -29
t-72.5 -13z" />
    <glyph glyph-name="d" unicode="d" horiz-adv-x="570" 
d="M281 688v31l175 27v-688l81 -20v-33l-134 -19l-24 68q-35 -34 -67 -52t-74 -18q-99 0 -150.5 67t-51.5 158q0 121 70.5 197.5t178.5 76.5q44 0 86 -10v199zM288 52q44 0 83 26v297q-4 7 -12.5 18t-36.5 29.5t-60 18.5q-61 0 -101.5 -48.5t-40.5 -132.5q0 -54 14 -98
t53.5 -77t100.5 -33z" />
    <glyph glyph-name="e" unicode="e" horiz-adv-x="501" 
d="M255 -16q-59 0 -104 24t-68.5 61t-35 75t-11.5 73q0 113 66 189.5t170 76.5q84 0 130 -55t46 -157h-331v-10q0 -92 48 -146.5t127 -54.5q38 0 72.5 19t50.5 37l16 19l20 -12q-2 -6 -6 -15t-20 -33t-36.5 -42.5t-56 -33.5t-77.5 -15zM250 439q-46 0 -81.5 -36t-46.5 -93
h226q-1 55 -26 92t-72 37z" />
    <glyph glyph-name="f" unicode="f" horiz-adv-x="343" 
d="M33 0v34l63 21v365h-72v41l71 20v4q0 107 64.5 184t147.5 77q57 0 92.5 -27.5t35.5 -62.5q0 -21 -14 -36.5t-38 -15.5l-24 4l-24 83q-18 12 -46 12q-47 0 -77.5 -37t-30.5 -117v-79h136v-51h-136v-364l90 -21v-34h-238z" />
    <glyph glyph-name="g" unicode="g" horiz-adv-x="517" 
d="M498 412l-114 6l-1 -3q51 -43 51 -111q0 -79 -60 -129t-139 -50q-37 0 -72 12q-35 -27 -35 -50q0 -12 10.5 -22.5t26.5 -11.5l189 -11q72 -4 107.5 -34t35.5 -78q0 -69 -81 -127t-212 -58q-75 0 -128 30.5t-53 82.5q0 29 19 57.5t54 47.5l24 13v2l-71 68q24 61 79 107
q-79 48 -79 147q0 81 55 132t137 51q47 0 118 -25l139 15v-61zM247 168q41 0 68.5 33.5t27.5 89.5q0 76 -30 114.5t-78 38.5q-44 0 -69 -31.5t-25 -88.5q0 -73 28.5 -114.5t77.5 -41.5zM345 -39l-189 12q-43 -46 -43 -89q0 -34 33.5 -61.5t104.5 -27.5q85 0 129.5 32.5
t44.5 72.5q0 55 -80 61z" />
    <glyph glyph-name="h" unicode="h" horiz-adv-x="564" 
d="M331 0v34l57 20v253q-3 56 -23.5 82.5t-68.5 26.5q-29 0 -59.5 -14t-46.5 -27.5t-16 -15.5v-305l66 -20v-34h-214v34l63 22v611l-67 26v27l152 26v-354q14 17 31.5 34t55.5 37t76 20q72 0 104 -37t32 -131v-261l65 -21v-33h-207z" />
    <glyph glyph-name="i" unicode="i" horiz-adv-x="279" 
d="M31 0v34l67 22v342l-59 21v35l142 29v-428l75 -21v-34h-225zM133 624q-25 0 -43.5 18t-18.5 43t18.5 43t43.5 18q24 0 42.5 -18t18.5 -43t-18.5 -43t-42.5 -18z" />
    <glyph glyph-name="j" unicode="j" horiz-adv-x="261" 
d="M2 -251l-5 29q50 16 72 76t22 172v366l-59 27v35l143 29v-457q0 -108 -32 -173q-21 -43 -58.5 -70.5t-82.5 -33.5zM126 624q-24 0 -42.5 18t-18.5 43t18.5 43t42.5 18q25 0 43.5 -18t18.5 -43t-18.5 -43t-43.5 -18z" />
    <glyph glyph-name="k" unicode="k" horiz-adv-x="521" 
d="M92 56v604l-66 26v27l151 33v-692l66 -20v-34h-214v34zM457 -17q-47 -2 -103 70l-172 225v2l36 11l140 128l-61 20v31h202v-28l-67 -17l-162 -137l239 -283q-15 -21 -52 -22z" />
    <glyph glyph-name="l" unicode="l" horiz-adv-x="279" 
d="M29 0v34l63 21v605l-64 19v32l149 35v-692l68 -20v-34h-216z" />
    <glyph glyph-name="m" unicode="m" horiz-adv-x="869" 
d="M637 0v34l57 20v253q-3 56 -23.5 82.5t-68.5 26.5q-38 0 -71 -19t-51 -38v-305l65 -21v-33h-207v34l57 20v253q-3 56 -23.5 82.5t-68.5 26.5q-29 0 -59.5 -14t-46.5 -27.5t-16 -15.5v-305l66 -20v-34h-214v34l63 21v337l-67 16v27l123 48h5l22 -91h1q77 91 164 91
q62 0 91 -24.5t36 -74.5h2q8 10 19 21.5t34 32t54.5 33t63.5 12.5q71 0 103 -37.5t32 -130.5v-261l65 -21v-33h-207z" />
    <glyph glyph-name="n" unicode="n" horiz-adv-x="570" 
d="M33 0v34l63 21v337l-67 16v27l123 48h5l22 -91h1q77 91 164 91q72 0 104 -37t32 -131v-261l65 -21v-33h-207v34l57 20v253q-3 56 -23.5 82.5t-68.5 26.5q-29 0 -59.5 -14t-46.5 -27.5t-16 -15.5v-305l66 -20v-34h-214z" />
    <glyph glyph-name="o" unicode="o" horiz-adv-x="536" 
d="M127 261q0 -58 15 -109.5t51 -87.5t87 -36q59 0 94 52t35 131q0 108 -41.5 169.5t-110.5 61.5q-60 0 -95 -51t-35 -130zM268 -16q-109 0 -170.5 70t-61.5 172q0 108 67.5 183.5t164.5 75.5q107 0 169.5 -63.5t62.5 -176.5q0 -109 -67 -185t-165 -76z" />
    <glyph glyph-name="p" unicode="p" horiz-adv-x="532" 
d="M16 -240v34l63 22v576l-67 16v27l123 48h5l19 -80q64 80 150 80q81 0 134 -56t53 -171q0 -113 -81.5 -192.5t-185.5 -79.5q-32 0 -65 10v-176l91 -27v-31h-239zM265 418q-54 0 -101 -42v-313q35 -35 98 -35q59 0 103.5 53.5t44.5 146.5q0 86 -40 138t-105 52z" />
    <glyph glyph-name="q" unicode="q" horiz-adv-x="529" 
d="M273 -240v31l98 28v219q-61 -54 -125 -54q-97 0 -153.5 69.5t-56.5 172.5q0 113 75 185t172 72q73 0 117 -32l46 34h10v-669l63 -22v-34h-246zM297 48q37 0 74 22v324q-43 46 -103 46q-66 0 -104.5 -54.5t-38.5 -133.5t43 -141.5t129 -62.5z" />
    <glyph glyph-name="r" unicode="r" horiz-adv-x="376" 
d="M33 0v34l63 22v336l-67 13v30l136 48h5l6 -125h2l32 43q36 48 58.5 66t47.5 18q24 0 36.5 -13.5t12.5 -36.5q0 -29 -32 -69l-77 26q-45 -37 -76 -76v-264l88 -17v-35h-235z" />
    <glyph glyph-name="s" unicode="s" horiz-adv-x="418" 
d="M192 -19q-66 0 -130 39l-16 140h33l51 -110q35 -30 82 -30q38 0 62 21t24 55q0 29 -21.5 53t-75.5 48l-40 18q-54 24 -78.5 54t-24.5 77q0 57 51.5 98t120.5 41q59 0 118 -32l5 -119h-30l-41 87q-30 25 -67 25q-35 0 -55.5 -19.5t-20.5 -49.5t18 -51t63 -41l43 -19
q64 -28 91 -61t27 -76q0 -61 -57.5 -104.5t-131.5 -43.5z" />
    <glyph glyph-name="t" unicode="t" horiz-adv-x="332" 
d="M186 -11q-103 0 -101 109l3 322h-70v42l73 18l44 119h34v-129h134v-53h-132v-279q0 -55 16.5 -70.5t50.5 -15.5l75 7l6 -25q-6 -5 -18 -12.5t-46.5 -20t-68.5 -12.5z" />
    <glyph glyph-name="u" unicode="u" horiz-adv-x="553" 
d="M412 -15l-29 81q-74 -83 -167 -83q-66 0 -99.5 46t-33.5 132v246l-69 20v37l154 15v-309q4 -119 105 -119q27 0 53.5 11.5t39.5 23.5l13 12v309l-81 18v37l166 15v-419l81 -20v-33z" />
    <glyph glyph-name="v" unicode="v" horiz-adv-x="501" 
d="M274 -18h-53l-176 438l-46 19v31h213v-31l-73 -19l116 -315l9 -28h2l10 28l121 310l-71 24v31h170v-31l-46 -19z" />
    <glyph glyph-name="w" unicode="w" horiz-adv-x="739" 
d="M411 478l118 -357l10 -33h2q4 16 9 33l87 293l-74 25v31h173v-31l-46 -19l-136 -436h-60l-113 324l-11 36h-1l-11 -36l-110 -324h-64l-135 436l-46 19v31h213v-31l-73 -19l83 -299l9 -33h2q4 16 10 33l116 357h48z" />
    <glyph glyph-name="x" unicode="x" horiz-adv-x="514" 
d="M504 0h-227v34l57 20l-96 149h-2l-105 -149l56 -20v-34h-177v34l62 19l141 187l-126 181l-60 18v31h220v-31l-57 -11l82 -133h2l96 133l-53 11v31h164v-31l-56 -11l-128 -168l142 -206l65 -21v-33z" />
    <glyph glyph-name="y" unicode="y" horiz-adv-x="498" 
d="M400 415l-69 25v30h168v-31l-46 -20l-222 -554q-25 -64 -47.5 -91t-58.5 -27q-25 0 -43.5 16t-18.5 40q0 23 14 36.5t36 13.5q30 0 49 -36h2l59 138l-177 465l-47 19v31h217v-31l-73 -19l124 -350h3z" />
    <glyph glyph-name="z" unicode="z" horiz-adv-x="454" 
d="M329 0h-301v34l273 393h-177l-44 -105h-31v154l74 -6h300v-15l-286 -412h192l57 118h32l-14 -165z" />
    <glyph glyph-name="braceleft" unicode="{" horiz-adv-x="355" 
d="M145 277v-2q43 -17 62.5 -42t22.5 -73l10 -176q4 -83 23.5 -108t76.5 -25v-32h-15q-101 0 -137.5 42t-35.5 133l1 174q0 39 -19 61t-51 23l-38 1v46l38 1q32 1 51 23t19 61l-1 174q-1 91 35.5 133t137.5 42h15v-32q-57 0 -76.5 -25t-23.5 -108l-10 -176q-3 -48 -22.5 -73
t-62.5 -42z" />
    <glyph glyph-name="bar" unicode="|" horiz-adv-x="248" 
d="M153 -202h-58v935h58v-935z" />
    <glyph glyph-name="braceright" unicode="}" horiz-adv-x="355" 
d="M210 275v2q-43 17 -62.5 42t-22.5 73l-10 176q-4 83 -23.5 108t-76.5 25v32h15q101 0 137.5 -42t35.5 -133l-1 -174q0 -39 19 -61t51 -23l38 -1v-46l-38 -1q-32 -1 -51 -23t-19 -61l1 -174q1 -91 -35.5 -133t-137.5 -42h-15v32q57 0 76.5 25t23.5 108l10 176
q3 48 22.5 73t62.5 42z" />
    <glyph glyph-name="asciitilde" unicode="~" horiz-adv-x="424" 
d="M64 207l-31 13l5 14q17 49 44.5 74t57 25.5t60.5 -12.5l59 -27q26 -12 43.5 -14.5t30 5.5t20 20.5t18.5 36.5l30 -12l-6 -17q-28 -78 -72 -97.5t-97 9.5l-61 28q-23 11 -38.5 13t-27 -6t-18.5 -19t-17 -34z" />
    <glyph glyph-name="exclamdown" unicode="&#xa1;" horiz-adv-x="285" 
d="M191 -125h-97l25 502h47zM143 577q25 0 43.5 -19t18.5 -44t-18.5 -43.5t-43.5 -18.5q-26 0 -44.5 18t-18.5 44t18.5 44.5t44.5 18.5z" />
    <glyph glyph-name="cent" unicode="&#xa2;" horiz-adv-x="469" 
d="M208 -125l9 112q-80 12 -131 71t-51 160q0 105 67.5 177t157.5 85l12 132h41l-12 -129q58 -2 97 -30.5t39 -69.5q0 -47 -51 -47l-31 3l-10 85q-30 15 -47 17l-34 -386q18 -3 37 -3q30 0 59.5 16t44.5 32l15 17l20 -13q-2 -5 -5.5 -13t-18.5 -28.5t-34 -36.5t-52 -29
t-72 -13l-9 -109h-41zM123 257q0 -63 26.5 -113.5t74.5 -74.5l33 372q-57 -8 -95.5 -60t-38.5 -124z" />
    <glyph glyph-name="sterling" unicode="&#xa3;" horiz-adv-x="632" 
d="M123 255v44h122l30 112q30 110 103.5 176t125.5 66q39 0 69.5 -26.5t30.5 -69.5q0 -17 -18 -30t-48 -16q-17 99 -65 99q-52 0 -96 -163l-40 -148h192v-44h-204l-3 -14q-40 -147 -139 -215q56 -26 108 -62l50 -35q74 -51 107 -69t60 -18q10 0 17.5 4t11.5 14t6.5 18
t2.5 23.5v24t-1 26t-1 21.5q70 0 70 -45q0 -41 -41.5 -85.5t-114.5 -44.5q-20 0 -40.5 4t-43 14.5t-38.5 19t-42 26.5l-37.5 26.5l-40 31l-36.5 28.5l-60 46q-36 -13 -67 -13q-53 0 -53 33q0 17 21 29.5t43 12.5q37 0 83 -16q35 30 58 110l28 105h-110z" />
    <glyph glyph-name="yen" unicode="&#xa5;" horiz-adv-x="610" 
d="M82 248v44h174l-172 286l-64 26v32h251v-32l-75 -26l131 -238h4l136 229l-94 33v34h217v-32l-66 -30l-172 -282h175v-44h-177v-75h177v-44h-177v-73l97 -23v-33h-284v33l98 23v73h-179v44h179v75h-179z" />
    <glyph glyph-name="brokenbar" unicode="&#xa6;" horiz-adv-x="248" 
d="M153 313h-58v420h58v-420zM153 -202h-58v421h58v-421z" />
    <glyph glyph-name="section" unicode="&#xa7;" horiz-adv-x="571" 
d="M297 -100q0 10 -2 21t-7.5 25l-9.5 23.5t-14 27t-15 25.5l-17.5 29l-16.5 28l-68 114q-69 114 -69 181q0 56 35.5 112t86 94t103.5 62t90 24q33 0 52 -16t19 -39q0 -18 -12.5 -31t-31.5 -13l-76 40q-45 -5 -85 -26q-7 -21 -7 -37q0 -17 9 -40t16.5 -37.5t29 -49.5
l28.5 -46l68 -114q68 -115 68 -183q0 -74 -57.5 -143.5t-130 -108t-126.5 -38.5q-33 0 -51 16t-18 39q0 18 11.5 30.5t31.5 12.5l75 -39q42 3 84 26q7 16 7 31zM153 414q0 -67 70 -190l53 -94q44 -79 58.5 -112.5t14.5 -63.5q0 -14 -5 -41h4q47 52 47 123q0 68 -68 190
l-53 94q-43 76 -58.5 110.5t-14.5 65.5q0 14 5 41h-5q-48 -53 -48 -123z" />
    <glyph glyph-name="dieresis" unicode="&#xa8;" horiz-adv-x="400" 
d="M101 606q-23 0 -39.5 16.5t-16.5 39.5t16.5 40t39.5 17t40 -17t17 -40t-17 -39.5t-40 -16.5zM298 606q-23 0 -40 16.5t-17 39.5t17 40t40 17t40 -17t17 -40t-17 -39.5t-40 -16.5z" />
    <glyph glyph-name="copyright" unicode="&#xa9;" horiz-adv-x="811" 
d="M60 327q0 145 101 245.5t244 100.5q144 0 245 -101t101 -245t-101 -244.5t-245 -100.5t-244.5 100.5t-100.5 244.5zM93 327q0 -131 91.5 -223t220.5 -92t220.5 92t91.5 223t-91.5 223t-220.5 92t-220.5 -92t-91.5 -223zM409 132q-98 0 -146.5 56t-48.5 129
q0 90 59.5 147.5t149.5 57.5q19 0 39 -4t29.5 -7t29.5 -11.5t23 -9.5l2 -102h-25l-33 72q-34 28 -77 28q-51 0 -85 -40t-34 -119q0 -74 37 -117.5t97 -43.5q42 0 72 25l36 76h25l-8 -101q-2 -1 -13.5 -5.5l-14 -5.5l-12.5 -5t-14 -5t-13 -4t-14 -4t-13.5 -3t-15 -2.5t-15 -1
t-17.5 -0.5z" />
    <glyph glyph-name="ordfeminine" unicode="&#xaa;" horiz-adv-x="427" 
d="M140 235q-38 0 -69 25.5t-31 69.5q0 46 32 71t100 42l86 22v37q-1 43 -22 68t-55 25q-31 0 -50 -13l-3 -79q-5 -5 -36 -5q-40 0 -40 37q0 31 49.5 63.5t111.5 32.5q64 0 92.5 -29.5t28.5 -91.5v-203q0 -14 5.5 -19t22.5 -5h40v-24q-49 -22 -81 -22q-59 0 -61 63h-6
q-4 -3 -16.5 -15t-16 -15l-13.5 -11.5t-15.5 -10.5t-14.5 -6.5t-18 -5.5t-20 -1zM183 293q44 0 75 37v107l-75 -23q-63 -21 -63 -60q0 -28 18.5 -44.5t44.5 -16.5z" />
    <glyph glyph-name="guillemotleft" unicode="&#xab;" horiz-adv-x="609" 
d="M272 461l28 -25l-140 -206l139 -196l-27 -26l-202 214v17zM491 461l28 -25l-140 -206l139 -196l-27 -26l-202 214v17z" />
    <glyph glyph-name="logicalnot" unicode="&#xac;" horiz-adv-x="558" 
d="M42 266h474v-206h-62v148h-412v58z" />
    <glyph glyph-name="registered" unicode="&#xae;" horiz-adv-x="407" 
d="M6 560q0 81 58.5 137.5t140.5 56.5t139 -56t57 -138q0 -81 -58.5 -137t-140.5 -56t-139 55.5t-57 137.5zM37 560q0 -70 48 -118.5t118 -48.5q71 0 119 48t48 119q0 70 -48 118.5t-119 48.5q-70 0 -118 -48t-48 -119zM101 464v16l28 7v157l-28 8v15h85q107 0 107 -55
q0 -38 -52 -56v-1l50 -69l31 -6v-16h-68l-30 43l-29 40h-21v-60l26 -7v-16h-99zM174 648v-80h32q15 2 27 13t12 26q0 44 -71 41z" />
    <glyph glyph-name="macron" unicode="&#xaf;" horiz-adv-x="400" 
d="M55 627v60h290v-60h-290z" />
    <glyph glyph-name="degree" unicode="&#xb0;" horiz-adv-x="297" 
d="M0 603q0 62 43.5 105t105.5 43q61 0 104.5 -43.5t43.5 -104.5q0 -62 -43 -105.5t-105 -43.5t-105.5 43.5t-43.5 105.5zM52 603q0 -44 27.5 -73.5t69.5 -29.5t69.5 29.5t27.5 73.5t-27.5 73.5t-69.5 29.5t-69.5 -29.5t-27.5 -73.5z" />
    <glyph glyph-name="plusminus" unicode="&#xb1;" horiz-adv-x="557" 
d="M516 338h-206v-208h-62v208h-206v58h206v208h62v-208h206v-58zM516 0h-474v58h474v-58z" />
    <glyph glyph-name="acute" unicode="&#xb4;" horiz-adv-x="400" 
d="M191 756h80v-19l-99 -186h-41z" />
    <glyph glyph-name="paragraph" unicode="&#xb6;" horiz-adv-x="539" 
d="M251 -206q-70 0 -115.5 40t-45.5 91q0 34 18 51.5t46 17.5q23 0 38.5 -14.5t19.5 -39.5l-31 -70v-6q26 -35 80 -35q57 0 86.5 42t29.5 120v633h-53v-420h-57q-95 0 -162.5 67.5t-67.5 162.5t67.5 162.5t162.5 67.5h252v-33l-85 -25v-604q0 -104 -52.5 -156t-130.5 -52z
" />
    <glyph glyph-name="periodcentered" unicode="&#xb7;" horiz-adv-x="339" 
d="M169 202q-28 0 -48.5 21t-20.5 49t20.5 48.5t48.5 20.5t49 -20.5t21 -48.5t-20.5 -49t-49.5 -21z" />
    <glyph glyph-name="cedilla" unicode="&#xb8;" horiz-adv-x="400" 
d="M122 -257l-5 29q27 8 42.5 14.5t32 22t16.5 36.5q0 38 -53 58l63 101h38l-40 -67q32 -3 51.5 -21.5t19.5 -48.5q0 -29 -16.5 -52t-44 -37t-52.5 -22t-52 -13z" />
    <glyph glyph-name="ordmasculine" unicode="&#xba;" horiz-adv-x="454" 
d="M115 447q1 -73 32 -125t90 -51q48 1 75.5 43t26.5 106q-1 81 -34.5 128.5t-87.5 46.5q-48 -1 -75.5 -42.5t-26.5 -105.5zM227 232q-91 0 -142 56t-51 138q0 86 56 146.5t137 60.5q89 0 141 -51.5t52 -141.5q0 -87 -56 -147.5t-137 -60.5z" />
    <glyph glyph-name="guillemotright" unicode="&#xbb;" horiz-adv-x="608" 
d="M118 8l-28 25l139 206l-138 196l27 26l202 -214v-17zM336 8l-28 25l139 206l-138 196l27 26l202 -214v-17z" />
    <glyph glyph-name="onequarter" unicode="&#xbc;" horiz-adv-x="905" 
d="M224 667v-347l100 -10v-34h-288v34l104 11v271h-110v30l188 45h6zM223 -86l-44 31l539 782l44 -29zM508 92v23l249 279l30 -2v-249h99v-51h-99v-92h-78v92h-201zM576 143h133v149z" />
    <glyph glyph-name="onehalf" unicode="&#xbd;" horiz-adv-x="946" 
d="M224 667v-347l100 -10v-34h-288v34l104 11v271h-110v30l188 45h6zM223 -86l-44 31l539 782l44 -29zM592 0v32l45 38q114 96 137 122q33 38 33 73q0 30 -22.5 51.5t-55.5 21.5q-56 0 -110 -59l-25 24q35 47 72.5 72.5t91.5 25.5q56 0 92 -29.5t37 -82.5q0 -12 -1.5 -23
t-7 -22l-10 -19.5t-16 -20.5l-18 -19t-23.5 -21.5l-25 -21l-30 -24l-32 -25.5l-36 -29h224v-64h-320z" />
    <glyph glyph-name="threequarters" unicode="&#xbe;" horiz-adv-x="931" 
d="M163 258q-61 0 -94 20.5t-33 49.5q0 38 48 45l49 -68q23 -7 54 -7q40 0 67 19t27 56q0 40 -38 62.5t-111 18.5v33l17 5q106 31 106 88q0 20 -16.5 32t-42.5 12q-39 0 -66 -14.5t-59 -43.5l-23 23q79 88 175 88q52 0 85 -21.5t33 -57.5q0 -30 -30.5 -56.5t-73.5 -42.5v-3
q65 -7 96.5 -35.5t31.5 -64.5q0 -57 -60.5 -97.5t-141.5 -40.5zM251 -86l-44 31l539 782l44 -29zM534 92v23l249 279l30 -2v-249h99v-51h-99v-92h-78v92h-201zM602 143h133v149z" />
    <glyph glyph-name="questiondown" unicode="&#xbf;" horiz-adv-x="406" 
d="M314 -21v-104l-29 5q-52 9 -104.5 40.5t-91.5 86t-39 116.5q0 90 98 127l82 30l-4 97h45l23 -163l-116 -41q-42 -15 -59 -32.5t-17 -42.5q0 -41 53.5 -73.5t134.5 -42.5zM254 577q25 0 43.5 -19t18.5 -44t-18.5 -43.5t-43.5 -18.5q-26 0 -44.5 18t-18.5 44t18.5 44.5
t44.5 18.5z" />
    <glyph glyph-name="Agrave" unicode="&#xc0;" horiz-adv-x="674" 
d="M3 0v32l58 23l243 614l34 5l35 10l230 -629l68 -22v-33h-257v33l85 23l-61 175h-244l-58 -163l96 -35v-33h-229zM317 574l-101 -283h201l-99 283h-1zM195 875h93l79 -139h-52l-120 119v20z" />
    <glyph glyph-name="Aacute" unicode="&#xc1;" horiz-adv-x="674" 
d="M3 0v32l58 23l243 614l34 5l35 10l230 -629l68 -22v-33h-257v33l85 23l-61 175h-244l-58 -163l96 -35v-33h-229zM317 574l-101 -283h201l-99 283h-1zM383 875h93v-20l-120 -119h-52z" />
    <glyph glyph-name="Acircumflex" unicode="&#xc2;" horiz-adv-x="674" 
d="M3 0v32l58 23l243 614l34 5l35 10l230 -629l68 -22v-33h-257v33l85 23l-61 175h-244l-58 -163l96 -35v-33h-229zM317 574l-101 -283h201l-99 283h-1zM223 736h-45l111 129h97l111 -129h-47l-114 78z" />
    <glyph glyph-name="Atilde" unicode="&#xc3;" horiz-adv-x="674" 
d="M3 0v32l58 23l243 614l34 5l35 10l230 -629l68 -22v-33h-257v33l85 23l-61 175h-244l-58 -163l96 -35v-33h-229zM317 574l-101 -283h201l-99 283h-1zM357 754l-42 18q-50 25 -73.5 21.5t-43.5 -50.5l-30 13l5 13q28 70 64 87t84 -6l52 -21q38 -19 60.5 -10.5t43.5 57.5
l30 -13l-5 -13q-29 -76 -62.5 -97.5t-82.5 1.5z" />
    <glyph glyph-name="Adieresis" unicode="&#xc4;" horiz-adv-x="674" 
d="M3 0v32l58 23l243 614l34 5l35 10l230 -629l68 -22v-33h-257v33l85 23l-61 175h-244l-58 -163l96 -35v-33h-229zM317 574l-101 -283h201l-99 283h-1zM226 761q-23 0 -39.5 16.5t-16.5 39.5t16.5 40t39.5 17t40 -17t17 -40t-17 -39.5t-40 -16.5zM447 761q-23 0 -40 16.5
t-17 39.5t17 40t40 17t40 -17t17 -40t-17 -39.5t-40 -16.5z" />
    <glyph glyph-name="Aring" unicode="&#xc5;" horiz-adv-x="674" 
d="M3 0v32l58 23l243 614l34 5l35 10l230 -629l68 -22v-33h-257v33l85 23l-61 175h-244l-58 -163l96 -35v-33h-229zM317 574l-101 -283h201l-99 283h-1zM220 827q0 48 34 81t83 33q50 0 83.5 -32.5t33.5 -81.5q0 -48 -34 -81t-83 -33q-50 0 -83.5 32.5t-33.5 81.5zM266 827
q0 -32 20.5 -52.5t50.5 -20.5t50.5 20.5t20.5 52.5t-20.5 52.5t-50.5 20.5t-50.5 -20.5t-20.5 -52.5z" />
    <glyph glyph-name="AE" unicode="&#xc6;" horiz-adv-x="959" 
d="M688 315h-130v-268h234l81 132h37l-32 -179h-498v33l85 23v259h-189l-133 -247l97 -35v-33h-236v32l64 29l314 537l-99 34v32h504l87 4v-177h-36l-54 128h-226v-258h130l29 82h32v-204h-35zM465 619h-10l-153 -259h163v259z" />
    <glyph glyph-name="Ccedilla" unicode="&#xc7;" horiz-adv-x="716" 
d="M296 -265l-5 29q27 8 42.5 14.5t32 22t16.5 36.5q0 38 -53 58l50 81q-87 3 -153 33t-103.5 78.5t-55.5 104t-18 117.5q0 159 108 265.5t271 106.5q112 0 209 -54l6 -167h-37l-55 134q-57 38 -132 38q-111 0 -185.5 -80t-74.5 -208q0 -150 75.5 -234.5t192.5 -84.5
q75 0 137 45l75 141h37l-26 -168q-121 -63 -233 -67l-27 -47q33 -2 54 -20.5t21 -47.5q0 -30 -17 -53.5t-45.5 -37.5t-53.5 -22t-53 -13z" />
    <glyph glyph-name="Egrave" unicode="&#xc8;" horiz-adv-x="632" 
d="M361 321h-130v-274h234l81 132h37l-32 -179h-502v33l85 23v549l-85 27v32h411l87 4v-177h-36l-54 128h-226v-252h130l29 82h32v-204h-35zM192 875h93l79 -139h-52l-120 119v20z" />
    <glyph glyph-name="Eacute" unicode="&#xc9;" horiz-adv-x="632" 
d="M361 321h-130v-274h234l81 132h37l-32 -179h-502v33l85 23v549l-85 27v32h411l87 4v-177h-36l-54 128h-226v-252h130l29 82h32v-204h-35zM380 875h93v-20l-120 -119h-52z" />
    <glyph glyph-name="Ecircumflex" unicode="&#xca;" horiz-adv-x="632" 
d="M361 321h-130v-274h234l81 132h37l-32 -179h-502v33l85 23v549l-85 27v32h411l87 4v-177h-36l-54 128h-226v-252h130l29 82h32v-204h-35zM220 736h-45l111 129h97l111 -129h-47l-114 78z" />
    <glyph glyph-name="Edieresis" unicode="&#xcb;" horiz-adv-x="632" 
d="M361 321h-130v-274h234l81 132h37l-32 -179h-502v33l85 23v549l-85 27v32h411l87 4v-177h-36l-54 128h-226v-252h130l29 82h32v-204h-35zM223 761q-23 0 -39.5 16.5t-16.5 39.5t16.5 40t39.5 17t40 -17t17 -40t-17 -39.5t-40 -16.5zM444 761q-23 0 -40 16.5t-17 39.5
t17 40t40 17t40 -17t17 -40t-17 -39.5t-40 -16.5z" />
    <glyph glyph-name="Igrave" unicode="&#xcc;" horiz-adv-x="354" 
d="M49 0v33l85 23v550l-85 26v32h267v-32l-85 -26v-550l85 -24v-32h-267zM40 875h93l79 -139h-52l-120 119v20z" />
    <glyph glyph-name="Iacute" unicode="&#xcd;" horiz-adv-x="354" 
d="M49 0v33l85 23v550l-85 26v32h267v-32l-85 -26v-550l85 -24v-32h-267zM228 875h93v-20l-120 -119h-52z" />
    <glyph glyph-name="Icircumflex" unicode="&#xce;" horiz-adv-x="354" 
d="M49 0v33l85 23v550l-85 26v32h267v-32l-85 -26v-550l85 -24v-32h-267zM68 736h-45l111 129h97l111 -129h-47l-114 78z" />
    <glyph glyph-name="Idieresis" unicode="&#xcf;" horiz-adv-x="354" 
d="M49 0v33l85 23v550l-85 26v32h267v-32l-85 -26v-550l85 -24v-32h-267zM71 761q-23 0 -39.5 16.5t-16.5 39.5t16.5 40t39.5 17t40 -17t17 -40t-17 -39.5t-40 -16.5zM292 761q-23 0 -40 16.5t-17 39.5t17 40t40 17t40 -17t17 -40t-17 -39.5t-40 -16.5z" />
    <glyph glyph-name="Eth" unicode="&#xd0;" horiz-adv-x="773" 
d="M49 0v33l85 23v250h-99v45h99v255l-85 26v32l300 4q175 2 272.5 -88.5t97.5 -236.5q0 -155 -112.5 -251.5t-304.5 -94.5zM406 306h-175v-213q6 -57 121 -54q122 3 191.5 83t69.5 197q0 88 -30.5 152t-84.5 98t-120.5 48t-146.5 10v-276h175v-45z" />
    <glyph glyph-name="Ntilde" unicode="&#xd1;" horiz-adv-x="777" 
d="M660 -11h-23l-438 534v-453l107 -37v-33h-247v33l85 23v540l-95 36v32h160l394 -482v410l-107 39v33h247v-33l-85 -25v-489zM438 754l-42 18q-50 25 -73.5 21.5t-43.5 -50.5l-30 13l5 13q28 70 64 87t84 -6l52 -21q38 -19 60.5 -10.5t43.5 57.5l30 -13l-5 -13
q-29 -76 -62.5 -97.5t-82.5 1.5z" />
    <glyph glyph-name="Ograve" unicode="&#xd2;" horiz-adv-x="786" 
d="M404 17q74 0 127 47t75.5 112t22.5 136q0 132 -70.5 229.5t-174.5 97.5q-58 0 -103 -26t-71 -69t-39.5 -92t-13.5 -101q0 -80 26 -154t84 -127t137 -53zM392 681q85 0 152.5 -29.5t107 -79t60 -109.5t20.5 -126q0 -166 -95 -264t-244 -98q-148 0 -243.5 95t-95.5 248
q0 166 95 264.5t243 98.5zM251 875h93l79 -139h-52l-120 119v20z" />
    <glyph glyph-name="Oacute" unicode="&#xd3;" horiz-adv-x="786" 
d="M404 17q74 0 127 47t75.5 112t22.5 136q0 132 -70.5 229.5t-174.5 97.5q-58 0 -103 -26t-71 -69t-39.5 -92t-13.5 -101q0 -80 26 -154t84 -127t137 -53zM392 681q85 0 152.5 -29.5t107 -79t60 -109.5t20.5 -126q0 -166 -95 -264t-244 -98q-148 0 -243.5 95t-95.5 248
q0 166 95 264.5t243 98.5zM439 875h93v-20l-120 -119h-52z" />
    <glyph glyph-name="Ocircumflex" unicode="&#xd4;" horiz-adv-x="786" 
d="M404 17q74 0 127 47t75.5 112t22.5 136q0 132 -70.5 229.5t-174.5 97.5q-58 0 -103 -26t-71 -69t-39.5 -92t-13.5 -101q0 -80 26 -154t84 -127t137 -53zM392 681q85 0 152.5 -29.5t107 -79t60 -109.5t20.5 -126q0 -166 -95 -264t-244 -98q-148 0 -243.5 95t-95.5 248
q0 166 95 264.5t243 98.5zM279 736h-45l111 129h97l111 -129h-47l-114 78z" />
    <glyph glyph-name="Otilde" unicode="&#xd5;" horiz-adv-x="786" 
d="M404 17q74 0 127 47t75.5 112t22.5 136q0 132 -70.5 229.5t-174.5 97.5q-58 0 -103 -26t-71 -69t-39.5 -92t-13.5 -101q0 -80 26 -154t84 -127t137 -53zM392 681q85 0 152.5 -29.5t107 -79t60 -109.5t20.5 -126q0 -166 -95 -264t-244 -98q-148 0 -243.5 95t-95.5 248
q0 166 95 264.5t243 98.5zM413 754l-42 18q-50 25 -73.5 21.5t-43.5 -50.5l-30 13l5 13q28 70 64 87t84 -6l52 -21q38 -19 60.5 -10.5t43.5 57.5l30 -13l-5 -13q-29 -76 -62.5 -97.5t-82.5 1.5z" />
    <glyph glyph-name="Odieresis" unicode="&#xd6;" horiz-adv-x="786" 
d="M404 17q74 0 127 47t75.5 112t22.5 136q0 132 -70.5 229.5t-174.5 97.5q-58 0 -103 -26t-71 -69t-39.5 -92t-13.5 -101q0 -80 26 -154t84 -127t137 -53zM392 681q85 0 152.5 -29.5t107 -79t60 -109.5t20.5 -126q0 -166 -95 -264t-244 -98q-148 0 -243.5 95t-95.5 248
q0 166 95 264.5t243 98.5zM282 761q-23 0 -39.5 16.5t-16.5 39.5t16.5 40t39.5 17t40 -17t17 -40t-17 -39.5t-40 -16.5zM503 761q-23 0 -40 16.5t-17 39.5t17 40t40 17t40 -17t17 -40t-17 -39.5t-40 -16.5z" />
    <glyph glyph-name="multiply" unicode="&#xd7;" horiz-adv-x="558" 
d="M458 12l-183 184l-180 -184l-41 41l183 184l-183 183l43 43l182 -183l183 188l40 -41l-183 -187l183 -185z" />
    <glyph glyph-name="Oslash" unicode="&#xd8;" horiz-adv-x="786" 
d="M75 -35l78 102q-99 96 -99 251q0 166 95 264.5t243 98.5q112 0 192 -51l56 74h57l-77 -101q55 -48 83.5 -118.5t28.5 -147.5q0 -166 -95 -264t-244 -98q-118 0 -206 63l-55 -73h-57zM626 312q0 134 -58 223l-334 -436q65 -80 170 -80q73 0 125 46.5t74.5 111t22.5 135.5z
M385 637q-58 0 -103 -26.5t-70.5 -69.5t-38.5 -91.5t-13 -98.5q0 -126 48 -212l331 433q-62 65 -154 65z" />
    <glyph glyph-name="Ugrave" unicode="&#xd9;" horiz-adv-x="739" 
d="M377 -24q-151 0 -210.5 72t-59.5 206v352l-85 26v32h270v-32l-85 -26v-327q0 -246 179 -246q102 0 149 58.5t46 182.5l-3 323l-116 35v32h263v-32l-85 -26v-352q-1 -90 -40 -154.5t-97 -94t-126 -29.5zM241 875h93l79 -139h-52l-120 119v20z" />
    <glyph glyph-name="Uacute" unicode="&#xda;" horiz-adv-x="739" 
d="M377 -24q-151 0 -210.5 72t-59.5 206v352l-85 26v32h270v-32l-85 -26v-327q0 -246 179 -246q102 0 149 58.5t46 182.5l-3 323l-116 35v32h263v-32l-85 -26v-352q-1 -90 -40 -154.5t-97 -94t-126 -29.5zM429 875h93v-20l-120 -119h-52z" />
    <glyph glyph-name="Ucircumflex" unicode="&#xdb;" horiz-adv-x="739" 
d="M377 -24q-151 0 -210.5 72t-59.5 206v352l-85 26v32h270v-32l-85 -26v-327q0 -246 179 -246q102 0 149 58.5t46 182.5l-3 323l-116 35v32h263v-32l-85 -26v-352q-1 -90 -40 -154.5t-97 -94t-126 -29.5zM269 736h-45l111 129h97l111 -129h-47l-114 78z" />
    <glyph glyph-name="Udieresis" unicode="&#xdc;" horiz-adv-x="739" 
d="M377 -24q-151 0 -210.5 72t-59.5 206v352l-85 26v32h270v-32l-85 -26v-327q0 -246 179 -246q102 0 149 58.5t46 182.5l-3 323l-116 35v32h263v-32l-85 -26v-352q-1 -90 -40 -154.5t-97 -94t-126 -29.5zM272 761q-23 0 -39.5 16.5t-16.5 39.5t16.5 40t39.5 17t40 -17
t17 -40t-17 -39.5t-40 -16.5zM493 761q-23 0 -40 16.5t-17 39.5t17 40t40 17t40 -17t17 -40t-17 -39.5t-40 -16.5z" />
    <glyph glyph-name="Yacute" unicode="&#xdd;" horiz-adv-x="630" 
d="M557 602l-193 -322v-224l94 -23v-33h-286v33l95 23v206l-196 344l-64 26v32h251v-32l-75 -26l155 -286h4l158 277l-94 33v34h217v-32zM381 875h93v-20l-120 -119h-52z" />
    <glyph glyph-name="Thorn" unicode="&#xde;" horiz-adv-x="603" 
d="M49 0v33l85 23v550l-85 26v32h267v-32l-85 -26v-93l37 1q150 1 227.5 -41.5t77.5 -121.5q0 -68 -47.5 -114t-112.5 -62.5t-136 -11.5v32q193 15 193 141q0 65 -59 104.5t-180 39.5v-424l85 -24v-32h-267z" />
    <glyph glyph-name="germandbls" unicode="&#xdf;" horiz-adv-x="609" 
d="M33 0v31l65 22v367h-72v41l71 20q4 51 19.5 97t44 84.5t74.5 61t105 22.5q82 0 133 -36t51 -94q0 -26 -7.5 -46.5t-27.5 -40t-33.5 -30t-47.5 -33.5q-59 -40 -59 -82q0 -26 15 -42.5t47 -34.5l65 -37q53 -30 74.5 -61.5t21.5 -73.5q0 -63 -58.5 -108.5t-130.5 -45.5
q-69 0 -130 39l2 133h28l38 -102q27 -28 83 -28q38 0 61.5 19.5t23.5 58.5q0 64 -88 109l-51 28q-83 45 -83 117q0 56 66 105q53 37 76.5 66.5t23.5 71.5q0 48 -32 77t-80 29q-64 0 -101 -46t-37 -130v-528h-150z" />
    <glyph glyph-name="agrave" unicode="&#xe0;" horiz-adv-x="502" 
d="M169 -15q-45 0 -82.5 31t-37.5 86q0 57 39.5 89t121.5 54l103 27v52q-1 56 -27.5 86.5t-67.5 30.5q-34 0 -63 -18l-4 -99q-25 -3 -40 -3q-48 0 -48 43q0 38 59 78.5t132 40.5q75 0 110 -35t35 -110v-270q0 -16 6.5 -21.5t26.5 -5.5h50v-28q-58 -25 -95 -25
q-36 0 -54 21.5t-18 56.5h-3l-15.5 -15l-15 -14.5t-12.5 -11.5t-13.5 -11t-12 -8.5t-13 -7.5t-13 -5t-15 -5t-15.5 -2t-18 -1zM222 53q55 0 91 54v132l-96 -32q-39 -13 -58 -30t-19 -47q0 -36 24 -56.5t58 -20.5zM228 551l-100 186v19h80l61 -205h-41z" />
    <glyph glyph-name="aacute" unicode="&#xe1;" horiz-adv-x="502" 
d="M169 -15q-45 0 -82.5 31t-37.5 86q0 57 39.5 89t121.5 54l103 27v52q-1 56 -27.5 86.5t-67.5 30.5q-34 0 -63 -18l-4 -99q-25 -3 -40 -3q-48 0 -48 43q0 38 59 78.5t132 40.5q75 0 110 -35t35 -110v-270q0 -16 6.5 -21.5t26.5 -5.5h50v-28q-58 -25 -95 -25
q-36 0 -54 21.5t-18 56.5h-3l-15.5 -15l-15 -14.5t-12.5 -11.5t-13.5 -11t-12 -8.5t-13 -7.5t-13 -5t-15 -5t-15.5 -2t-18 -1zM222 53q55 0 91 54v132l-96 -32q-39 -13 -58 -30t-19 -47q0 -36 24 -56.5t58 -20.5zM278 756h80v-19l-99 -186h-41z" />
    <glyph glyph-name="acircumflex" unicode="&#xe2;" horiz-adv-x="502" 
d="M169 -15q-45 0 -82.5 31t-37.5 86q0 57 39.5 89t121.5 54l103 27v52q-1 56 -27.5 86.5t-67.5 30.5q-34 0 -63 -18l-4 -99q-25 -3 -40 -3q-48 0 -48 43q0 38 59 78.5t132 40.5q75 0 110 -35t35 -110v-270q0 -16 6.5 -21.5t26.5 -5.5h50v-28q-58 -25 -95 -25
q-36 0 -54 21.5t-18 56.5h-3l-15.5 -15l-15 -14.5t-12.5 -11.5t-13.5 -11t-12 -8.5t-13 -7.5t-13 -5t-15 -5t-15.5 -2t-18 -1zM222 53q55 0 91 54v132l-96 -32q-39 -13 -58 -30t-19 -47q0 -36 24 -56.5t58 -20.5zM164 551h-47l101 205h57l101 -205h-49l-83 131z" />
    <glyph glyph-name="atilde" unicode="&#xe3;" horiz-adv-x="502" 
d="M169 -15q-45 0 -82.5 31t-37.5 86q0 57 39.5 89t121.5 54l103 27v52q-1 56 -27.5 86.5t-67.5 30.5q-34 0 -63 -18l-4 -99q-25 -3 -40 -3q-48 0 -48 43q0 38 59 78.5t132 40.5q75 0 110 -35t35 -110v-270q0 -16 6.5 -21.5t26.5 -5.5h50v-28q-58 -25 -95 -25
q-36 0 -54 21.5t-18 56.5h-3l-15.5 -15l-15 -14.5t-12.5 -11.5t-13.5 -11t-12 -8.5t-13 -7.5t-13 -5t-15 -5t-15.5 -2t-18 -1zM222 53q55 0 91 54v132l-96 -32q-39 -13 -58 -30t-19 -47q0 -36 24 -56.5t58 -20.5zM258 605l-39 23q-48 29 -70.5 23t-43.5 -56l-30 13l5 13
q55 138 154 83l48 -27q37 -22 58.5 -11t43.5 62l30 -13l-5 -13q-30 -78 -67 -101.5t-84 4.5z" />
    <glyph glyph-name="adieresis" unicode="&#xe4;" horiz-adv-x="502" 
d="M169 -15q-45 0 -82.5 31t-37.5 86q0 57 39.5 89t121.5 54l103 27v52q-1 56 -27.5 86.5t-67.5 30.5q-34 0 -63 -18l-4 -99q-25 -3 -40 -3q-48 0 -48 43q0 38 59 78.5t132 40.5q75 0 110 -35t35 -110v-270q0 -16 6.5 -21.5t26.5 -5.5h50v-28q-58 -25 -95 -25
q-36 0 -54 21.5t-18 56.5h-3l-15.5 -15l-15 -14.5t-12.5 -11.5t-13.5 -11t-12 -8.5t-13 -7.5t-13 -5t-15 -5t-15.5 -2t-18 -1zM222 53q55 0 91 54v132l-96 -32q-39 -13 -58 -30t-19 -47q0 -36 24 -56.5t58 -20.5zM146 606q-23 0 -39.5 16.5t-16.5 39.5t16.5 40t39.5 17
t40 -17t17 -40t-17 -39.5t-40 -16.5zM343 606q-23 0 -40 16.5t-17 39.5t17 40t40 17t40 -17t17 -40t-17 -39.5t-40 -16.5z" />
    <glyph glyph-name="aring" unicode="&#xe5;" horiz-adv-x="502" 
d="M169 -15q-45 0 -82.5 31t-37.5 86q0 57 39.5 89t121.5 54l103 27v52q-1 56 -27.5 86.5t-67.5 30.5q-34 0 -63 -18l-4 -99q-25 -3 -40 -3q-48 0 -48 43q0 38 59 78.5t132 40.5q75 0 110 -35t35 -110v-270q0 -16 6.5 -21.5t26.5 -5.5h50v-28q-58 -25 -95 -25
q-36 0 -54 21.5t-18 56.5h-3l-15.5 -15l-15 -14.5t-12.5 -11.5t-13.5 -11t-12 -8.5t-13 -7.5t-13 -5t-15 -5t-15.5 -2t-18 -1zM222 53q55 0 91 54v132l-96 -32q-39 -13 -58 -30t-19 -47q0 -36 24 -56.5t58 -20.5zM128 674q0 48 34 81t83 33q50 0 83.5 -32.5t33.5 -81.5
q0 -48 -34 -81t-83 -33q-50 0 -83.5 32.5t-33.5 81.5zM174 674q0 -32 20.5 -52.5t50.5 -20.5t50.5 20.5t20.5 52.5t-20.5 52.5t-50.5 20.5t-50.5 -20.5t-20.5 -52.5z" />
    <glyph glyph-name="ae" unicode="&#xe6;" horiz-adv-x="758" 
d="M169 -15q-45 0 -82.5 31t-37.5 86q0 58 36.5 90.5t121.5 48.5l114 21v62q-1 56 -29 86.5t-70 30.5q-38 0 -67 -18l-4 -99q-25 -3 -40 -3q-48 0 -48 43q0 37 61 78t134 41q95 0 130 -79q20 34 65.5 57t94.5 23q71 0 113 -46.5t46 -136.5l-300 -55v-41q4 -64 43 -104.5
t100 -40.5q34 0 68.5 19t51.5 37l18 19l20 -12q-2 -6 -6.5 -15t-21.5 -33t-37.5 -42.5t-55 -33.5t-73.5 -15q-54 0 -100.5 28.5t-71.5 78.5q-45 -54 -82.5 -80t-90.5 -26zM221 53q65 0 109 69q-9 28 -9 63v45l-94 -20q-87 -20 -87 -80q0 -37 23 -57t58 -20zM521 440
q-45 0 -79 -44.5t-35 -115.5l200 40q-1 51 -25 85.5t-61 34.5z" />
    <glyph glyph-name="ccedilla" unicode="&#xe7;" horiz-adv-x="469" 
d="M135 -252l-5 29q27 8 42.5 14.5t32 22t16.5 36.5q0 38 -53 58l49 79q-79 10 -130.5 70.5t-51.5 160.5q0 116 77 190.5t174 74.5q61 0 103 -29t42 -71q0 -23 -14 -39t-39 -16l-34 3l-15 93q-24 16 -60 16q-63 0 -104.5 -52t-41.5 -131q0 -85 49 -144t124 -59q32 0 61 16
t43 32l13 15l20 -13q-2 -5 -5.5 -13t-18.5 -28t-33.5 -36t-51 -29t-70.5 -14l-25 -42q32 -3 51.5 -21.5t19.5 -48.5q0 -29 -16.5 -52t-44 -37t-52.5 -22t-52 -13z" />
    <glyph glyph-name="egrave" unicode="&#xe8;" horiz-adv-x="501" 
d="M255 -16q-59 0 -104 24t-68.5 61t-35 75t-11.5 73q0 113 66 189.5t170 76.5q84 0 130 -55t46 -157h-331v-10q0 -92 48 -146.5t127 -54.5q38 0 72.5 19t50.5 37l16 19l20 -12q-2 -6 -6 -15t-20 -33t-36.5 -42.5t-56 -33.5t-77.5 -15zM250 439q-46 0 -81.5 -36t-46.5 -93
h226q-1 55 -26 92t-72 37zM243 551l-100 186v19h80l61 -205h-41z" />
    <glyph glyph-name="eacute" unicode="&#xe9;" horiz-adv-x="501" 
d="M255 -16q-59 0 -104 24t-68.5 61t-35 75t-11.5 73q0 113 66 189.5t170 76.5q84 0 130 -55t46 -157h-331v-10q0 -92 48 -146.5t127 -54.5q38 0 72.5 19t50.5 37l16 19l20 -12q-2 -6 -6 -15t-20 -33t-36.5 -42.5t-56 -33.5t-77.5 -15zM250 439q-46 0 -81.5 -36t-46.5 -93
h226q-1 55 -26 92t-72 37zM297 756h80v-19l-99 -186h-41z" />
    <glyph glyph-name="ecircumflex" unicode="&#xea;" horiz-adv-x="501" 
d="M255 -16q-59 0 -104 24t-68.5 61t-35 75t-11.5 73q0 113 66 189.5t170 76.5q84 0 130 -55t46 -157h-331v-10q0 -92 48 -146.5t127 -54.5q38 0 72.5 19t50.5 37l16 19l20 -12q-2 -6 -6 -15t-20 -33t-36.5 -42.5t-56 -33.5t-77.5 -15zM250 439q-46 0 -81.5 -36t-46.5 -93
h226q-1 55 -26 92t-72 37zM171 551h-47l101 205h57l101 -205h-49l-83 131z" />
    <glyph glyph-name="edieresis" unicode="&#xeb;" horiz-adv-x="501" 
d="M255 -16q-59 0 -104 24t-68.5 61t-35 75t-11.5 73q0 113 66 189.5t170 76.5q84 0 130 -55t46 -157h-331v-10q0 -92 48 -146.5t127 -54.5q38 0 72.5 19t50.5 37l16 19l20 -12q-2 -6 -6 -15t-20 -33t-36.5 -42.5t-56 -33.5t-77.5 -15zM250 439q-46 0 -81.5 -36t-46.5 -93
h226q-1 55 -26 92t-72 37zM163 606q-23 0 -39.5 16.5t-16.5 39.5t16.5 40t39.5 17t40 -17t17 -40t-17 -39.5t-40 -16.5zM360 606q-23 0 -40 16.5t-17 39.5t17 40t40 17t40 -17t17 -40t-17 -39.5t-40 -16.5z" />
    <glyph glyph-name="igrave" unicode="&#xec;" horiz-adv-x="279" 
d="M31 0v34l67 22v342l-59 21v35l142 29v-428l75 -21v-34h-225zM118 551l-100 186v19h80l61 -205h-41z" />
    <glyph glyph-name="iacute" unicode="&#xed;" horiz-adv-x="279" 
d="M31 0v34l67 22v342l-59 21v35l142 29v-428l75 -21v-34h-225zM177 756h80v-19l-99 -186h-41z" />
    <glyph glyph-name="icircumflex" unicode="&#xee;" horiz-adv-x="279" 
d="M31 0v34l67 22v342l-59 21v35l142 29v-428l75 -21v-34h-225zM54 551h-47l101 205h57l101 -205h-49l-83 131z" />
    <glyph glyph-name="idieresis" unicode="&#xef;" horiz-adv-x="279" 
d="M49 606q-23 0 -39.5 16.5t-16.5 39.5t16.5 40t39.5 17t40 -17t17 -40t-17 -39.5t-40 -16.5zM226 606q-23 0 -40 16.5t-17 39.5t17 40t40 17t40 -17t17 -40t-17 -39.5t-40 -16.5zM31 0v34l67 22v342l-59 21v35l142 29v-428l75 -21v-34h-225z" />
    <glyph glyph-name="eth" unicode="&#xf0;" horiz-adv-x="542" 
d="M111 539l-19 33l121 69q-54 48 -129 94l15 26q95 -40 166 -90l118 68l19 -33l-104 -60q99 -78 150.5 -175.5t51.5 -204.5q0 -124 -66 -203t-166 -79q-109 0 -170.5 70t-61.5 172q0 105 70 180.5t162 75.5q51 0 91 -27q-40 85 -116 159zM409 230q0 92 -30 176
q-54 38 -111 38q-64 0 -102.5 -48.5t-38.5 -134.5q0 -58 15 -109.5t51 -87.5t87 -36q60 0 94.5 53.5t34.5 148.5z" />
    <glyph glyph-name="ntilde" unicode="&#xf1;" horiz-adv-x="570" 
d="M33 0v34l63 21v337l-67 16v27l123 48h5l22 -91h1q77 91 164 91q72 0 104 -37t32 -131v-261l65 -21v-33h-207v34l57 20v253q-3 56 -23.5 82.5t-68.5 26.5q-29 0 -59.5 -14t-46.5 -27.5t-16 -15.5v-305l66 -20v-34h-214zM291 605l-39 23q-48 29 -70.5 23t-43.5 -56l-30 13
l5 13q55 138 154 83l48 -27q37 -22 58.5 -11t43.5 62l30 -13l-5 -13q-30 -78 -67 -101.5t-84 4.5z" />
    <glyph glyph-name="ograve" unicode="&#xf2;" horiz-adv-x="536" 
d="M127 261q0 -58 15 -109.5t51 -87.5t87 -36q59 0 94 52t35 131q0 108 -41.5 169.5t-110.5 61.5q-60 0 -95 -51t-35 -130zM268 -16q-109 0 -170.5 70t-61.5 172q0 108 67.5 183.5t164.5 75.5q107 0 169.5 -63.5t62.5 -176.5q0 -109 -67 -185t-165 -76zM246 551l-100 186v19
h80l61 -205h-41z" />
    <glyph glyph-name="oacute" unicode="&#xf3;" horiz-adv-x="536" 
d="M127 261q0 -58 15 -109.5t51 -87.5t87 -36q59 0 94 52t35 131q0 108 -41.5 169.5t-110.5 61.5q-60 0 -95 -51t-35 -130zM268 -16q-109 0 -170.5 70t-61.5 172q0 108 67.5 183.5t164.5 75.5q107 0 169.5 -63.5t62.5 -176.5q0 -109 -67 -185t-165 -76zM306 756h80v-19
l-99 -186h-41z" />
    <glyph glyph-name="ocircumflex" unicode="&#xf4;" horiz-adv-x="536" 
d="M127 261q0 -58 15 -109.5t51 -87.5t87 -36q59 0 94 52t35 131q0 108 -41.5 169.5t-110.5 61.5q-60 0 -95 -51t-35 -130zM268 -16q-109 0 -170.5 70t-61.5 172q0 108 67.5 183.5t164.5 75.5q107 0 169.5 -63.5t62.5 -176.5q0 -109 -67 -185t-165 -76zM185 551h-47l101 205
h57l101 -205h-49l-83 131z" />
    <glyph glyph-name="otilde" unicode="&#xf5;" horiz-adv-x="536" 
d="M127 261q0 -58 15 -109.5t51 -87.5t87 -36q59 0 94 52t35 131q0 108 -41.5 169.5t-110.5 61.5q-60 0 -95 -51t-35 -130zM268 -16q-109 0 -170.5 70t-61.5 172q0 108 67.5 183.5t164.5 75.5q107 0 169.5 -63.5t62.5 -176.5q0 -109 -67 -185t-165 -76zM293 605l-39 23
q-48 29 -70.5 23t-43.5 -56l-30 13l5 13q55 138 154 83l48 -27q37 -22 58.5 -11t43.5 62l30 -13l-5 -13q-30 -78 -67 -101.5t-84 4.5z" />
    <glyph glyph-name="odieresis" unicode="&#xf6;" horiz-adv-x="536" 
d="M127 261q0 -58 15 -109.5t51 -87.5t87 -36q59 0 94 52t35 131q0 108 -41.5 169.5t-110.5 61.5q-60 0 -95 -51t-35 -130zM268 -16q-109 0 -170.5 70t-61.5 172q0 108 67.5 183.5t164.5 75.5q107 0 169.5 -63.5t62.5 -176.5q0 -109 -67 -185t-165 -76zM166 606
q-23 0 -39.5 16.5t-16.5 39.5t16.5 40t39.5 17t40 -17t17 -40t-17 -39.5t-40 -16.5zM363 606q-23 0 -40 16.5t-17 39.5t17 40t40 17t40 -17t17 -40t-17 -39.5t-40 -16.5z" />
    <glyph glyph-name="divide" unicode="&#xf7;" horiz-adv-x="558" 
d="M516 208h-474v58h474v-58zM278 -4q-28 0 -48.5 21t-20.5 49t20.5 48.5t48.5 20.5t49 -20.5t21 -48.5t-21 -49t-49 -21zM279 338q-28 0 -48.5 21t-20.5 49t20.5 48.5t48.5 20.5t49 -20.5t21 -48.5t-20.5 -49t-49.5 -21z" />
    <glyph glyph-name="oslash" unicode="&#xf8;" horiz-adv-x="536" 
d="M83 -43h-51l71 95q-67 69 -67 174q0 108 67.5 183.5t164.5 75.5q77 0 132 -37l54 71h51l-73 -97q68 -66 68 -177q0 -109 -67 -185t-165 -76q-73 0 -134 41zM278 27q59 0 95.5 55t36.5 139q0 85 -25 138l-213 -284q38 -48 106 -48zM126 253q0 -84 24 -139l212 283
q-38 47 -104 47q-60 0 -96 -54t-36 -137z" />
    <glyph glyph-name="ugrave" unicode="&#xf9;" horiz-adv-x="553" 
d="M412 -15l-29 81q-74 -83 -167 -83q-66 0 -99.5 46t-33.5 132v246l-69 20v37l154 15v-309q4 -119 105 -119q27 0 53.5 11.5t39.5 23.5l13 12v309l-81 18v37l166 15v-419l81 -20v-33zM272 551l-100 186v19h80l61 -205h-41z" />
    <glyph glyph-name="uacute" unicode="&#xfa;" horiz-adv-x="553" 
d="M412 -15l-29 81q-74 -83 -167 -83q-66 0 -99.5 46t-33.5 132v246l-69 20v37l154 15v-309q4 -119 105 -119q27 0 53.5 11.5t39.5 23.5l13 12v309l-81 18v37l166 15v-419l81 -20v-33zM310 756h80v-19l-99 -186h-41z" />
    <glyph glyph-name="ucircumflex" unicode="&#xfb;" horiz-adv-x="553" 
d="M412 -15l-29 81q-74 -83 -167 -83q-66 0 -99.5 46t-33.5 132v246l-69 20v37l154 15v-309q4 -119 105 -119q27 0 53.5 11.5t39.5 23.5l13 12v309l-81 18v37l166 15v-419l81 -20v-33zM184 551h-47l101 205h57l101 -205h-49l-83 131z" />
    <glyph glyph-name="udieresis" unicode="&#xfc;" horiz-adv-x="553" 
d="M412 -15l-29 81q-74 -83 -167 -83q-66 0 -99.5 46t-33.5 132v246l-69 20v37l154 15v-309q4 -119 105 -119q27 0 53.5 11.5t39.5 23.5l13 12v309l-81 18v37l166 15v-419l81 -20v-33zM170 606q-23 0 -39.5 16.5t-16.5 39.5t16.5 40t39.5 17t40 -17t17 -40t-17 -39.5
t-40 -16.5zM367 606q-23 0 -40 16.5t-17 39.5t17 40t40 17t40 -17t17 -40t-17 -39.5t-40 -16.5z" />
    <glyph glyph-name="yacute" unicode="&#xfd;" horiz-adv-x="498" 
d="M400 415l-69 25v30h168v-31l-46 -20l-222 -554q-25 -64 -47.5 -91t-58.5 -27q-25 0 -43.5 16t-18.5 40q0 23 14 36.5t36 13.5q30 0 49 -36h2l59 138l-177 465l-47 19v31h217v-31l-73 -19l124 -350h3zM308 756h80v-19l-99 -186h-41z" />
    <glyph glyph-name="thorn" unicode="&#xfe;" horiz-adv-x="532" 
d="M79 -184v844l-62 19v32l147 35v-337q63 74 145 74q81 0 134 -56t53 -171q0 -114 -79.5 -193t-187.5 -79q-32 0 -65 10v-176l91 -27v-31h-239v34zM263 416q-56 0 -99 -41v-312q35 -35 98 -35q59 0 102.5 52t43.5 146q0 86 -40 138t-105 52z" />
    <glyph glyph-name="ydieresis" unicode="&#xff;" horiz-adv-x="498" 
d="M400 415l-69 25v30h168v-31l-46 -20l-222 -554q-25 -64 -47.5 -91t-58.5 -27q-25 0 -43.5 16t-18.5 40q0 23 14 36.5t36 13.5q30 0 49 -36h2l59 138l-177 465l-47 19v31h217v-31l-73 -19l124 -350h3zM176 606q-23 0 -39.5 16.5t-16.5 39.5t16.5 40t39.5 17t40 -17t17 -40
t-17 -39.5t-40 -16.5zM373 606q-23 0 -40 16.5t-17 39.5t17 40t40 17t40 -17t17 -40t-17 -39.5t-40 -16.5z" />
    <glyph glyph-name="Amacron" unicode="&#x100;" horiz-adv-x="674" 
d="M3 0v32l58 23l243 614l34 5l35 10l230 -629l68 -22v-33h-257v33l85 23l-61 175h-244l-58 -163l96 -35v-33h-229zM317 574l-101 -283h201l-99 283h-1zM192 782v60h290v-60h-290z" />
    <glyph glyph-name="amacron" unicode="&#x101;" horiz-adv-x="502" 
d="M169 -15q-45 0 -82.5 31t-37.5 86q0 57 39.5 89t121.5 54l103 27v52q-1 56 -27.5 86.5t-67.5 30.5q-34 0 -63 -18l-4 -99q-25 -3 -40 -3q-48 0 -48 43q0 38 59 78.5t132 40.5q75 0 110 -35t35 -110v-270q0 -16 6.5 -21.5t26.5 -5.5h50v-28q-58 -25 -95 -25
q-36 0 -54 21.5t-18 56.5h-3l-15.5 -15l-15 -14.5t-12.5 -11.5t-13.5 -11t-12 -8.5t-13 -7.5t-13 -5t-15 -5t-15.5 -2t-18 -1zM222 53q55 0 91 54v132l-96 -32q-39 -13 -58 -30t-19 -47q0 -36 24 -56.5t58 -20.5zM100 627v60h290v-60h-290z" />
    <glyph glyph-name="Abreve" unicode="&#x102;" horiz-adv-x="674" 
d="M3 0v32l58 23l243 614l34 5l35 10l230 -629l68 -22v-33h-257v33l85 23l-61 175h-244l-58 -163l96 -35v-33h-229zM317 574l-101 -283h201l-99 283h-1zM331 732q-72 0 -105 39t-30 94h29q16 -69 111 -69t111 69h29q4 -53 -34 -93t-111 -40z" />
    <glyph glyph-name="abreve" unicode="&#x103;" horiz-adv-x="502" 
d="M169 -15q-45 0 -82.5 31t-37.5 86q0 57 39.5 89t121.5 54l103 27v52q-1 56 -27.5 86.5t-67.5 30.5q-34 0 -63 -18l-4 -99q-25 -3 -40 -3q-48 0 -48 43q0 38 59 78.5t132 40.5q75 0 110 -35t35 -110v-270q0 -16 6.5 -21.5t26.5 -5.5h50v-28q-58 -25 -95 -25
q-36 0 -54 21.5t-18 56.5h-3l-15.5 -15l-15 -14.5t-12.5 -11.5t-13.5 -11t-12 -8.5t-13 -7.5t-13 -5t-15 -5t-15.5 -2t-18 -1zM222 53q55 0 91 54v132l-96 -32q-39 -13 -58 -30t-19 -47q0 -36 24 -56.5t58 -20.5zM241 567q-117 0 -124 162h36q7 -43 31.5 -72t65.5 -29
q36 0 59 29.5t30 71.5h35q-3 -78 -33.5 -120t-99.5 -42z" />
    <glyph glyph-name="Aogonek" unicode="&#x104;" horiz-adv-x="674" 
d="M3 0v32l58 23l243 614l34 5l35 10l230 -629l68 -22v-33h-125q-109 -63 -109 -130q0 -28 14.5 -44.5t40.5 -16.5q25 0 42.5 9.5t44.5 36.5l17 -17q-28 -44 -60 -70.5t-80 -26.5q-43 0 -68 25t-25 64q0 38 28.5 74t101.5 106q11 10 16 15l-72 206h-243l-58 -163l96 -35v-33
h-229zM317 574l-101 -283h200l-98 283h-1z" />
    <glyph glyph-name="aogonek" unicode="&#x105;" horiz-adv-x="502" 
d="M482 41v-24q-158 -99 -158 -158q0 -50 52 -50q25 0 43.5 9.5t44.5 36.5l17 -17q-28 -44 -60 -70.5t-80 -26.5q-44 0 -70 24.5t-26 63.5q0 41 33.5 78t112.5 80v2q-73 0 -76 77h-3l-15.5 -15l-15 -14.5t-12.5 -11.5t-13.5 -11t-12 -8.5t-13 -7.5t-13 -5t-15 -5t-15.5 -2
t-18 -1q-45 0 -82.5 31t-37.5 86q0 57 39.5 89t121.5 54l103 27v52q-1 56 -27.5 86.5t-67.5 30.5q-34 0 -63 -18l-4 -99q-25 -3 -40 -3q-48 0 -48 43q0 38 59 78.5t132 40.5q75 0 110 -35t35 -110v-270q0 -16 6.5 -21.5t26.5 -5.5h50zM222 53q55 0 91 54v132l-96 -32
q-39 -13 -58 -30t-19 -47q0 -36 24 -56.5t58 -20.5z" />
    <glyph glyph-name="Cacute" unicode="&#x106;" horiz-adv-x="716" 
d="M395 -25q-91 0 -160.5 29.5t-108.5 78.5t-58 106t-19 120q0 159 108 265.5t271 106.5q112 0 209 -54l6 -167h-37l-55 134q-57 38 -132 38q-111 0 -185.5 -80t-74.5 -208q0 -150 75.5 -234.5t192.5 -84.5q75 0 137 45l75 141h37l-26 -168q-131 -68 -255 -68zM464 875h93
v-20l-120 -119h-52z" />
    <glyph glyph-name="cacute" unicode="&#x107;" horiz-adv-x="469" 
d="M250 -16q-90 0 -152.5 62t-62.5 172q0 116 77 190.5t174 74.5q61 0 103 -29t42 -71q0 -23 -14 -39t-39 -16l-34 3l-15 93q-24 16 -60 16q-63 0 -104.5 -52t-41.5 -131q0 -85 49 -144t124 -59q32 0 61 16t43 32l13 15l20 -13q-2 -5 -5.5 -13t-19 -28.5t-34 -36.5t-52 -29
t-72.5 -13zM295 756h80v-19l-99 -186h-41z" />
    <glyph glyph-name="Ccircumflex" unicode="&#x108;" horiz-adv-x="716" 
d="M395 -25q-91 0 -160.5 29.5t-108.5 78.5t-58 106t-19 120q0 159 108 265.5t271 106.5q112 0 209 -54l6 -167h-37l-55 134q-57 38 -132 38q-111 0 -185.5 -80t-74.5 -208q0 -150 75.5 -234.5t192.5 -84.5q75 0 137 45l75 141h37l-26 -168q-131 -68 -255 -68zM304 736h-45
l111 129h97l111 -129h-47l-114 78z" />
    <glyph glyph-name="ccircumflex" unicode="&#x109;" horiz-adv-x="469" 
d="M250 -16q-90 0 -152.5 62t-62.5 172q0 116 77 190.5t174 74.5q61 0 103 -29t42 -71q0 -23 -14 -39t-39 -16l-34 3l-15 93q-24 16 -60 16q-63 0 -104.5 -52t-41.5 -131q0 -85 49 -144t124 -59q32 0 61 16t43 32l13 15l20 -13q-2 -5 -5.5 -13t-19 -28.5t-34 -36.5t-52 -29
t-72.5 -13zM181 551h-47l101 205h57l101 -205h-49l-83 131z" />
    <glyph glyph-name="Cdotaccent" unicode="&#x10a;" horiz-adv-x="716" 
d="M395 -25q-91 0 -160.5 29.5t-108.5 78.5t-58 106t-19 120q0 159 108 265.5t271 106.5q112 0 209 -54l6 -167h-37l-55 134q-57 38 -132 38q-111 0 -185.5 -80t-74.5 -208q0 -150 75.5 -234.5t192.5 -84.5q75 0 137 45l75 141h37l-26 -168q-131 -68 -255 -68zM418 755
q-26 0 -44 18.5t-18 43.5t18 43.5t44 18.5t44 -18.5t18 -43.5t-18 -43.5t-44 -18.5z" />
    <glyph glyph-name="cdotaccent" unicode="&#x10b;" horiz-adv-x="469" 
d="M250 -16q-90 0 -152.5 62t-62.5 172q0 116 77 190.5t174 74.5q61 0 103 -29t42 -71q0 -23 -14 -39t-39 -16l-34 3l-15 93q-24 16 -60 16q-63 0 -104.5 -52t-41.5 -131q0 -85 49 -144t124 -59q32 0 61 16t43 32l13 15l20 -13q-2 -5 -5.5 -13t-19 -28.5t-34 -36.5t-52 -29
t-72.5 -13zM262 589q-26 0 -44 18.5t-18 43.5t18 43.5t44 18.5t44 -18.5t18 -43.5t-18 -43.5t-44 -18.5z" />
    <glyph glyph-name="Ccaron" unicode="&#x10c;" horiz-adv-x="716" 
d="M395 -25q-91 0 -160.5 29.5t-108.5 78.5t-58 106t-19 120q0 159 108 265.5t271 106.5q112 0 209 -54l6 -167h-37l-55 134q-57 38 -132 38q-111 0 -185.5 -80t-74.5 -208q0 -150 75.5 -234.5t192.5 -84.5q75 0 137 45l75 141h37l-26 -168q-131 -68 -255 -68zM530 865h45
l-111 -129h-97l-111 129h47l114 -78z" />
    <glyph glyph-name="ccaron" unicode="&#x10d;" horiz-adv-x="469" 
d="M250 -16q-90 0 -152.5 62t-62.5 172q0 116 77 190.5t174 74.5q61 0 103 -29t42 -71q0 -23 -14 -39t-39 -16l-34 3l-15 93q-24 16 -60 16q-63 0 -104.5 -52t-41.5 -131q0 -85 49 -144t124 -59q32 0 61 16t43 32l13 15l20 -13q-2 -5 -5.5 -13t-19 -28.5t-34 -36.5t-52 -29
t-72.5 -13zM345 756h47l-101 -205h-57l-101 205h49l82 -131z" />
    <glyph glyph-name="Dcaron" unicode="&#x10e;" horiz-adv-x="773" 
d="M231 627v-534q6 -57 121 -54q122 3 191.5 83t69.5 197q0 88 -30.5 152t-84.5 98t-120.5 48t-146.5 10zM49 0v33l85 23v550l-85 26v32l300 4q175 2 272.5 -88.5t97.5 -236.5q0 -155 -112.5 -251.5t-304.5 -94.5zM468 865h45l-111 -129h-97l-111 129h47l114 -78z" />
    <glyph glyph-name="dcaron" unicode="&#x10f;" horiz-adv-x="570" 
d="M281 688v31l175 27v-688l81 -20v-33l-134 -19l-24 68q-35 -34 -67 -52t-74 -18q-99 0 -150.5 67t-51.5 158q0 121 70.5 197.5t178.5 76.5q44 0 86 -10v199zM288 52q44 0 83 26v297q-4 7 -12.5 18t-36.5 29.5t-60 18.5q-61 0 -101.5 -48.5t-40.5 -132.5q0 -54 14 -98
t53.5 -77t100.5 -33zM560 535h-29l15 210h89v-8z" />
    <glyph glyph-name="Dcroat" unicode="&#x110;" horiz-adv-x="773" 
d="M49 0v33l85 23v250h-99v45h99v255l-85 26v32l300 4q175 2 272.5 -88.5t97.5 -236.5q0 -155 -112.5 -251.5t-304.5 -94.5zM406 306h-175v-213q6 -57 121 -54q122 3 191.5 83t69.5 197q0 88 -30.5 152t-84.5 98t-120.5 48t-146.5 10v-276h175v-45z" />
    <glyph glyph-name="dcroat" unicode="&#x111;" horiz-adv-x="570" 
d="M281 688v31l175 27v-149h86v-47h-86v-492l81 -20v-33l-134 -19l-24 68q-35 -34 -67 -52t-74 -18q-99 0 -150.5 67t-51.5 158q0 121 70.5 197.5t178.5 76.5q44 0 86 -10v77h-194v47h194v75zM288 52q44 0 83 26v297q-4 7 -12.5 18t-36.5 29.5t-60 18.5q-61 0 -101.5 -48.5
t-40.5 -132.5q0 -54 14 -98t53.5 -77t100.5 -33z" />
    <glyph glyph-name="Emacron" unicode="&#x112;" horiz-adv-x="632" 
d="M361 321h-130v-274h234l81 132h37l-32 -179h-502v33l85 23v549l-85 27v32h411l87 4v-177h-36l-54 128h-226v-252h130l29 82h32v-204h-35zM189 782v60h290v-60h-290z" />
    <glyph glyph-name="emacron" unicode="&#x113;" horiz-adv-x="501" 
d="M255 -16q-59 0 -104 24t-68.5 61t-35 75t-11.5 73q0 113 66 189.5t170 76.5q84 0 130 -55t46 -157h-331v-10q0 -92 48 -146.5t127 -54.5q38 0 72.5 19t50.5 37l16 19l20 -12q-2 -6 -6 -15t-20 -33t-36.5 -42.5t-56 -33.5t-77.5 -15zM250 439q-46 0 -81.5 -36t-46.5 -93
h226q-1 55 -26 92t-72 37zM120 627v60h290v-60h-290z" />
    <glyph glyph-name="Ebreve" unicode="&#x114;" horiz-adv-x="632" 
d="M361 321h-130v-274h234l81 132h37l-32 -179h-502v33l85 23v549l-85 27v32h411l87 4v-177h-36l-54 128h-226v-252h130l29 82h32v-204h-35zM328 732q-72 0 -105 39t-30 94h29q16 -69 111 -69t111 69h29q4 -53 -34 -93t-111 -40z" />
    <glyph glyph-name="ebreve" unicode="&#x115;" horiz-adv-x="501" 
d="M255 -16q-59 0 -104 24t-68.5 61t-35 75t-11.5 73q0 113 66 189.5t170 76.5q84 0 130 -55t46 -157h-331v-10q0 -92 48 -146.5t127 -54.5q38 0 72.5 19t50.5 37l16 19l20 -12q-2 -6 -6 -15t-20 -33t-36.5 -42.5t-56 -33.5t-77.5 -15zM250 439q-46 0 -81.5 -36t-46.5 -93
h226q-1 55 -26 92t-72 37zM261 567q-117 0 -124 162h36q7 -43 31.5 -72t65.5 -29q36 0 59 29.5t30 71.5h35q-3 -78 -33.5 -120t-99.5 -42z" />
    <glyph glyph-name="Edotaccent" unicode="&#x116;" horiz-adv-x="632" 
d="M361 321h-130v-274h234l81 132h37l-32 -179h-502v33l85 23v549l-85 27v32h411l87 4v-177h-36l-54 128h-226v-252h130l29 82h32v-204h-35zM334 755q-26 0 -44 18.5t-18 43.5t18 43.5t44 18.5t44 -18.5t18 -43.5t-18 -43.5t-44 -18.5z" />
    <glyph glyph-name="edotaccent" unicode="&#x117;" horiz-adv-x="501" 
d="M255 -16q-59 0 -104 24t-68.5 61t-35 75t-11.5 73q0 113 66 189.5t170 76.5q84 0 130 -55t46 -157h-331v-10q0 -92 48 -146.5t127 -54.5q38 0 72.5 19t50.5 37l16 19l20 -12q-2 -6 -6 -15t-20 -33t-36.5 -42.5t-56 -33.5t-77.5 -15zM250 439q-46 0 -81.5 -36t-46.5 -93
h226q-1 55 -26 92t-72 37zM265 589q-25 0 -43.5 18.5t-18.5 43.5t18.5 43.5t43.5 18.5t43.5 -18.5t18.5 -43.5t-18.5 -43.5t-43.5 -18.5z" />
    <glyph glyph-name="Eogonek" unicode="&#x118;" horiz-adv-x="632" 
d="M436 0h-387v33l85 23v549l-85 27v32h411l87 4v-177h-36l-54 128h-226v-252h130l29 82h32v-204h-35l-26 76h-130v-274h234l81 132h37l-32 -179h-73l-61.5 -64t-29 -39t-12.5 -38q0 -50 52 -50q25 0 43.5 9.5t44.5 36.5l17 -17q-28 -44 -60 -70.5t-80 -26.5q-43 0 -69.5 24
t-26.5 61q0 43 29.5 76.5t110.5 97.5z" />
    <glyph glyph-name="eogonek" unicode="&#x119;" horiz-adv-x="501" 
d="M255 -16q-59 0 -104 24t-68.5 61t-35 75t-11.5 73q0 113 66 189.5t170 76.5q84 0 130 -55t46 -157h-331v-10q0 -92 48 -146.5t127 -54.5q38 0 72.5 19t50.5 37l16 19l20 -12q-14 -41 -50 -78l-36 -37.5l-31.5 -32l-24.5 -25.5t-20.5 -23l-14.5 -18.5t-11 -18t-5.5 -15.5
t-2.5 -16q0 -50 52 -50q25 0 43.5 9.5t44.5 36.5l17 -17q-28 -44 -60 -70.5t-80 -26.5q-43 0 -69.5 24t-26.5 61q0 42 27.5 74t98.5 89q-25 -5 -47 -5zM250 439q-46 0 -81.5 -36t-46.5 -93h226q-1 55 -26 92t-72 37z" />
    <glyph glyph-name="Ecaron" unicode="&#x11a;" horiz-adv-x="632" 
d="M361 321h-130v-274h234l81 132h37l-32 -179h-502v33l85 23v549l-85 27v32h411l87 4v-177h-36l-54 128h-226v-252h130l29 82h32v-204h-35zM446 865h45l-111 -129h-97l-111 129h47l114 -78z" />
    <glyph glyph-name="ecaron" unicode="&#x11b;" horiz-adv-x="501" 
d="M255 -16q-59 0 -104 24t-68.5 61t-35 75t-11.5 73q0 113 66 189.5t170 76.5q84 0 130 -55t46 -157h-331v-10q0 -92 48 -146.5t127 -54.5q38 0 72.5 19t50.5 37l16 19l20 -12q-2 -6 -6 -15t-20 -33t-36.5 -42.5t-56 -33.5t-77.5 -15zM250 439q-46 0 -81.5 -36t-46.5 -93
h226q-1 55 -26 92t-72 37zM348 756h47l-101 -205h-57l-101 205h49l82 -131z" />
    <glyph glyph-name="Gcircumflex" unicode="&#x11c;" horiz-adv-x="752" 
d="M407 -25q-95 0 -166 28t-111.5 77t-60 107.5t-19.5 125.5q0 149 114.5 258.5t279.5 109.5q110 0 203 -54l6 -162h-39l-56 132q-54 35 -133 35q-122 0 -194 -89t-72 -214q0 -145 80 -224.5t195 -79.5q70 0 119 22v204l-93 26v28h246v-33l-57 -16v-207l-31 -17
q-101 -57 -211 -57zM310 736h-45l111 129h97l111 -129h-47l-114 78z" />
    <glyph glyph-name="gcircumflex" unicode="&#x11d;" horiz-adv-x="517" 
d="M498 412l-114 6l-1 -3q51 -43 51 -111q0 -79 -60 -129t-139 -50q-37 0 -72 12q-35 -27 -35 -50q0 -12 10.5 -22.5t26.5 -11.5l189 -11q72 -4 107.5 -34t35.5 -78q0 -69 -81 -127t-212 -58q-75 0 -128 30.5t-53 82.5q0 29 19 57.5t54 47.5l24 13v2l-71 68q24 61 79 107
q-79 48 -79 147q0 81 55 132t137 51q47 0 118 -25l139 15v-61zM247 168q41 0 68.5 33.5t27.5 89.5q0 76 -30 114.5t-78 38.5q-44 0 -69 -31.5t-25 -88.5q0 -73 28.5 -114.5t77.5 -41.5zM345 -39l-189 12q-43 -46 -43 -89q0 -34 33.5 -61.5t104.5 -27.5q85 0 129.5 32.5
t44.5 72.5q0 55 -80 61zM168 551h-47l101 205h57l101 -205h-49l-83 131z" />
    <glyph glyph-name="Gbreve" unicode="&#x11e;" horiz-adv-x="752" 
d="M407 -25q-95 0 -166 28t-111.5 77t-60 107.5t-19.5 125.5q0 149 114.5 258.5t279.5 109.5q110 0 203 -54l6 -162h-39l-56 132q-54 35 -133 35q-122 0 -194 -89t-72 -214q0 -145 80 -224.5t195 -79.5q70 0 119 22v204l-93 26v28h246v-33l-57 -16v-207l-31 -17
q-101 -57 -211 -57zM418 732q-72 0 -105 39t-30 94h29q16 -69 111 -69t111 69h29q4 -53 -34 -93t-111 -40z" />
    <glyph glyph-name="gbreve" unicode="&#x11f;" horiz-adv-x="517" 
d="M498 412l-114 6l-1 -3q51 -43 51 -111q0 -79 -60 -129t-139 -50q-37 0 -72 12q-35 -27 -35 -50q0 -12 10.5 -22.5t26.5 -11.5l189 -11q72 -4 107.5 -34t35.5 -78q0 -69 -81 -127t-212 -58q-75 0 -128 30.5t-53 82.5q0 29 19 57.5t54 47.5l24 13v2l-71 68q24 61 79 107
q-79 48 -79 147q0 81 55 132t137 51q47 0 118 -25l139 15v-61zM247 168q41 0 68.5 33.5t27.5 89.5q0 76 -30 114.5t-78 38.5q-44 0 -69 -31.5t-25 -88.5q0 -73 28.5 -114.5t77.5 -41.5zM345 -39l-189 12q-43 -46 -43 -89q0 -34 33.5 -61.5t104.5 -27.5q85 0 129.5 32.5
t44.5 72.5q0 55 -80 61zM245 567q-117 0 -124 162h36q7 -43 31.5 -72t65.5 -29q36 0 59 29.5t30 71.5h35q-3 -78 -33.5 -120t-99.5 -42z" />
    <glyph glyph-name="Gdotaccent" unicode="&#x120;" horiz-adv-x="752" 
d="M407 -25q-95 0 -166 28t-111.5 77t-60 107.5t-19.5 125.5q0 149 114.5 258.5t279.5 109.5q110 0 203 -54l6 -162h-39l-56 132q-54 35 -133 35q-122 0 -194 -89t-72 -214q0 -145 80 -224.5t195 -79.5q70 0 119 22v204l-93 26v28h246v-33l-57 -16v-207l-31 -17
q-101 -57 -211 -57zM424 755q-26 0 -44 18.5t-18 43.5t18 43.5t44 18.5t44 -18.5t18 -43.5t-18 -43.5t-44 -18.5z" />
    <glyph glyph-name="gdotaccent" unicode="&#x121;" horiz-adv-x="517" 
d="M498 412l-114 6l-1 -3q51 -43 51 -111q0 -79 -60 -129t-139 -50q-37 0 -72 12q-35 -27 -35 -50q0 -12 10.5 -22.5t26.5 -11.5l189 -11q72 -4 107.5 -34t35.5 -78q0 -69 -81 -127t-212 -58q-75 0 -128 30.5t-53 82.5q0 29 19 57.5t54 47.5l24 13v2l-71 68q24 61 79 107
q-79 48 -79 147q0 81 55 132t137 51q47 0 118 -25l139 15v-61zM247 168q41 0 68.5 33.5t27.5 89.5q0 76 -30 114.5t-78 38.5q-44 0 -69 -31.5t-25 -88.5q0 -73 28.5 -114.5t77.5 -41.5zM345 -39l-189 12q-43 -46 -43 -89q0 -34 33.5 -61.5t104.5 -27.5q85 0 129.5 32.5
t44.5 72.5q0 55 -80 61zM249 589q-25 0 -43.5 18.5t-18.5 43.5t18.5 43.5t43.5 18.5t43.5 -18.5t18.5 -43.5t-18.5 -43.5t-43.5 -18.5z" />
    <glyph glyph-name="Gcommaaccent" unicode="&#x122;" horiz-adv-x="752" 
d="M407 -25q-95 0 -166 28t-111.5 77t-60 107.5t-19.5 125.5q0 149 114.5 258.5t279.5 109.5q110 0 203 -54l6 -162h-39l-56 132q-54 35 -133 35q-122 0 -194 -89t-72 -214q0 -145 80 -224.5t195 -79.5q70 0 119 22v204l-93 26v28h246v-33l-57 -16v-207l-31 -17
q-101 -57 -211 -57zM334 -267l-8 27q92 29 92 73q0 20 -18.5 32.5t-45.5 14.5v2q8 55 68 55q33 0 51 -20t18 -51q0 -93 -157 -133z" />
    <glyph glyph-name="gcommaaccent" unicode="&#x123;" horiz-adv-x="517" 
d="M498 412l-114 6l-1 -3q51 -43 51 -111q0 -79 -60 -129t-139 -50q-37 0 -72 12q-35 -27 -35 -50q0 -12 10.5 -22.5t26.5 -11.5l189 -11q72 -4 107.5 -34t35.5 -78q0 -69 -81 -127t-212 -58q-75 0 -128 30.5t-53 82.5q0 29 19 57.5t54 47.5l24 13v2l-71 68q24 61 79 107
q-79 48 -79 147q0 81 55 132t137 51q47 0 118 -25l139 15v-61zM247 168q41 0 68.5 33.5t27.5 89.5q0 76 -30 114.5t-78 38.5q-44 0 -69 -31.5t-25 -88.5q0 -73 28.5 -114.5t77.5 -41.5zM345 -39l-189 12q-43 -46 -43 -89q0 -34 33.5 -61.5t104.5 -27.5q85 0 129.5 32.5
t44.5 72.5q0 55 -80 61zM325 793l8 -27q-92 -29 -92 -73q0 -20 18.5 -32.5t45.5 -14.5v-2q-8 -55 -68 -55q-33 0 -51 20t-18 51q0 93 157 133z" />
    <glyph glyph-name="Hcircumflex" unicode="&#x124;" horiz-adv-x="793" 
d="M477 0v33l85 23v267h-331v-267l85 -24v-32h-267v33l85 23v550l-85 26v32h267v-32l-85 -26v-236h331v236l-85 26v32h267v-32l-85 -26v-550l85 -24v-32h-267zM282 736h-45l111 129h97l111 -129h-47l-114 78z" />
    <glyph glyph-name="hcircumflex" unicode="&#x125;" horiz-adv-x="564" 
d="M331 0v34l57 20v253q-3 56 -23.5 82.5t-68.5 26.5q-29 0 -59.5 -14t-46.5 -27.5t-16 -15.5v-305l66 -20v-34h-214v34l63 22v611l-67 26v27l152 26v-354q14 17 31.5 34t55.5 37t76 20q72 0 104 -37t32 -131v-261l65 -21v-33h-207zM172 816h-45l111 129h97l111 -129h-47
l-114 78z" />
    <glyph glyph-name="Hbar" unicode="&#x126;" horiz-adv-x="793" 
d="M477 0v33l85 23v267h-331v-267l85 -24v-32h-267v33l85 23v420h-100v42h100v88l-85 26v32h267v-32l-85 -26v-88h331v88l-85 26v32h267v-32l-85 -26v-88h100v-42h-100v-420l85 -24v-32h-267zM231 476v-106h331v106h-331z" />
    <glyph glyph-name="hbar" unicode="&#x127;" horiz-adv-x="564" 
d="M3 550v47h86v70l-67 26v27l152 26v-149h194v-47h-194v-158q14 17 31.5 34t55.5 37t76 20q72 0 104 -37t32 -131v-261l65 -21v-33h-207v34l57 20v253q-3 56 -23.5 82.5t-68.5 26.5q-29 0 -59.5 -14t-46.5 -27.5t-16 -15.5v-305l66 -20v-34h-214v34l63 22v494h-86z" />
    <glyph glyph-name="Itilde" unicode="&#x128;" horiz-adv-x="354" 
d="M202 754l-42 18q-50 25 -73.5 21.5t-43.5 -50.5l-30 13l5 13q28 70 64 87t84 -6l52 -21q38 -19 60.5 -10.5t43.5 57.5l30 -13l-5 -13q-29 -76 -62.5 -97.5t-82.5 1.5zM49 0v33l85 23v550l-85 26v32h267v-32l-85 -26v-550l85 -24v-32h-267z" />
    <glyph glyph-name="itilde" unicode="&#x129;" horiz-adv-x="279" 
d="M134 613l-19 11q-39 27 -63 22.5t-44 -51.5l-30 13l5 13q53 132 158 73l25 -14q26 -19 50.5 -9.5t44.5 57.5l30 -13l-5 -13q-30 -77 -67 -98t-85 9zM31 0v34l67 22v342l-59 21v35l142 29v-428l75 -21v-34h-225z" />
    <glyph glyph-name="Imacron" unicode="&#x12a;" horiz-adv-x="354" 
d="M49 0v33l85 23v550l-85 26v32h267v-32l-85 -26v-550l85 -24v-32h-267zM37 782v60h290v-60h-290z" />
    <glyph glyph-name="imacron" unicode="&#x12b;" horiz-adv-x="279" 
d="M4 627v60h250v-60h-250zM31 0v34l67 22v342l-59 21v35l142 29v-428l75 -21v-34h-225z" />
    <glyph glyph-name="Ibreve" unicode="&#x12c;" horiz-adv-x="354" 
d="M49 0v33l85 23v550l-85 26v32h267v-32l-85 -26v-550l85 -24v-32h-267zM177 732q-72 0 -105 39t-30 94h29q16 -69 111 -69t111 69h29q4 -53 -34 -93t-111 -40z" />
    <glyph glyph-name="ibreve" unicode="&#x12d;" horiz-adv-x="279" 
d="M31 0v34l67 22v342l-59 21v35l142 29v-428l75 -21v-34h-225zM139 567q-117 0 -124 162h36q7 -43 31.5 -72t65.5 -29q36 0 59 29.5t30 71.5h35q-3 -78 -33.5 -120t-99.5 -42z" />
    <glyph glyph-name="Iogonek" unicode="&#x12e;" horiz-adv-x="354" 
d="M49 0v33l85 23v550l-85 26v32h267v-32l-85 -26v-550l85 -24v-32h-115q-36 -62 -47 -88.5t-11 -52.5q0 -50 52 -50q25 0 43.5 9.5t44.5 36.5l17 -17q-28 -44 -60 -70.5t-80 -26.5q-43 0 -69.5 24t-26.5 61q0 9 1 17.5t4.5 18.5t6.5 17t10 18.5t10.5 18t13.5 20l14.5 19.5
l16.5 22l17 23h-109z" />
    <glyph glyph-name="iogonek" unicode="&#x12f;" horiz-adv-x="279" 
d="M31 0v34l67 22v342l-59 21v35l142 29v-428l75 -21v-34h-96l-14 -24.5l-12.5 -21.5l-10 -17.5t-9 -16.5l-6.5 -13.5t-5 -13t-3 -11t-2.5 -12t-0.5 -11.5q0 -50 52 -50q24 0 41 9t43 37l17 -17q-19 -29 -33 -46.5t-42 -34t-61 -16.5q-43 0 -69.5 24t-26.5 61q0 16 4 31
t16 34.5t19.5 30.5t29.5 39t30 39h-86zM133 624q-25 0 -43.5 18t-18.5 43t18.5 43t43.5 18q24 0 42.5 -18t18.5 -43t-18.5 -43t-42.5 -18z" />
    <glyph glyph-name="Idotaccent" unicode="&#x130;" horiz-adv-x="354" 
d="M49 0v33l85 23v550l-85 26v32h267v-32l-85 -26v-550l85 -24v-32h-267zM182 755q-26 0 -44 18.5t-18 43.5t18 43.5t44 18.5t44 -18.5t18 -43.5t-18 -43.5t-44 -18.5z" />
    <glyph glyph-name="dotlessi" unicode="&#x131;" horiz-adv-x="279" 
d="M31 0v34l67 22v342l-59 21v35l142 29v-428l75 -21v-34h-225z" />
    <glyph glyph-name="IJ" unicode="&#x132;" horiz-adv-x="690" 
d="M49 0v33l85 23v550l-85 26v32h267v-32l-85 -26v-550l85 -24v-32h-267zM579 606v-555q0 -58 -9 -100.5t-32 -80.5t-67.5 -60.5t-110.5 -27.5l-6 34q43 9 70 28t39 51t15.5 62.5t3.5 81.5v568l-93 21v36h275v-32z" />
    <glyph glyph-name="ij" unicode="&#x133;" horiz-adv-x="540" 
d="M31 0v34l67 22v342l-59 21v35l142 29v-428l75 -21v-34h-225zM133 624q-25 0 -43.5 18t-18.5 43t18.5 43t43.5 18q24 0 42.5 -18t18.5 -43t-18.5 -43t-42.5 -18zM281 -251l-5 29q50 16 72 76t22 172v366l-59 27v35l143 29v-457q0 -108 -32 -173q-21 -43 -58.5 -70.5
t-82.5 -33.5zM405 624q-24 0 -42.5 18t-18.5 43t18.5 43t42.5 18q25 0 43.5 -18t18.5 -43t-18.5 -43t-43.5 -18z" />
    <glyph glyph-name="Jcircumflex" unicode="&#x134;" horiz-adv-x="346" 
d="M235 606v-555q0 -58 -9 -100.5t-32 -80.5t-67.5 -60.5t-110.5 -27.5l-6 34q43 9 70 28t39 51t15.5 62.5t3.5 81.5v568l-93 21v36h275v-32zM71 736h-45l111 129h97l111 -129h-47l-114 78z" />
    <glyph glyph-name="jcircumflex" unicode="&#x135;" horiz-adv-x="261" 
d="M2 -251l-5 29q50 16 72 76t22 172v366l-59 27v35l143 29v-457q0 -108 -32 -173q-21 -43 -58.5 -70.5t-82.5 -33.5zM51 551h-47l101 205h57l101 -205h-49l-83 131z" />
    <glyph glyph-name="Kcommaaccent" unicode="&#x136;" horiz-adv-x="681" 
d="M49 0v33l85 23v550l-85 26v32h267v-32l-85 -26v-550l85 -24v-32h-267zM518 0l-279 359v4l28 13l224 230l-70 29v29h209v-32l-81 -26l-212 -220l259 -334l75 -20v-32h-153zM284 -267l-8 27q92 29 92 73q0 20 -18.5 32.5t-45.5 14.5v2q8 55 68 55q33 0 51 -20t18 -51
q0 -93 -157 -133z" />
    <glyph glyph-name="kcommaaccent" unicode="&#x137;" horiz-adv-x="521" 
d="M92 56v604l-66 26v27l151 33v-692l66 -20v-34h-214v34zM457 -17q-47 -2 -103 70l-172 225v2l36 11l140 128l-61 20v31h202v-28l-67 -17l-162 -137l239 -283q-15 -21 -52 -22zM193 -267l-8 27q92 29 92 73q0 20 -18.5 32.5t-45.5 14.5v2q8 55 68 55q33 0 51 -20t18 -51
q0 -93 -157 -133z" />
    <glyph glyph-name="kgreenlandic" unicode="&#x138;" horiz-adv-x="523" 
d="M96 55v337l-67 16v27l147 48h5v-429l66 -20v-34h-214v34zM459 -17q-47 -2 -103 66l-172 213v2l37 11l139 144l-61 20v31h202v-28l-67 -17l-161 -154l238 -267q-15 -20 -52 -21z" />
    <glyph glyph-name="Lacute" unicode="&#x139;" horiz-adv-x="594" 
d="M231 47h220l81 152h37l-36 -199h-484v33l85 23v549l-85 27v32h284v-32l-102 -26v-559zM237 875h93v-20l-120 -119h-52z" />
    <glyph glyph-name="lacute" unicode="&#x13a;" horiz-adv-x="279" 
d="M29 0v34l63 21v605l-64 19v32l149 35v-692l68 -20v-34h-216zM182 941h93v-20l-120 -119h-52z" />
    <glyph glyph-name="Lcommaaccent" unicode="&#x13b;" horiz-adv-x="594" 
d="M231 47h220l81 152h37l-36 -199h-484v33l85 23v549l-85 27v32h284v-32l-102 -26v-559zM235 -267l-8 27q92 29 92 73q0 20 -18.5 32.5t-45.5 14.5v2q8 55 68 55q33 0 51 -20t18 -51q0 -93 -157 -133z" />
    <glyph glyph-name="lcommaaccent" unicode="&#x13c;" horiz-adv-x="279" 
d="M29 0v34l63 21v605l-64 19v32l149 35v-692l68 -20v-34h-216zM46 -267l-8 27q92 29 92 73q0 20 -18.5 32.5t-45.5 14.5v2q8 55 68 55q33 0 51 -20t18 -51q0 -93 -157 -133z" />
    <glyph glyph-name="Lcaron" unicode="&#x13d;" horiz-adv-x="594" 
d="M231 47h220l81 152h37l-36 -199h-484v33l85 23v549l-85 27v32h284v-32l-102 -26v-559zM436 474h-29l15 210h89v-8z" />
    <glyph glyph-name="lcaron" unicode="&#x13e;" horiz-adv-x="279" 
d="M29 0v34l63 21v605l-64 19v32l149 35v-692l68 -20v-34h-216zM279 536h-29l15 210h89v-8z" />
    <glyph glyph-name="Ldot" unicode="&#x13f;" horiz-adv-x="594" 
d="M231 47h220l81 152h37l-36 -199h-484v33l85 23v549l-85 27v32h284v-32l-102 -26v-559zM483 316q-26 0 -45.5 19.5t-19.5 46.5q0 26 19.5 45.5t45.5 19.5q27 0 46.5 -19.5t19.5 -45.5q0 -27 -19.5 -46.5t-46.5 -19.5z" />
    <glyph glyph-name="ldot" unicode="&#x140;" horiz-adv-x="343" 
d="M307 301q-26 0 -45.5 19.5t-19.5 46.5q0 26 19.5 45.5t45.5 19.5q27 0 46.5 -19.5t19.5 -45.5q0 -27 -19.5 -46.5t-46.5 -19.5zM29 0v34l63 21v605l-64 19v32l149 35v-692l68 -20v-34h-216z" />
    <glyph glyph-name="Lslash" unicode="&#x141;" horiz-adv-x="594" 
d="M49 252v41l85 24v288l-85 27v32h284v-32l-102 -26v-262l220 63v-41l-220 -63v-256h220l81 152h37l-36 -199h-484v33l85 23v220z" />
    <glyph glyph-name="lslash" unicode="&#x142;" horiz-adv-x="279" 
d="M10 277v50l82 46v287l-64 19v32l149 35v-326l90 51v-50l-90 -51v-316l68 -20v-34h-216v34l63 21v268z" />
    <glyph glyph-name="Nacute" unicode="&#x143;" horiz-adv-x="777" 
d="M660 -11h-23l-438 534v-453l107 -37v-33h-247v33l85 23v540l-95 36v32h160l394 -482v410l-107 39v33h247v-33l-85 -25v-489zM451 875h93v-20l-120 -119h-52z" />
    <glyph glyph-name="nacute" unicode="&#x144;" horiz-adv-x="570" 
d="M33 0v34l63 21v337l-67 16v27l123 48h5l22 -91h1q77 91 164 91q72 0 104 -37t32 -131v-261l65 -21v-33h-207v34l57 20v253q-3 56 -23.5 82.5t-68.5 26.5q-29 0 -59.5 -14t-46.5 -27.5t-16 -15.5v-305l66 -20v-34h-214zM319 756h80v-19l-99 -186h-41z" />
    <glyph glyph-name="Ncommaaccent" unicode="&#x145;" horiz-adv-x="777" 
d="M660 -11h-23l-438 534v-453l107 -37v-33h-247v33l85 23v540l-95 36v32h160l394 -482v410l-107 39v33h247v-33l-85 -25v-489zM328 -267l-8 27q92 29 92 73q0 20 -18.5 32.5t-45.5 14.5v2q8 55 68 55q33 0 51 -20t18 -51q0 -93 -157 -133z" />
    <glyph glyph-name="ncommaaccent" unicode="&#x146;" horiz-adv-x="570" 
d="M33 0v34l63 21v337l-67 16v27l123 48h5l22 -91h1q77 91 164 91q72 0 104 -37t32 -131v-261l65 -21v-33h-207v34l57 20v253q-3 56 -23.5 82.5t-68.5 26.5q-29 0 -59.5 -14t-46.5 -27.5t-16 -15.5v-305l66 -20v-34h-214zM203 -267l-8 27q92 29 92 73q0 20 -18.5 32.5
t-45.5 14.5v2q8 55 68 55q33 0 51 -20t18 -51q0 -93 -157 -133z" />
    <glyph glyph-name="Ncaron" unicode="&#x147;" horiz-adv-x="777" 
d="M660 -11h-23l-438 534v-453l107 -37v-33h-247v33l85 23v540l-95 36v32h160l394 -482v410l-107 39v33h247v-33l-85 -25v-489zM530 865h45l-111 -129h-97l-111 129h47l114 -78z" />
    <glyph glyph-name="ncaron" unicode="&#x148;" horiz-adv-x="570" 
d="M33 0v34l63 21v337l-67 16v27l123 48h5l22 -91h1q77 91 164 91q72 0 104 -37t32 -131v-261l65 -21v-33h-207v34l57 20v253q-3 56 -23.5 82.5t-68.5 26.5q-29 0 -59.5 -14t-46.5 -27.5t-16 -15.5v-305l66 -20v-34h-214zM366 756h47l-101 -205h-57l-101 205h49l82 -131z
" />
    <glyph glyph-name="napostrophe" unicode="&#x149;" horiz-adv-x="570" 
d="M33 0v34l63 21v337l-67 16v27l123 48h5l22 -91h1q77 91 164 91q72 0 104 -37t32 -131v-261l65 -21v-33h-207v34l57 20v253q-3 56 -23.5 82.5t-68.5 26.5q-29 0 -59.5 -14t-46.5 -27.5t-16 -15.5v-305l66 -20v-34h-214zM-20 540l-8 27q92 29 92 73q0 20 -18.5 32.5
t-45.5 14.5v2q8 55 68 55q33 0 51 -20t18 -51q0 -93 -157 -133z" />
    <glyph glyph-name="Eng" unicode="&#x14a;" horiz-adv-x="777" 
d="M658 606v-595q0 -58 -9 -100.5t-32 -80.5t-67.5 -60.5t-110.5 -27.5l-6 34q49 9 80.5 29t46 50.5t19.5 59t5 69.5v69l-385 470v-453l107 -37v-33h-247v33l85 23v540l-95 36v32h160l394 -482v410l-107 39v33h247v-33z" />
    <glyph glyph-name="eng" unicode="&#x14b;" horiz-adv-x="570" 
d="M396 26v281q-3 55 -24 82t-69 27q-29 0 -59.5 -14t-46.5 -27.5t-16 -15.5v-305l66 -20v-34h-214v34l63 21v337l-67 16v27l123 48h5l22 -91h1q77 91 164 91q72 0 104 -37t32 -131v-289q0 -108 -32 -173q-21 -43 -58.5 -70.5t-82.5 -33.5l-5 29q50 16 72 76t22 172z" />
    <glyph glyph-name="Omacron" unicode="&#x14c;" horiz-adv-x="786" 
d="M404 17q74 0 127 47t75.5 112t22.5 136q0 132 -70.5 229.5t-174.5 97.5q-58 0 -103 -26t-71 -69t-39.5 -92t-13.5 -101q0 -80 26 -154t84 -127t137 -53zM392 681q85 0 152.5 -29.5t107 -79t60 -109.5t20.5 -126q0 -166 -95 -264t-244 -98q-148 0 -243.5 95t-95.5 248
q0 166 95 264.5t243 98.5zM248 782v60h290v-60h-290z" />
    <glyph glyph-name="omacron" unicode="&#x14d;" horiz-adv-x="536" 
d="M127 261q0 -58 15 -109.5t51 -87.5t87 -36q59 0 94 52t35 131q0 108 -41.5 169.5t-110.5 61.5q-60 0 -95 -51t-35 -130zM268 -16q-109 0 -170.5 70t-61.5 172q0 108 67.5 183.5t164.5 75.5q107 0 169.5 -63.5t62.5 -176.5q0 -109 -67 -185t-165 -76zM123 627v60h290v-60
h-290z" />
    <glyph glyph-name="Obreve" unicode="&#x14e;" horiz-adv-x="786" 
d="M404 17q74 0 127 47t75.5 112t22.5 136q0 132 -70.5 229.5t-174.5 97.5q-58 0 -103 -26t-71 -69t-39.5 -92t-13.5 -101q0 -80 26 -154t84 -127t137 -53zM392 681q85 0 152.5 -29.5t107 -79t60 -109.5t20.5 -126q0 -166 -95 -264t-244 -98q-148 0 -243.5 95t-95.5 248
q0 166 95 264.5t243 98.5zM387 732q-72 0 -105 39t-30 94h29q16 -69 111 -69t111 69h29q4 -53 -34 -93t-111 -40z" />
    <glyph glyph-name="obreve" unicode="&#x14f;" horiz-adv-x="536" 
d="M127 261q0 -58 15 -109.5t51 -87.5t87 -36q59 0 94 52t35 131q0 108 -41.5 169.5t-110.5 61.5q-60 0 -95 -51t-35 -130zM268 -16q-109 0 -170.5 70t-61.5 172q0 108 67.5 183.5t164.5 75.5q107 0 169.5 -63.5t62.5 -176.5q0 -109 -67 -185t-165 -76zM264 567
q-117 0 -124 162h36q7 -43 31.5 -72t65.5 -29q36 0 59 29.5t30 71.5h35q-3 -78 -33.5 -120t-99.5 -42z" />
    <glyph glyph-name="Ohungarumlaut" unicode="&#x150;" horiz-adv-x="786" 
d="M404 17q74 0 127 47t75.5 112t22.5 136q0 132 -70.5 229.5t-174.5 97.5q-58 0 -103 -26t-71 -69t-39.5 -92t-13.5 -101q0 -80 26 -154t84 -127t137 -53zM392 681q85 0 152.5 -29.5t107 -79t60 -109.5t20.5 -126q0 -166 -95 -264t-244 -98q-148 0 -243.5 95t-95.5 248
q0 166 95 264.5t243 98.5zM358 875h80v-19l-104 -120h-52zM499 875h80v-19l-104 -120h-52z" />
    <glyph glyph-name="ohungarumlaut" unicode="&#x151;" horiz-adv-x="536" 
d="M127 261q0 -58 15 -109.5t51 -87.5t87 -36q59 0 94 52t35 131q0 108 -41.5 169.5t-110.5 61.5q-60 0 -95 -51t-35 -130zM268 -16q-109 0 -170.5 70t-61.5 172q0 108 67.5 183.5t164.5 75.5q107 0 169.5 -63.5t62.5 -176.5q0 -109 -67 -185t-165 -76zM223 756h78v-19
l-89 -186h-41zM365 756h78v-19l-89 -186h-41z" />
    <glyph glyph-name="OE" unicode="&#x152;" horiz-adv-x="1021" 
d="M940 0h-307q-45 0 -107 -2.5t-114 -2.5q-166 0 -262 91.5t-96 234.5q0 156 102.5 252.5t266.5 96.5q29 0 107 -3t180 -3h139l87 4v-177h-36l-54 128h-226v-252h130l29 82h32v-204h-35l-26 76h-130v-274h234l81 132h37zM527 158v458q-58 8 -119 8q-113 0 -180.5 -74.5
t-67.5 -202.5q0 -77 24.5 -145t81.5 -115.5t138 -47.5q72 0 97.5 25t25.5 94z" />
    <glyph glyph-name="oe" unicode="&#x153;" horiz-adv-x="878" 
d="M632 -16q-130 0 -181 115q-28 -54 -75 -84.5t-108 -30.5q-109 0 -170.5 70t-61.5 172q0 108 67.5 183.5t164.5 75.5q144 0 194 -116q61 114 187 114q84 0 130 -55t46 -157h-331v-10q0 -92 48 -146.5t127 -54.5q38 0 72.5 19t50.5 37l16 19l20 -12q-2 -6 -6 -15t-20 -33
t-36.5 -42.5t-56 -33.5t-77.5 -15zM280 28q58 0 93 52t35 131q0 102 -42 166.5t-109 64.5q-60 0 -94.5 -51t-34.5 -130q0 -86 39.5 -159.5t112.5 -73.5zM627 439q-46 0 -81.5 -36t-46.5 -93h226q-1 55 -26 92t-72 37z" />
    <glyph glyph-name="Racute" unicode="&#x154;" horiz-adv-x="666" 
d="M49 0v33l85 23v550l-85 26v32l230 3q140 1 211.5 -42.5t71.5 -121.5q0 -123 -151 -172l195 -275l87 -23v-33h-162l-175 247l-39 58l-86 -5v-244l85 -24v-32h-267zM231 632v-289h83q62 7 103 45t41 95q0 73 -60 112.5t-167 36.5zM361 875h93v-20l-120 -119h-52z" />
    <glyph glyph-name="racute" unicode="&#x155;" horiz-adv-x="376" 
d="M33 0v34l63 22v336l-67 13v30l136 48h5l6 -125h2l32 43q36 48 58.5 66t47.5 18q24 0 36.5 -13.5t12.5 -36.5q0 -29 -32 -69l-77 26q-45 -37 -76 -76v-264l88 -17v-35h-235zM240 756h80v-19l-99 -186h-41z" />
    <glyph glyph-name="Rcommaaccent" unicode="&#x156;" horiz-adv-x="666" 
d="M49 0v33l85 23v550l-85 26v32l230 3q140 1 211.5 -42.5t71.5 -121.5q0 -123 -151 -172l195 -275l87 -23v-33h-162l-175 247l-39 58l-86 -5v-244l85 -24v-32h-267zM231 632v-289h83q62 7 103 45t41 95q0 73 -60 112.5t-167 36.5zM291 -267l-8 27q92 29 92 73
q0 20 -18.5 32.5t-45.5 14.5v2q8 55 68 55q33 0 51 -20t18 -51q0 -93 -157 -133z" />
    <glyph glyph-name="rcommaaccent" unicode="&#x157;" horiz-adv-x="376" 
d="M33 0v34l63 22v336l-67 13v30l136 48h5l6 -125h2l32 43q36 48 58.5 66t47.5 18q24 0 36.5 -13.5t12.5 -36.5q0 -29 -32 -69l-77 26q-45 -37 -76 -76v-264l88 -17v-35h-235zM45 -267l-8 27q92 29 92 73q0 20 -18.5 32.5t-45.5 14.5v2q8 55 68 55q33 0 51 -20t18 -51
q0 -93 -157 -133z" />
    <glyph glyph-name="Rcaron" unicode="&#x158;" horiz-adv-x="666" 
d="M49 0v33l85 23v550l-85 26v32l230 3q140 1 211.5 -42.5t71.5 -121.5q0 -123 -151 -172l195 -275l87 -23v-33h-162l-175 247l-39 58l-86 -5v-244l85 -24v-32h-267zM231 632v-289h83q62 7 103 45t41 95q0 73 -60 112.5t-167 36.5zM427 865h45l-111 -129h-97l-111 129h47
l114 -78z" />
    <glyph glyph-name="rcaron" unicode="&#x159;" horiz-adv-x="376" 
d="M33 0v34l63 22v336l-67 13v30l136 48h5l6 -125h2l32 43q36 48 58.5 66t47.5 18q24 0 36.5 -13.5t12.5 -36.5q0 -29 -32 -69l-77 26q-45 -37 -76 -76v-264l88 -17v-35h-235zM290 756h47l-101 -205h-57l-101 205h49l82 -131z" />
    <glyph glyph-name="Sacute" unicode="&#x15a;" horiz-adv-x="517" 
d="M51 33l-13 177h38l55 -144q49 -40 116 -40q59 0 96.5 34t37.5 90q0 87 -96 127l-102 43q-69 30 -102.5 70.5t-33.5 101.5q0 82 66.5 137t168.5 55q88 0 155 -41l6 -165h-34l-52 136q-42 28 -88 28q-57 0 -92.5 -33.5t-35.5 -78.5q0 -76 85 -114l119 -54q71 -32 102 -74
t31 -100q0 -89 -74.5 -148t-164.5 -59q-49 0 -101 14.5t-87 37.5zM296 875h93v-20l-120 -119h-52z" />
    <glyph glyph-name="sacute" unicode="&#x15b;" horiz-adv-x="418" 
d="M192 -19q-66 0 -130 39l-16 140h33l51 -110q35 -30 82 -30q38 0 62 21t24 55q0 29 -21.5 53t-75.5 48l-40 18q-54 24 -78.5 54t-24.5 77q0 57 51.5 98t120.5 41q59 0 118 -32l5 -119h-30l-41 87q-30 25 -67 25q-35 0 -55.5 -19.5t-20.5 -49.5t18 -51t63 -41l43 -19
q64 -28 91 -61t27 -76q0 -61 -57.5 -104.5t-131.5 -43.5zM246 756h80v-19l-99 -186h-41z" />
    <glyph glyph-name="Scircumflex" unicode="&#x15c;" horiz-adv-x="517" 
d="M51 33l-13 177h38l55 -144q49 -40 116 -40q59 0 96.5 34t37.5 90q0 87 -96 127l-102 43q-69 30 -102.5 70.5t-33.5 101.5q0 82 66.5 137t168.5 55q88 0 155 -41l6 -165h-34l-52 136q-42 28 -88 28q-57 0 -92.5 -33.5t-35.5 -78.5q0 -76 85 -114l119 -54q71 -32 102 -74
t31 -100q0 -89 -74.5 -148t-164.5 -59q-49 0 -101 14.5t-87 37.5zM168 736h-45l111 129h97l111 -129h-47l-114 78z" />
    <glyph glyph-name="scircumflex" unicode="&#x15d;" horiz-adv-x="418" 
d="M192 -19q-66 0 -130 39l-16 140h33l51 -110q35 -30 82 -30q38 0 62 21t24 55q0 29 -21.5 53t-75.5 48l-40 18q-54 24 -78.5 54t-24.5 77q0 57 51.5 98t120.5 41q59 0 118 -32l5 -119h-30l-41 87q-30 25 -67 25q-35 0 -55.5 -19.5t-20.5 -49.5t18 -51t63 -41l43 -19
q64 -28 91 -61t27 -76q0 -61 -57.5 -104.5t-131.5 -43.5zM132 551h-47l101 205h57l101 -205h-49l-83 131z" />
    <glyph glyph-name="Scedilla" unicode="&#x15e;" horiz-adv-x="517" 
d="M154 -257l-5 29q27 8 42.5 14.5t32 22t16.5 36.5q0 38 -53 58l48 78q-109 2 -184 52l-13 177h38l55 -144q49 -40 116 -40q59 0 96.5 34t37.5 90q0 87 -96 127l-102 43q-69 30 -102.5 70.5t-33.5 101.5q0 82 66.5 137t168.5 55q88 0 155 -41l6 -165h-34l-52 136
q-42 28 -88 28q-57 0 -92.5 -33.5t-35.5 -78.5q0 -76 85 -114l119 -54q71 -32 102 -74t31 -100q0 -80 -60.5 -135.5t-141.5 -68.5l-28 -47q32 -3 51.5 -21.5t19.5 -48.5q0 -29 -16.5 -52t-44 -37t-52.5 -22t-52 -13z" />
    <glyph glyph-name="scedilla" unicode="&#x15f;" horiz-adv-x="418" 
d="M113 -252l-5 29q27 8 42.5 14.5t32 22t16.5 36.5q0 38 -53 58l45 73q-65 0 -129 39l-16 140h33l51 -110q35 -30 82 -30q38 0 62 21t24 55q0 29 -21.5 53t-75.5 48l-40 18q-54 24 -78.5 54t-24.5 77q0 57 51.5 98t120.5 41q59 0 118 -32l5 -119h-30l-41 87q-30 25 -67 25
q-35 0 -55.5 -19.5t-20.5 -49.5t18 -51t63 -41l43 -19q64 -28 91 -61t27 -76q0 -53 -43 -92.5t-106 -51.5l-25 -43q32 -3 51.5 -21.5t19.5 -48.5q0 -29 -16.5 -52t-44 -37t-52.5 -22t-52 -13z" />
    <glyph glyph-name="Scaron" unicode="&#x160;" horiz-adv-x="517" 
d="M51 33l-13 177h38l55 -144q49 -40 116 -40q59 0 96.5 34t37.5 90q0 87 -96 127l-102 43q-69 30 -102.5 70.5t-33.5 101.5q0 82 66.5 137t168.5 55q88 0 155 -41l6 -165h-34l-52 136q-42 28 -88 28q-57 0 -92.5 -33.5t-35.5 -78.5q0 -76 85 -114l119 -54q71 -32 102 -74
t31 -100q0 -89 -74.5 -148t-164.5 -59q-49 0 -101 14.5t-87 37.5zM394 865h45l-111 -129h-97l-111 129h47l114 -78z" />
    <glyph glyph-name="scaron" unicode="&#x161;" horiz-adv-x="418" 
d="M192 -19q-66 0 -130 39l-16 140h33l51 -110q35 -30 82 -30q38 0 62 21t24 55q0 29 -21.5 53t-75.5 48l-40 18q-54 24 -78.5 54t-24.5 77q0 57 51.5 98t120.5 41q59 0 118 -32l5 -119h-30l-41 87q-30 25 -67 25q-35 0 -55.5 -19.5t-20.5 -49.5t18 -51t63 -41l43 -19
q64 -28 91 -61t27 -76q0 -61 -57.5 -104.5t-131.5 -43.5zM296 756h47l-101 -205h-57l-101 205h49l82 -131z" />
    <glyph glyph-name="Tcommaaccent" unicode="&#x162;" horiz-adv-x="647" 
d="M107 664h433l67 8l10 -181h-36l-54 128h-155v-563l94 -23v-33h-286v33l95 23v563h-155l-54 -128h-36l9 181zM233 -267l-8 27q92 29 92 73q0 20 -18.5 32.5t-45.5 14.5v2q8 55 68 55q33 0 51 -20t18 -51q0 -93 -157 -133z" />
    <glyph glyph-name="tcommaaccent" unicode="&#x163;" horiz-adv-x="332" 
d="M186 -11q-103 0 -101 109l3 322h-70v42l73 18l44 119h34v-129h134v-53h-132v-279q0 -55 16.5 -70.5t50.5 -15.5l75 7l6 -25q-6 -5 -18 -12.5t-46.5 -20t-68.5 -12.5zM94 -267l-8 27q92 29 92 73q0 20 -18.5 32.5t-45.5 14.5v2q8 55 68 55q33 0 51 -20t18 -51
q0 -93 -157 -133z" />
    <glyph glyph-name="Tcaron" unicode="&#x164;" horiz-adv-x="647" 
d="M107 664h433l67 8l10 -181h-36l-54 128h-155v-563l94 -23v-33h-286v33l95 23v563h-155l-54 -128h-36l9 181zM435 865h45l-111 -129h-97l-111 129h47l114 -78z" />
    <glyph glyph-name="tcaron" unicode="&#x165;" horiz-adv-x="332" 
d="M186 -11q-103 0 -101 109l3 322h-70v42l73 18l44 119h34v-129h134v-53h-132v-279q0 -55 16.5 -70.5t50.5 -15.5l75 7l6 -25q-6 -5 -18 -12.5t-46.5 -20t-68.5 -12.5zM286 539h-29l15 210h89v-8z" />
    <glyph glyph-name="Tbar" unicode="&#x166;" horiz-adv-x="647" 
d="M105 348v44h170v227h-155l-54 -128h-36l9 181l68 -8h433l67 8l10 -181h-36l-54 128h-155v-227h168v-44h-168v-292l95 -23v-33h-287v33l95 23v292h-170z" />
    <glyph glyph-name="tbar" unicode="&#x167;" horiz-adv-x="332" 
d="M18 270v50h69l1 100h-70v42l73 18l44 119h34v-129h134v-53h-132v-97h132v-50h-132v-132q0 -55 16.5 -70.5t50.5 -15.5l75 7l6 -25q-6 -5 -18 -12.5t-46.5 -20t-68.5 -12.5q-103 0 -101 109l1 172h-68z" />
    <glyph glyph-name="Utilde" unicode="&#x168;" horiz-adv-x="739" 
d="M377 -24q-151 0 -210.5 72t-59.5 206v352l-85 26v32h270v-32l-85 -26v-327q0 -246 179 -246q102 0 149 58.5t46 182.5l-3 323l-116 35v32h263v-32l-85 -26v-352q-1 -90 -40 -154.5t-97 -94t-126 -29.5zM403 754l-42 18q-50 25 -73.5 21.5t-43.5 -50.5l-30 13l5 13
q28 70 64 87t84 -6l52 -21q38 -19 60.5 -10.5t43.5 57.5l30 -13l-5 -13q-29 -76 -62.5 -97.5t-82.5 1.5z" />
    <glyph glyph-name="utilde" unicode="&#x169;" horiz-adv-x="553" 
d="M412 -15l-29 81q-74 -83 -167 -83q-66 0 -99.5 46t-33.5 132v246l-69 20v37l154 15v-309q4 -119 105 -119q27 0 53.5 11.5t39.5 23.5l13 12v309l-81 18v37l166 15v-419l81 -20v-33zM286 605l-39 23q-48 29 -70.5 23t-43.5 -56l-30 13l5 13q55 138 154 83l48 -27
q37 -22 58.5 -11t43.5 62l30 -13l-5 -13q-30 -78 -67 -101.5t-84 4.5z" />
    <glyph glyph-name="Umacron" unicode="&#x16a;" horiz-adv-x="739" 
d="M377 -24q-151 0 -210.5 72t-59.5 206v352l-85 26v32h270v-32l-85 -26v-327q0 -246 179 -246q102 0 149 58.5t46 182.5l-3 323l-116 35v32h263v-32l-85 -26v-352q-1 -90 -40 -154.5t-97 -94t-126 -29.5zM238 782v60h290v-60h-290z" />
    <glyph glyph-name="umacron" unicode="&#x16b;" horiz-adv-x="553" 
d="M412 -15l-29 81q-74 -83 -167 -83q-66 0 -99.5 46t-33.5 132v246l-69 20v37l154 15v-309q4 -119 105 -119q27 0 53.5 11.5t39.5 23.5l13 12v309l-81 18v37l166 15v-419l81 -20v-33zM128 627v60h290v-60h-290z" />
    <glyph glyph-name="Ubreve" unicode="&#x16c;" horiz-adv-x="739" 
d="M377 -24q-151 0 -210.5 72t-59.5 206v352l-85 26v32h270v-32l-85 -26v-327q0 -246 179 -246q102 0 149 58.5t46 182.5l-3 323l-116 35v32h263v-32l-85 -26v-352q-1 -90 -40 -154.5t-97 -94t-126 -29.5zM377 732q-72 0 -105 39t-30 94h29q16 -69 111 -69t111 69h29
q4 -53 -34 -93t-111 -40z" />
    <glyph glyph-name="ubreve" unicode="&#x16d;" horiz-adv-x="553" 
d="M412 -15l-29 81q-74 -83 -167 -83q-66 0 -99.5 46t-33.5 132v246l-69 20v37l154 15v-309q4 -119 105 -119q27 0 53.5 11.5t39.5 23.5l13 12v309l-81 18v37l166 15v-419l81 -20v-33zM269 567q-117 0 -124 162h36q7 -43 31.5 -72t65.5 -29q36 0 59 29.5t30 71.5h35
q-3 -78 -33.5 -120t-99.5 -42z" />
    <glyph glyph-name="Uring" unicode="&#x16e;" horiz-adv-x="739" 
d="M377 -24q-151 0 -210.5 72t-59.5 206v352l-85 26v32h270v-32l-85 -26v-327q0 -246 179 -246q102 0 149 58.5t46 182.5l-3 323l-116 35v32h263v-32l-85 -26v-352q-1 -90 -40 -154.5t-97 -94t-126 -29.5zM266 817q0 48 34 81t83 33q50 0 83.5 -32.5t33.5 -81.5
q0 -48 -34 -81t-83 -33q-50 0 -83.5 32.5t-33.5 81.5zM312 817q0 -32 20.5 -52.5t50.5 -20.5t50.5 20.5t20.5 52.5t-20.5 52.5t-50.5 20.5t-50.5 -20.5t-20.5 -52.5z" />
    <glyph glyph-name="uring" unicode="&#x16f;" horiz-adv-x="553" 
d="M412 -15l-29 81q-74 -83 -167 -83q-66 0 -99.5 46t-33.5 132v246l-69 20v37l154 15v-309q4 -119 105 -119q27 0 53.5 11.5t39.5 23.5l13 12v309l-81 18v37l166 15v-419l81 -20v-33zM156 674q0 48 34 81t83 33q50 0 83.5 -32.5t33.5 -81.5q0 -48 -34 -81t-83 -33
q-50 0 -83.5 32.5t-33.5 81.5zM202 674q0 -32 20.5 -52.5t50.5 -20.5t50.5 20.5t20.5 52.5t-20.5 52.5t-50.5 20.5t-50.5 -20.5t-20.5 -52.5z" />
    <glyph glyph-name="Uhungarumlaut" unicode="&#x170;" horiz-adv-x="739" 
d="M377 -24q-151 0 -210.5 72t-59.5 206v352l-85 26v32h270v-32l-85 -26v-327q0 -246 179 -246q102 0 149 58.5t46 182.5l-3 323l-116 35v32h263v-32l-85 -26v-352q-1 -90 -40 -154.5t-97 -94t-126 -29.5zM348 875h80v-19l-104 -120h-52zM489 875h80v-19l-104 -120h-52z" />
    <glyph glyph-name="uhungarumlaut" unicode="&#x171;" horiz-adv-x="553" 
d="M412 -15l-29 81q-74 -83 -167 -83q-66 0 -99.5 46t-33.5 132v246l-69 20v37l154 15v-309q4 -119 105 -119q27 0 53.5 11.5t39.5 23.5l13 12v309l-81 18v37l166 15v-419l81 -20v-33zM228 756h78v-19l-89 -186h-41zM370 756h78v-19l-89 -186h-41z" />
    <glyph glyph-name="Uogonek" unicode="&#x172;" horiz-adv-x="739" 
d="M640 254q-1 -116 -61.5 -186.5t-151.5 -86.5q-48 -50 -65.5 -74.5t-17.5 -47.5q0 -50 52 -50q25 0 43.5 9.5t44.5 36.5l17 -17q-28 -44 -60 -70.5t-80 -26.5q-43 0 -69.5 24t-26.5 61q0 39 24.5 70.5t84.5 79.5q-150 1 -208.5 72.5t-58.5 205.5v352l-85 26v32h270v-32
l-85 -26v-327q0 -246 179 -246q102 0 149 58.5t46 182.5l-3 323l-116 35v32h263v-32l-85 -26v-352z" />
    <glyph glyph-name="uogonek" unicode="&#x173;" horiz-adv-x="553" 
d="M545 5l-80 -12q-58 -60 -77 -85t-19 -49q0 -50 52 -50q25 0 43.5 9.5t44.5 36.5l17 -17q-28 -44 -60 -70.5t-80 -26.5q-43 0 -69.5 24t-26.5 61q0 41 27 73t95 87l-29 80q-74 -83 -167 -83q-66 0 -99.5 46t-33.5 132v246l-69 20v37l154 15v-309q4 -119 105 -119
q27 0 53.5 11.5t39.5 23.5l13 12v309l-81 18v37l166 15v-419l81 -20v-33z" />
    <glyph glyph-name="Wcircumflex" unicode="&#x174;" horiz-adv-x="968" 
d="M645 -7l-160 469l-164 -469h-73l-186 613l-63 26v32h255v-32l-86 -26l140 -511l151 444l-22 67l-86 26v32h270v-34l-84 -24l163 -504l140 495l-104 33v34h233v-32l-66 -30l-184 -609h-74zM382 736h-45l111 129h97l111 -129h-47l-114 78z" />
    <glyph glyph-name="wcircumflex" unicode="&#x175;" horiz-adv-x="739" 
d="M411 478l118 -357l10 -33h2q4 16 9 33l87 293l-74 25v31h173v-31l-46 -19l-136 -436h-60l-113 324l-11 36h-1l-11 -36l-110 -324h-64l-135 436l-46 19v31h213v-31l-73 -19l83 -299l9 -33h2q4 16 10 33l116 357h48zM304 551h-47l101 205h57l101 -205h-49l-83 131z" />
    <glyph glyph-name="Ycircumflex" unicode="&#x176;" horiz-adv-x="630" 
d="M557 602l-193 -322v-224l94 -23v-33h-286v33l95 23v206l-196 344l-64 26v32h251v-32l-75 -26l155 -286h4l158 277l-94 33v34h217v-32zM221 736h-45l111 129h97l111 -129h-47l-114 78z" />
    <glyph glyph-name="ycircumflex" unicode="&#x177;" horiz-adv-x="498" 
d="M400 415l-69 25v30h168v-31l-46 -20l-222 -554q-25 -64 -47.5 -91t-58.5 -27q-25 0 -43.5 16t-18.5 40q0 23 14 36.5t36 13.5q30 0 49 -36h2l59 138l-177 465l-47 19v31h217v-31l-73 -19l124 -350h3zM194 551h-47l101 205h57l101 -205h-49l-83 131z" />
    <glyph glyph-name="Ydieresis" unicode="&#x178;" horiz-adv-x="630" 
d="M557 602l-193 -322v-224l94 -23v-33h-286v33l95 23v206l-196 344l-64 26v32h251v-32l-75 -26l155 -286h4l158 277l-94 33v34h217v-32zM224 761q-23 0 -39.5 16.5t-16.5 39.5t16.5 40t39.5 17t40 -17t17 -40t-17 -39.5t-40 -16.5zM445 761q-23 0 -40 16.5t-17 39.5t17 40
t40 17t40 -17t17 -40t-17 -39.5t-40 -16.5z" />
    <glyph glyph-name="Zacute" unicode="&#x179;" horiz-adv-x="620" 
d="M31 0v25l417 593h-291l-64 -139h-36l21 191l75 -6h439v-3l-430 -614h311l82 152h37l-37 -204l-78 5h-446zM357 875h93v-20l-120 -119h-52z" />
    <glyph glyph-name="zacute" unicode="&#x17a;" horiz-adv-x="454" 
d="M329 0h-301v34l273 393h-177l-44 -105h-31v154l74 -6h300v-15l-286 -412h192l57 118h32l-14 -165zM258 756h80v-19l-99 -186h-41z" />
    <glyph glyph-name="Zdotaccent" unicode="&#x17b;" horiz-adv-x="620" 
d="M31 0v25l417 593h-291l-64 -139h-36l21 191l75 -6h439v-3l-430 -614h311l82 152h37l-37 -204l-78 5h-446zM311 755q-25 0 -43.5 18.5t-18.5 43.5t18.5 43.5t43.5 18.5t43.5 -18.5t18.5 -43.5t-18.5 -43.5t-43.5 -18.5z" />
    <glyph glyph-name="zdotaccent" unicode="&#x17c;" horiz-adv-x="454" 
d="M329 0h-301v34l273 393h-177l-44 -105h-31v154l74 -6h300v-15l-286 -412h192l57 118h32l-14 -165zM225 589q-25 0 -43.5 18.5t-18.5 43.5t18.5 43.5t43.5 18.5t43.5 -18.5t18.5 -43.5t-18.5 -43.5t-43.5 -18.5z" />
    <glyph glyph-name="Zcaron" unicode="&#x17d;" horiz-adv-x="620" 
d="M31 0v25l417 593h-291l-64 -139h-36l21 191l75 -6h439v-3l-430 -614h311l82 152h37l-37 -204l-78 5h-446zM423 865h45l-111 -129h-97l-111 129h47l114 -78z" />
    <glyph glyph-name="zcaron" unicode="&#x17e;" horiz-adv-x="454" 
d="M329 0h-301v34l273 393h-177l-44 -105h-31v154l74 -6h300v-15l-286 -412h192l57 118h32l-14 -165zM308 756h47l-101 -205h-57l-101 205h49l82 -131z" />
    <glyph glyph-name="florin" unicode="&#x192;" horiz-adv-x="456" 
d="M37 273l6 44h91q33 123 106 205t155 82q33 0 50 -16t17 -38q0 -25 -31 -64q-21 23 -31.5 33t-28.5 20.5t-34 10.5q-14 0 -25 -7.5t-26.5 -29.5t-32 -71.5t-34.5 -124.5h130l-10 -44h-130l-6 -31l-47 -227q-14 -68 -38 -120.5t-48.5 -81t-52 -46t-46.5 -22.5t-36 -5
q-22 0 -44 15.5t-22 41.5q0 13 7.5 28t17.5 22q63 -58 90 -58q26 0 41.5 35.5t31.5 114.5l66 334h-86z" />
    <glyph glyph-name="Aringacute" unicode="&#x1fa;" horiz-adv-x="674" 
d="M220 818q0 48 34 81t83 33q50 0 83.5 -32.5t33.5 -81.5q0 -48 -34 -81t-83 -33q-50 0 -83.5 32.5t-33.5 81.5zM266 818q0 -32 20.5 -52.5t50.5 -20.5t50.5 20.5t20.5 52.5t-20.5 52.5t-50.5 20.5t-50.5 -20.5t-20.5 -52.5zM390 1098h93v-20l-120 -119h-52zM3 0v32l58 23
l243 614l34 5l35 10l230 -629l68 -22v-33h-257v33l85 23l-61 175h-244l-58 -163l96 -35v-33h-229zM317 574l-101 -283h201l-99 283h-1z" />
    <glyph glyph-name="aringacute" unicode="&#x1fb;" horiz-adv-x="502" 
d="M169 -15q-45 0 -82.5 31t-37.5 86q0 57 39.5 89t121.5 54l103 27v52q-1 56 -27.5 86.5t-67.5 30.5q-34 0 -63 -18l-4 -99q-25 -3 -40 -3q-48 0 -48 43q0 38 59 78.5t132 40.5q75 0 110 -35t35 -110v-270q0 -16 6.5 -21.5t26.5 -5.5h50v-28q-58 -25 -95 -25
q-36 0 -54 21.5t-18 56.5h-3l-15.5 -15l-15 -14.5t-12.5 -11.5t-13.5 -11t-12 -8.5t-13 -7.5t-13 -5t-15 -5t-15.5 -2t-18 -1zM222 53q55 0 91 54v132l-96 -32q-39 -13 -58 -30t-19 -47q0 -36 24 -56.5t58 -20.5zM128 644q0 48 34 81t83 33q50 0 83.5 -32.5t33.5 -81.5
q0 -48 -34 -81t-83 -33q-50 0 -83.5 32.5t-33.5 81.5zM174 644q0 -32 20.5 -52.5t50.5 -20.5t50.5 20.5t20.5 52.5t-20.5 52.5t-50.5 20.5t-50.5 -20.5t-20.5 -52.5zM298 951h93v-20l-120 -119h-52z" />
    <glyph glyph-name="AEacute" unicode="&#x1fc;" horiz-adv-x="959" 
d="M688 315h-130v-268h234l81 132h37l-32 -179h-498v33l85 23v259h-189l-133 -247l97 -35v-33h-236v32l64 29l314 537l-99 34v32h504l87 4v-177h-36l-54 128h-226v-258h130l29 82h32v-204h-35zM465 619h-10l-153 -259h163v259zM557 875h93v-20l-120 -119h-52z" />
    <glyph glyph-name="aeacute" unicode="&#x1fd;" horiz-adv-x="758" 
d="M169 -15q-45 0 -82.5 31t-37.5 86q0 58 36.5 90.5t121.5 48.5l114 21v62q-1 56 -29 86.5t-70 30.5q-38 0 -67 -18l-4 -99q-25 -3 -40 -3q-48 0 -48 43q0 37 61 78t134 41q95 0 130 -79q20 34 65.5 57t94.5 23q71 0 113 -46.5t46 -136.5l-300 -55v-41q4 -64 43 -104.5
t100 -40.5q34 0 68.5 19t51.5 37l18 19l20 -12q-2 -6 -6.5 -15t-21.5 -33t-37.5 -42.5t-55 -33.5t-73.5 -15q-54 0 -100.5 28.5t-71.5 78.5q-45 -54 -82.5 -80t-90.5 -26zM221 53q65 0 109 69q-9 28 -9 63v45l-94 -20q-87 -20 -87 -80q0 -37 23 -57t58 -20zM521 440
q-45 0 -79 -44.5t-35 -115.5l200 40q-1 51 -25 85.5t-61 34.5zM425 756h80v-19l-99 -186h-41z" />
    <glyph glyph-name="Oslashacute" unicode="&#x1fe;" horiz-adv-x="786" 
d="M75 -35l78 102q-99 96 -99 251q0 166 95 264.5t243 98.5q112 0 192 -51l56 74h57l-77 -101q55 -48 83.5 -118.5t28.5 -147.5q0 -166 -95 -264t-244 -98q-118 0 -206 63l-55 -73h-57zM626 312q0 134 -58 223l-334 -436q65 -80 170 -80q73 0 125 46.5t74.5 111t22.5 135.5z
M385 637q-58 0 -103 -26.5t-70.5 -69.5t-38.5 -91.5t-13 -98.5q0 -126 48 -212l331 433q-62 65 -154 65zM439 875h93v-20l-120 -119h-52z" />
    <glyph glyph-name="oslashacute" unicode="&#x1ff;" horiz-adv-x="536" 
d="M83 -43h-51l71 95q-67 69 -67 174q0 108 67.5 183.5t164.5 75.5q77 0 132 -37l54 71h51l-73 -97q68 -66 68 -177q0 -109 -67 -185t-165 -76q-73 0 -134 41zM278 27q59 0 95.5 55t36.5 139q0 85 -25 138l-213 -284q38 -48 106 -48zM126 253q0 -84 24 -139l212 283
q-38 47 -104 47q-60 0 -96 -54t-36 -137zM301 756h80v-19l-99 -186h-41z" />
    <glyph glyph-name="Scommaaccent" unicode="&#x218;" horiz-adv-x="517" 
d="M51 33l-13 177h38l55 -144q49 -40 116 -40q59 0 96.5 34t37.5 90q0 87 -96 127l-102 43q-69 30 -102.5 70.5t-33.5 101.5q0 82 66.5 137t168.5 55q88 0 155 -41l6 -165h-34l-52 136q-42 28 -88 28q-57 0 -92.5 -33.5t-35.5 -78.5q0 -76 85 -114l119 -54q71 -32 102 -74
t31 -100q0 -89 -74.5 -148t-164.5 -59q-49 0 -101 14.5t-87 37.5zM164 -267l-8 27q92 29 92 73q0 20 -18.5 32.5t-45.5 14.5v2q8 55 68 55q33 0 51 -20t18 -51q0 -93 -157 -133z" />
    <glyph glyph-name="scommaaccent" unicode="&#x219;" horiz-adv-x="418" 
d="M192 -19q-66 0 -130 39l-16 140h33l51 -110q35 -30 82 -30q38 0 62 21t24 55q0 29 -21.5 53t-75.5 48l-40 18q-54 24 -78.5 54t-24.5 77q0 57 51.5 98t120.5 41q59 0 118 -32l5 -119h-30l-41 87q-30 25 -67 25q-35 0 -55.5 -19.5t-20.5 -49.5t18 -51t63 -41l43 -19
q64 -28 91 -61t27 -76q0 -61 -57.5 -104.5t-131.5 -43.5zM123 -267l-8 27q92 29 92 73q0 20 -18.5 32.5t-45.5 14.5v2q8 55 68 55q33 0 51 -20t18 -51q0 -93 -157 -133z" />
    <glyph glyph-name="uni0237" unicode="&#x237;" horiz-adv-x="261" 
d="M2 -251l-5 29q50 16 72 76t22 172v366l-59 27v35l143 29v-457q0 -108 -32 -173q-21 -43 -58.5 -70.5t-82.5 -33.5z" />
    <glyph glyph-name="circumflex" unicode="&#x2c6;" horiz-adv-x="400" 
d="M117 551h-47l101 205h57l101 -205h-49l-83 131z" />
    <glyph glyph-name="caron" unicode="&#x2c7;" horiz-adv-x="400" 
d="M282 756h47l-101 -205h-57l-101 205h49l82 -131z" />
    <glyph glyph-name="breve" unicode="&#x2d8;" horiz-adv-x="400" 
d="M195 567q-117 0 -124 162h36q7 -43 31.5 -72t65.5 -29q36 0 59 29.5t30 71.5h35q-3 -78 -33.5 -120t-99.5 -42z" />
    <glyph glyph-name="dotaccent" unicode="&#x2d9;" horiz-adv-x="400" 
d="M200 589q-26 0 -44 18.5t-18 43.5t18 43.5t44 18.5t44 -18.5t18 -43.5t-18 -43.5t-44 -18.5z" />
    <glyph glyph-name="ring" unicode="&#x2da;" horiz-adv-x="400" 
d="M83 674q0 48 34 81t83 33q50 0 83.5 -32.5t33.5 -81.5q0 -48 -34 -81t-83 -33q-50 0 -83.5 32.5t-33.5 81.5zM129 674q0 -32 20.5 -52.5t50.5 -20.5t50.5 20.5t20.5 52.5t-20.5 52.5t-50.5 20.5t-50.5 -20.5t-20.5 -52.5z" />
    <glyph glyph-name="ogonek" unicode="&#x2db;" horiz-adv-x="400" 
d="M222 0h42l-61.5 -64t-29 -39t-12.5 -38q0 -50 52 -50q25 0 43.5 9.5t44.5 36.5l17 -17q-28 -44 -60 -70.5t-80 -26.5q-43 0 -69.5 24t-26.5 61q0 43 29.5 76.5t110.5 97.5z" />
    <glyph glyph-name="tilde" unicode="&#x2dc;" horiz-adv-x="400" 
d="M213 605l-39 23q-48 29 -70.5 23t-43.5 -56l-30 13l5 13q55 138 154 83l48 -27q37 -22 58.5 -11t43.5 62l30 -13l-5 -13q-30 -78 -67 -101.5t-84 4.5z" />
    <glyph glyph-name="hungarumlaut" unicode="&#x2dd;" horiz-adv-x="400" 
d="M117 756h78v-19l-89 -186h-41zM259 756h78v-19l-89 -186h-41z" />
    <glyph glyph-name="Wgrave" unicode="&#x1e80;" horiz-adv-x="968" 
d="M645 -7l-160 469l-164 -469h-73l-186 613l-63 26v32h255v-32l-86 -26l140 -511l151 444l-22 67l-86 26v32h270v-34l-84 -24l163 -504l140 495l-104 33v34h233v-32l-66 -30l-184 -609h-74zM354 875h93l79 -139h-52l-120 119v20z" />
    <glyph glyph-name="wgrave" unicode="&#x1e81;" horiz-adv-x="739" 
d="M411 478l118 -357l10 -33h2q4 16 9 33l87 293l-74 25v31h173v-31l-46 -19l-136 -436h-60l-113 324l-11 36h-1l-11 -36l-110 -324h-64l-135 436l-46 19v31h213v-31l-73 -19l83 -299l9 -33h2q4 16 10 33l116 357h48zM368 551l-100 186v19h80l61 -205h-41z" />
    <glyph glyph-name="Wacute" unicode="&#x1e82;" horiz-adv-x="968" 
d="M645 -7l-160 469l-164 -469h-73l-186 613l-63 26v32h255v-32l-86 -26l140 -511l151 444l-22 67l-86 26v32h270v-34l-84 -24l163 -504l140 495l-104 33v34h233v-32l-66 -30l-184 -609h-74zM542 875h93v-20l-120 -119h-52z" />
    <glyph glyph-name="wacute" unicode="&#x1e83;" horiz-adv-x="739" 
d="M411 478l118 -357l10 -33h2q4 16 9 33l87 293l-74 25v31h173v-31l-46 -19l-136 -436h-60l-113 324l-11 36h-1l-11 -36l-110 -324h-64l-135 436l-46 19v31h213v-31l-73 -19l83 -299l9 -33h2q4 16 10 33l116 357h48zM418 756h80v-19l-99 -186h-41z" />
    <glyph glyph-name="Wdieresis" unicode="&#x1e84;" horiz-adv-x="968" 
d="M645 -7l-160 469l-164 -469h-73l-186 613l-63 26v32h255v-32l-86 -26l140 -511l151 444l-22 67l-86 26v32h270v-34l-84 -24l163 -504l140 495l-104 33v34h233v-32l-66 -30l-184 -609h-74zM385 761q-23 0 -39.5 16.5t-16.5 39.5t16.5 40t39.5 17t40 -17t17 -40t-17 -39.5
t-40 -16.5zM606 761q-23 0 -40 16.5t-17 39.5t17 40t40 17t40 -17t17 -40t-17 -39.5t-40 -16.5z" />
    <glyph glyph-name="wdieresis" unicode="&#x1e85;" horiz-adv-x="739" 
d="M411 478l118 -357l10 -33h2q4 16 9 33l87 293l-74 25v31h173v-31l-46 -19l-136 -436h-60l-113 324l-11 36h-1l-11 -36l-110 -324h-64l-135 436l-46 19v31h213v-31l-73 -19l83 -299l9 -33h2q4 16 10 33l116 357h48zM286 606q-23 0 -39.5 16.5t-16.5 39.5t16.5 40t39.5 17
t40 -17t17 -40t-17 -39.5t-40 -16.5zM483 606q-23 0 -40 16.5t-17 39.5t17 40t40 17t40 -17t17 -40t-17 -39.5t-40 -16.5z" />
    <glyph glyph-name="Ygrave" unicode="&#x1ef2;" horiz-adv-x="630" 
d="M557 602l-193 -322v-224l94 -23v-33h-286v33l95 23v206l-196 344l-64 26v32h251v-32l-75 -26l155 -286h4l158 277l-94 33v34h217v-32zM193 875h93l79 -139h-52l-120 119v20z" />
    <glyph glyph-name="ygrave" unicode="&#x1ef3;" horiz-adv-x="498" 
d="M400 415l-69 25v30h168v-31l-46 -20l-222 -554q-25 -64 -47.5 -91t-58.5 -27q-25 0 -43.5 16t-18.5 40q0 23 14 36.5t36 13.5q30 0 49 -36h2l59 138l-177 465l-47 19v31h217v-31l-73 -19l124 -350h3zM258 551l-100 186v19h80l61 -205h-41z" />
    <glyph glyph-name="uni2009" unicode="&#x2009;" horiz-adv-x="90" 
 />
    <glyph glyph-name="endash" unicode="&#x2013;" horiz-adv-x="408" 
d="M4 267v51h400v-51h-400z" />
    <glyph glyph-name="emdash" unicode="&#x2014;" horiz-adv-x="808" 
d="M4 267v51h800v-51h-800z" />
    <glyph glyph-name="quoteleft" unicode="&#x2018;" horiz-adv-x="291" 
d="M213 791q-77 -57 -77 -127q0 -61 74 -77q7 -40 -9.5 -63t-50.5 -23q-32 0 -56.5 28t-24.5 81q0 64 34.5 119t90.5 87q17 -22 19 -25z" />
    <glyph glyph-name="quoteright" unicode="&#x2019;" horiz-adv-x="291" 
d="M78 508q77 57 77 127q0 61 -74 77q-7 40 9.5 63t50.5 23q32 0 56.5 -28t24.5 -81q0 -64 -34.5 -119t-90.5 -87q-17 22 -19 25z" />
    <glyph glyph-name="quotesinglbase" unicode="&#x201a;" horiz-adv-x="301" 
d="M69 -114q77 57 77 127q0 61 -74 77q-7 40 9.5 63t50.5 23q32 0 56.5 -28t24.5 -81q0 -64 -34.5 -119t-90.5 -87q-17 22 -19 25z" />
    <glyph glyph-name="quotedblleft" unicode="&#x201c;" horiz-adv-x="509" 
d="M213 791q-77 -57 -77 -127q0 -61 74 -77q7 -40 -9.5 -63t-50.5 -23q-32 0 -56.5 28t-24.5 81q0 64 34.5 119t90.5 87q17 -22 19 -25zM431 791q-77 -57 -77 -127q0 -61 74 -77q7 -40 -9.5 -63t-50.5 -23q-32 0 -56.5 28t-24.5 81q0 64 34.5 119t90.5 87q17 -22 19 -25z
" />
    <glyph glyph-name="quotedblright" unicode="&#x201d;" horiz-adv-x="509" 
d="M78 508q77 57 77 127q0 61 -74 77q-7 40 9.5 63t50.5 23q32 0 56.5 -28t24.5 -81q0 -64 -34.5 -119t-90.5 -87q-17 22 -19 25zM296 508q77 57 77 127q0 61 -74 77q-7 40 9.5 63t50.5 23q32 0 56.5 -28t24.5 -81q0 -64 -34.5 -119t-90.5 -87q-17 22 -19 25z" />
    <glyph glyph-name="quotedblbase" unicode="&#x201e;" horiz-adv-x="519" 
d="M69 -114q77 57 77 127q0 61 -74 77q-7 40 9.5 63t50.5 23q32 0 56.5 -28t24.5 -81q0 -64 -34.5 -119t-90.5 -87q-17 22 -19 25zM287 -114q77 57 77 127q0 61 -74 77q-7 40 9.5 63t50.5 23q32 0 56.5 -28t24.5 -81q0 -64 -34.5 -119t-90.5 -87q-17 22 -19 25z" />
    <glyph glyph-name="dagger" unicode="&#x2020;" horiz-adv-x="296" 
d="M15 570v54l108 -4l-5 113h59l-5 -113l109 4v-54l-110 4l6 -275l-59 -1l5 276z" />
    <glyph glyph-name="daggerdbl" unicode="&#x2021;" horiz-adv-x="296" 
d="M15 570v54l108 -4l-5 113h59l-5 -113l109 4v-54l-110 4v-112l110 4v-54l-109 4l5 -117l-59 -1l5 118l-108 -4v54l109 -4v112z" />
    <glyph glyph-name="bullet" unicode="&#x2022;" horiz-adv-x="339" 
d="M169 179q-37 0 -64.5 28t-27.5 65t27.5 64.5t64.5 27.5q38 0 65.5 -27t27.5 -65t-27.5 -65.5t-65.5 -27.5z" />
    <glyph glyph-name="ellipsis" unicode="&#x2026;" horiz-adv-x="707" 
d="M120 -4q-28 0 -48.5 21t-20.5 49t20.5 48.5t48.5 20.5t49 -20.5t21 -48.5t-21 -49t-49 -21zM353 -4q-28 0 -48.5 21t-20.5 49t20.5 48.5t48.5 20.5t49 -20.5t21 -48.5t-20.5 -49t-49.5 -21zM586 -4q-28 0 -48.5 21t-20.5 49t20.5 48.5t48.5 20.5t49 -20.5t21 -48.5
t-21 -49t-49 -21z" />
    <glyph glyph-name="perthousand" unicode="&#x2030;" horiz-adv-x="1285" 
d="M216 605q77 0 119 -52.5t42 -124.5q0 -81 -48.5 -134.5t-118.5 -53.5q-71 0 -115.5 48t-44.5 127q0 82 48.5 136t117.5 54zM209 564q-41 0 -63 -40t-22 -91q0 -62 24.5 -107t70.5 -45q40 0 62 40t22 92q0 64 -26.5 107.5t-67.5 43.5zM685 346q77 0 119 -52.5t42 -124.5
q0 -81 -48.5 -134.5t-118.5 -53.5q-71 0 -115.5 48t-44.5 127q0 82 48.5 136t117.5 54zM678 305q-41 0 -63 -40t-22 -91q0 -62 24.5 -107t70.5 -45q40 0 62 40t22 92q0 64 -26.5 107.5t-67.5 43.5zM1074 346q77 0 119 -52.5t42 -124.5q0 -81 -48.5 -134.5t-118.5 -53.5
q-71 0 -115.5 48t-44.5 127q0 82 48.5 136t117.5 54zM1067 305q-41 0 -63 -40t-22 -91q0 -62 24.5 -107t70.5 -45q40 0 62 40t22 92q0 64 -26.5 107.5t-67.5 43.5zM182 -50l470 680h59l-470 -680h-59z" />
    <glyph glyph-name="minute" unicode="&#x2032;" horiz-adv-x="287" 
d="M83 502l39 244h90v-8l-95 -236h-34z" />
    <glyph glyph-name="second" unicode="&#x2033;" horiz-adv-x="466" 
d="M83 502l39 244h90v-8l-95 -236h-34zM262 502l39 244h90v-8l-95 -236h-34z" />
    <glyph glyph-name="guilsinglleft" unicode="&#x2039;" horiz-adv-x="390" 
d="M272 461l28 -25l-140 -206l139 -196l-27 -26l-202 214v17z" />
    <glyph glyph-name="guilsinglright" unicode="&#x203a;" horiz-adv-x="390" 
d="M118 8l-28 25l139 206l-138 196l27 26l202 -214v-17z" />
    <glyph glyph-name="fraction" unicode="&#x2044;" horiz-adv-x="245" 
d="M-125 -86l-44 31l539 782l44 -29z" />
    <glyph glyph-name="Euro" unicode="&#x20ac;" horiz-adv-x="639" 
d="M38 327l5 44h75q30 109 116.5 171t193.5 62q54 0 101 -24t47 -59q0 -36 -47 -69q-33 56 -68.5 80t-84.5 24q-63 0 -110.5 -51t-62.5 -134h250l-5 -44h-250v-22q0 -28 3 -53h236l-5 -44h-224q19 -81 71 -124t126 -43q85 0 146 54l20 -22q-75 -96 -197 -96q-113 0 -180 64
t-83 167h-89l5 44h79v20q0 28 3 55h-71z" />
    <glyph glyph-name="trademark" unicode="&#x2122;" horiz-adv-x="834" 
d="M359 322v29l38 9v263l-38 10v31h144l84 -227h3l83 227h134v-31l-38 -10v-263l40 -9v-29h-150v30l43 9v266h-4l-94 -252l-11 -30h-41l-10 28l-98 254h-4v-263l52 -14v-28h-133zM34 664h291l5 -108h-27l-27 75h-62v-270l45 -10v-29h-158v29l46 10v270h-63l-27 -75h-27z" />
    <glyph glyph-name="onethird" unicode="&#x2153;" horiz-adv-x="951" 
d="M224 667v-347l100 -10v-34h-288v34l104 11v271h-110v30l188 45h6zM223 -86l-44 31l539 782l44 -29zM718 -18q-61 0 -94 20.5t-33 49.5q0 38 48 45l49 -68q23 -7 54 -7q40 0 67 19t27 56q0 40 -38 62.5t-111 18.5v33l17 5q106 31 106 88q0 20 -16.5 32t-42.5 12
q-39 0 -66 -14.5t-59 -43.5l-23 23q79 88 175 88q52 0 85 -21.5t33 -57.5q0 -30 -30.5 -56.5t-73.5 -42.5v-3q65 -7 96.5 -35.5t31.5 -64.5q0 -57 -60.5 -97.5t-141.5 -40.5z" />
    <glyph glyph-name="twothirds" unicode="&#x2154;" horiz-adv-x="974" 
d="M29 276v32l45 38q114 96 137 122q33 38 33 73q0 30 -22.5 51.5t-55.5 21.5q-56 0 -110 -59l-25 24q35 47 72.5 72.5t91.5 25.5q56 0 92 -29.5t37 -82.5q0 -12 -1.5 -23t-7 -22l-10 -19.5t-16 -20.5l-18 -19t-23.5 -21.5l-25 -21l-30 -24l-32 -25.5l-36 -29h224v-64h-320z
M258 -86l-44 31l539 782l44 -29zM741 -18q-61 0 -94 20.5t-33 49.5q0 38 48 45l49 -68q23 -7 54 -7q40 0 67 19t27 56q0 40 -38 62.5t-111 18.5v33l17 5q106 31 106 88q0 20 -16.5 32t-42.5 12q-39 0 -66 -14.5t-59 -43.5l-23 23q79 88 175 88q52 0 85 -21.5t33 -57.5
q0 -30 -30.5 -56.5t-73.5 -42.5v-3q65 -7 96.5 -35.5t31.5 -64.5q0 -57 -60.5 -97.5t-141.5 -40.5z" />
    <glyph glyph-name="oneeighth" unicode="&#x215b;" horiz-adv-x="968" 
d="M224 667v-347l100 -10v-34h-288v34l104 11v271h-110v30l188 45h6zM223 -86l-44 31l539 782l44 -29zM751 -18q-71 0 -117 28t-46 73q0 36 24.5 59t76.5 46v2q-79 36 -79 96q0 51 43.5 83t114.5 32q66 0 102.5 -27t36.5 -66q0 -55 -88 -93v-2q58 -23 80.5 -45.5t22.5 -60.5
q0 -53 -48.5 -89t-122.5 -36zM765 16q40 0 62.5 18.5t22.5 44.5q0 25 -18.5 41t-72.5 39l-40 17q-52 -30 -52 -80q0 -37 27 -58.5t71 -21.5zM789 226q43 28 43 73q0 31 -19.5 50t-54.5 19t-54.5 -17t-19.5 -40q0 -22 15.5 -37.5t62.5 -35.5z" />
    <glyph glyph-name="threeeighths" unicode="&#x215c;" horiz-adv-x="980" 
d="M163 258q-61 0 -94 20.5t-33 49.5q0 38 48 45l49 -68q23 -7 54 -7q40 0 67 19t27 56q0 40 -38 62.5t-111 18.5v33l17 5q106 31 106 88q0 20 -16.5 32t-42.5 12q-39 0 -66 -14.5t-59 -43.5l-23 23q79 88 175 88q52 0 85 -21.5t33 -57.5q0 -30 -30.5 -56.5t-73.5 -42.5v-3
q65 -7 96.5 -35.5t31.5 -64.5q0 -57 -60.5 -97.5t-141.5 -40.5zM241 -86l-44 31l539 782l44 -29zM763 -18q-71 0 -117 28t-46 73q0 36 24.5 59t76.5 46v2q-79 36 -79 96q0 51 43.5 83t114.5 32q66 0 102.5 -27t36.5 -66q0 -55 -88 -93v-2q58 -23 80.5 -45.5t22.5 -60.5
q0 -53 -48.5 -89t-122.5 -36zM777 16q40 0 62.5 18.5t22.5 44.5q0 25 -18.5 41t-72.5 39l-40 17q-52 -30 -52 -80q0 -37 27 -58.5t71 -21.5zM801 226q43 28 43 73q0 31 -19.5 50t-54.5 19t-54.5 -17t-19.5 -40q0 -22 15.5 -37.5t62.5 -35.5z" />
    <glyph glyph-name="fiveeighths" unicode="&#x215d;" horiz-adv-x="975" 
d="M157 258q-54 0 -86 18.5t-32 50.5q0 19 15 30.5t36 13.5l50 -65q14 -8 38 -8q50 0 77 22t27 58q0 41 -31.5 63t-78.5 22q-60 0 -98 -25h-11v227h267v-65h-225v-88q39 17 93 17q67 0 111 -31.5t44 -94.5q0 -65 -61 -105t-135 -40zM231 -86l-44 31l539 782l44 -29zM758 -18
q-71 0 -117 28t-46 73q0 36 24.5 59t76.5 46v2q-79 36 -79 96q0 51 43.5 83t114.5 32q66 0 102.5 -27t36.5 -66q0 -55 -88 -93v-2q58 -23 80.5 -45.5t22.5 -60.5q0 -53 -48.5 -89t-122.5 -36zM772 16q40 0 62.5 18.5t22.5 44.5q0 25 -18.5 41t-72.5 39l-40 17
q-52 -30 -52 -80q0 -37 27 -58.5t71 -21.5zM796 226q43 28 43 73q0 31 -19.5 50t-54.5 19t-54.5 -17t-19.5 -40q0 -22 15.5 -37.5t62.5 -35.5z" />
    <glyph glyph-name="seveneighths" unicode="&#x215e;" horiz-adv-x="920" 
d="M53 276l216 320h-241v69h316v-12l-217 -377h-74zM146 -86l-44 31l539 782l44 -29zM703 -18q-71 0 -117 28t-46 73q0 36 24.5 59t76.5 46v2q-79 36 -79 96q0 51 43.5 83t114.5 32q66 0 102.5 -27t36.5 -66q0 -55 -88 -93v-2q58 -23 80.5 -45.5t22.5 -60.5q0 -53 -48.5 -89
t-122.5 -36zM717 16q40 0 62.5 18.5t22.5 44.5q0 25 -18.5 41t-72.5 39l-40 17q-52 -30 -52 -80q0 -37 27 -58.5t71 -21.5zM741 226q43 28 43 73q0 31 -19.5 50t-54.5 19t-54.5 -17t-19.5 -40q0 -22 15.5 -37.5t62.5 -35.5z" />
    <glyph glyph-name="minus" unicode="&#x2212;" horiz-adv-x="558" 
d="M516 208h-474v58h474v-58z" />
    <glyph glyph-name="approxequal" unicode="&#x2248;" horiz-adv-x="558" 
d="M90 277l-45 18q46 99 123 99q28 0 76 -11l66 -16q69 -16 88 -16q24 0 39 14t32 45l45 -18q-23 -49 -52 -73t-72 -24q-38 0 -98 15l-65 17q-46 12 -66 12q-23 0 -38.5 -15.5t-32.5 -46.5zM90 117l-45 18q46 99 123 99q28 0 76 -11l66 -16q69 -16 88 -16q24 0 39 14t32 45
l45 -18q-23 -49 -52 -73t-72 -24q-38 0 -98 15l-65 17q-46 12 -66 12q-23 0 -38.5 -15.5t-32.5 -46.5z" />
    <glyph glyph-name="notequal" unicode="&#x2260;" horiz-adv-x="558" 
d="M42 293v55h296l99 110h61l-100 -110h118v-55h-167l-82 -91h249v-55h-299l-99 -110h-58l98 110h-116v55h166l81 91h-247z" />
    <glyph glyph-name="lessequal" unicode="&#x2264;" horiz-adv-x="558" 
d="M514 458l-384 -143l384 -142v-67l-472 180v59l472 180v-67zM514 0h-472v58h472v-58z" />
    <glyph glyph-name="greaterequal" unicode="&#x2265;" horiz-adv-x="558" 
d="M426 315l-384 143v67l472 -180v-59l-472 -180v67zM514 0h-472v58h472v-58z" />
    <glyph glyph-name="Pcircle" unicode="&#x24c5;" horiz-adv-x="811" 
d="M60 327q0 145 101 245.5t244 100.5q144 0 245 -101t101 -245t-101 -244.5t-245 -100.5t-244.5 100.5t-100.5 244.5zM93 327q0 -131 91.5 -223t220.5 -92t220.5 92t91.5 223t-91.5 223t-220.5 92t-220.5 -92t-91.5 -223zM412 310q113 8 113 90q0 41 -37 65.5t-110 24.5
v-310l78 -14v-27h-200v27l53 14v296l-53 15v27h146q94 1 146 -29t52 -82q0 -61 -57.5 -93t-130.5 -29v25z" />
    <glyph glyph-name="space_uni0326" horiz-adv-x="400" 
d="M121 -267l-8 27q92 29 92 73q0 20 -18.5 32.5t-45.5 14.5v2q8 55 68 55q33 0 51 -20t18 -51q0 -93 -157 -133z" />
    <glyph glyph-name="caron.alt" horiz-adv-x="400" 
d="M186 536h-29l15 210h89v-8z" />
    <glyph glyph-name="space_uni0326.alt" horiz-adv-x="400" 
d="M286 793l8 -27q-92 -29 -92 -73q0 -20 18.5 -32.5t45.5 -14.5v-2q-8 -55 -68 -55q-33 0 -51 20t-18 51q0 93 157 133z" />
    <glyph glyph-name="grave.uc" horiz-adv-x="400" 
d="M92 875h93l79 -139h-52l-120 119v20z" />
    <glyph glyph-name="dieresis.uc" horiz-adv-x="400" 
d="M89 761q-23 0 -39.5 16.5t-16.5 39.5t16.5 40t39.5 17t40 -17t17 -40t-17 -39.5t-40 -16.5zM310 761q-23 0 -40 16.5t-17 39.5t17 40t40 17t40 -17t17 -40t-17 -39.5t-40 -16.5z" />
    <glyph glyph-name="macron.uc" horiz-adv-x="400" 
d="M55 782v60h290v-60h-290z" />
    <glyph glyph-name="acute.uc" horiz-adv-x="400" 
d="M215 875h93v-20l-120 -119h-52z" />
    <glyph glyph-name="circumflex.uc" horiz-adv-x="400" 
d="M85 736h-45l111 129h97l111 -129h-47l-114 78z" />
    <glyph glyph-name="caron.uc" horiz-adv-x="400" 
d="M314 865h45l-111 -129h-97l-111 129h47l114 -78z" />
    <glyph glyph-name="breve.uc" horiz-adv-x="400" 
d="M195 732q-72 0 -105 39t-30 94h29q16 -69 111 -69t111 69h29q4 -53 -34 -93t-111 -40z" />
    <glyph glyph-name="dotaccent.uc" horiz-adv-x="400" 
d="M200 755q-26 0 -44 18.5t-18 43.5t18 43.5t44 18.5t44 -18.5t18 -43.5t-18 -43.5t-44 -18.5z" />
    <glyph glyph-name="ring.uc" horiz-adv-x="400" 
d="M83 817q0 48 34 81t83 33q50 0 83.5 -32.5t33.5 -81.5q0 -48 -34 -81t-83 -33q-50 0 -83.5 32.5t-33.5 81.5zM129 817q0 -32 20.5 -52.5t50.5 -20.5t50.5 20.5t20.5 52.5t-20.5 52.5t-50.5 20.5t-50.5 -20.5t-20.5 -52.5z" />
    <glyph glyph-name="tilde.uc" horiz-adv-x="400" 
d="M219 754l-42 18q-50 25 -73.5 21.5t-43.5 -50.5l-30 13l5 13q28 70 64 87t84 -6l52 -21q38 -19 60.5 -10.5t43.5 57.5l30 -13l-5 -13q-29 -76 -62.5 -97.5t-82.5 1.5z" />
    <glyph glyph-name="hungarumlaut.uc" horiz-adv-x="400" 
d="M143 875h80v-19l-104 -120h-52zM284 875h80v-19l-104 -120h-52z" />
    <glyph glyph-name="cedilla.uc" horiz-adv-x="400" 
d="M122 -257l-5 29q27 8 42.5 14.5t32 22t16.5 36.5q0 38 -53 58l63 101h38l-40 -67q33 -2 54 -20.5t21 -47.5q0 -30 -17 -53.5t-45.5 -37.5t-53.5 -22t-53 -13z" />
    <glyph glyph-name="idotaccent" horiz-adv-x="279" 
d="M31 0v34l67 22v342l-59 21v35l142 29v-428l75 -21v-34h-225zM133 624q-25 0 -43.5 18t-18.5 43t18.5 43t43.5 18q24 0 42.5 -18t18.5 -43t-18.5 -43t-42.5 -18z" />
    <glyph glyph-name="dollar.lin" horiz-adv-x="521" 
d="M240 -125v120h-1q-49 0 -105.5 14.5t-91.5 36.5l-13 169h38l55 -138q51 -37 118 -38v258l-54 14q-147 37 -147 164q0 75 56.5 126t144.5 63v120h41v-117h1q44 0 91 -12.5t73 -27.5l6 -158h-34l-51 130q-38 23 -86 26v-242l64 -17q145 -41 145 -162q0 -78 -63.5 -134.5
t-145.5 -70.5v-124h-41zM293 284l-12 3v-245q49 9 79.5 41.5t30.5 82.5q0 94 -98 118zM131 509q0 -85 94 -110l15 -4v228q-49 -8 -79 -39t-30 -75z" />
    <glyph glyph-name="Euro.lin" horiz-adv-x="639" 
d="M38 362l5 44h74q30 127 122.5 201.5t207.5 74.5q62 0 111.5 -28.5t49.5 -63.5q0 -37 -47 -70q-35 59 -71.5 86.5t-91.5 27.5q-68 0 -122.5 -63.5t-70.5 -164.5h248l-5 -44h-248v-23q0 -33 3 -62h234l-5 -44h-223q19 -94 73.5 -141.5t137.5 -47.5q89 0 151 59l23 -23
q-76 -103 -206 -103q-122 0 -191.5 71t-85.5 185h-89l5 44h79v25q0 33 4 60h-72z" />
    <glyph glyph-name="sterling.lin" horiz-adv-x="632" 
d="M124 260v44h119l37 166q29 132 96 195.5t134 63.5q42 0 76 -28.5t34 -72.5q0 -16 -22.5 -32t-53.5 -19q-18 109 -71 109q-24 0 -44 -34t-42 -129l-50 -219h193v-44h-203l-1 -7q-33 -146 -144 -221q67 -26 111 -51l34 -18q87 -47 118 -60.5t48 -13.5q33 0 42.5 50.5
t-1.5 84.5q77 5 77 -46q0 -42 -45 -90t-116 -48q-22 0 -47 5.5t-42 11t-47 21.5l-40.5 21.5t-47 28t-42.5 26.5l-71 43q-45 -16 -79 -16q-49 0 -49 42q0 18 16.5 31t41.5 13q38 0 96 -20q58 49 77 134l17 79h-109z" />
    <glyph glyph-name="yen.lin" horiz-adv-x="610" 
d="M80 258v44h179l-175 304l-64 26v32h251v-32l-75 -26l131 -258h4l136 249l-94 33v34h217v-32l-66 -30l-173 -298v-2h178v-44h-178v-75h178v-44h-178v-83l95 -23v-33h-282v33l96 23v83h-180v44h180v75h-180z" />
    <glyph glyph-name="florin.lin" horiz-adv-x="456" 
d="M37 273l6 44h89l8 38q27 136 104.5 230t165.5 94q33 0 50 -16t17 -38q0 -25 -31 -64q-21 23 -31.5 33t-28.5 20.5t-34 10.5q-15 0 -27.5 -9.5t-29.5 -38t-36.5 -94t-40.5 -166.5h131l-10 -44h-130l-53 -258q-14 -68 -38 -120.5t-48.5 -81t-52 -46t-46.5 -22.5t-36 -5
q-22 0 -44 15.5t-22 41.5q0 13 7.5 28t17.5 22q63 -58 90 -58q26 0 41.5 35.5t31.5 114.5l66 334h-86z" />
    <glyph glyph-name="zero.lin" horiz-adv-x="659" 
d="M329 681q88 0 150 -51t89 -126t27 -164q0 -163 -75 -260.5t-191 -97.5q-115 0 -190 94.5t-75 245.5q0 164 74.5 261.5t190.5 97.5zM325 637q-54 0 -92 -46t-53.5 -108t-15.5 -130q0 -77 18 -149.5t59 -126t97 -53.5q52 0 89 46t53 110t16 135q0 82 -22 155.5t-62 120
t-87 46.5z" />
    <glyph glyph-name="one.lin" horiz-adv-x="432" 
d="M272 682v-625l113 -20v-37h-320v37l116 19v519l-118 -31l-12 41l211 97h10z" />
    <glyph glyph-name="two.lin" horiz-adv-x="505" 
d="M227 170l-95 -88h344v-82h-437v49l44 45l75 75l69.5 68t54.5 58.5t45 59t25 55t10 61.5q-1 60 -39.5 95.5t-89.5 35.5q-42 0 -77 -24.5t-74 -73.5l-32 22q87 155 215 155q87 0 138.5 -49t53.5 -124q1 -36 -11.5 -72t-26 -60.5t-50 -65t-55 -58.5l-70.5 -66
q-11 -11 -17 -16z" />
    <glyph glyph-name="three.lin" horiz-adv-x="496" 
d="M226 28q57 0 97 36t40 95q0 74 -64.5 115.5t-160.5 41.5v46q186 66 186 161q0 38 -26 62t-69 24q-66 0 -149 -78l-26 29q47 58 95.5 89.5t110.5 31.5q72 0 114.5 -38t42.5 -98q0 -29 -10.5 -53t-36 -46t-42 -33t-54.5 -33l-15 -9v-3q76 -11 134 -57.5t58 -116.5
q0 -86 -79.5 -148t-176.5 -62q-64 0 -105.5 25t-41.5 64q0 25 17 38.5t42 15.5l71 -92q23 -7 48 -7z" />
    <glyph glyph-name="four.lin" horiz-adv-x="579" 
d="M413 661v-414h137v-66h-137v-125l85 -24v-32h-261v33l85 23v125h-279v38l338 450zM114 247h208v280z" />
    <glyph glyph-name="five.lin" horiz-adv-x="500" 
d="M422 576h-304v-176q55 26 114 26q101 0 163 -55.5t62 -148.5q0 -102 -83 -170t-181 -68q-62 0 -104.5 25.5t-42.5 63.5q0 25 17 38.5t42 15.5l72 -93q22 -5 42 -5q68 0 108.5 43t40.5 115q0 67 -43.5 113.5t-120.5 46.5q-65 0 -122 -33h-7v350h347v-88z" />
    <glyph glyph-name="six.lin" horiz-adv-x="586" 
d="M496 667q-44 -15 -87 -39t-90.5 -60.5t-85.5 -90t-56 -115.5q73 59 158 59q82 0 141 -57.5t59 -152.5q0 -72 -36.5 -126t-88 -79.5t-105.5 -25.5q-111 0 -176.5 70t-65.5 181q0 86 28.5 160.5t72.5 125t102 90t112.5 61.5t108.5 34zM292 360q-66 0 -125 -42
q-6 -36 -6 -74q0 -97 40.5 -158.5t117.5 -61.5q54 0 88 42.5t34 106.5q0 82 -41.5 134.5t-107.5 52.5z" />
    <glyph glyph-name="seven.lin" horiz-adv-x="464" 
d="M154 0h-83l295 576h-346v88h429v-13z" />
    <glyph glyph-name="eight.lin" horiz-adv-x="537" 
d="M48 154q0 17 4.5 33t9 28t17 26l19 21t24.5 20t24.5 17l28 17.5t25.5 15.5l-12 8q-57 36 -85.5 75t-28.5 92q0 73 61.5 123.5t155.5 50.5q78 0 128.5 -39.5t50.5 -104.5q0 -100 -135 -190h1q79 -49 114.5 -89.5t35.5 -93.5q0 -83 -64.5 -133.5t-159.5 -50.5
q-93 0 -153.5 48.5t-60.5 125.5zM270 289l-40 24q-49 -39 -68 -71.5t-19 -79.5q0 -52 36.5 -97.5t101.5 -45.5q59 0 88.5 34.5t29.5 76.5q0 49 -32 84t-97 75zM159 528q0 -41 19 -68.5t58 -50.5l64 -40q81 73 81 159q0 54 -30 83t-79 29t-81 -31.5t-32 -80.5z" />
    <glyph glyph-name="nine.lin" horiz-adv-x="585" 
d="M91 5q42 16 81.5 36.5t88 55.5t87 87t57.5 115q-66 -58 -141 -58q-93 0 -154.5 57t-61.5 153q0 72 36.5 126t88 79.5t105.5 25.5q110 0 176.5 -73t66.5 -182q0 -84 -27.5 -155.5t-70 -120t-100.5 -87t-112 -60t-111 -34.5zM302 302q58 0 113 41q7 42 7 75
q0 102 -38.5 161.5t-116.5 59.5q-55 0 -90 -45t-35 -115q0 -76 43.5 -126.5t116.5 -50.5z" />
    <glyph glyph-name="percent.lin" horiz-adv-x="896" 
d="M243 681q77 0 120 -52.5t43 -124.5q0 -81 -49.5 -134.5t-119.5 -53.5q-71 0 -116.5 48t-45.5 127q0 82 49 136t119 54zM155 -50l531 765h62l-531 -765h-62zM236 640q-41 0 -62 -40t-21 -91q0 -62 24 -107t69 -45q40 0 61 40t21 92q0 64 -26 107.5t-66 43.5zM660 346
q77 0 120 -52.5t43 -124.5q0 -81 -49.5 -134.5t-119.5 -53.5q-71 0 -116.5 48t-45.5 127q0 82 49 136t119 54zM653 305q-41 0 -62 -40t-21 -91q0 -62 24 -107t69 -45q40 0 61 40t21 92q0 64 -26 107.5t-66 43.5z" />
    <glyph glyph-name="perthousand.lin" horiz-adv-x="1299" 
d="M243 681q77 0 120 -52.5t43 -124.5q0 -81 -49.5 -134.5t-119.5 -53.5q-71 0 -116.5 48t-45.5 127q0 82 49 136t119 54zM155 -50l531 765h62l-531 -765h-62zM236 640q-41 0 -62 -40t-21 -91q0 -62 24 -107t69 -45q40 0 61 40t21 92q0 64 -26 107.5t-66 43.5zM660 346
q77 0 120 -52.5t43 -124.5q0 -81 -49.5 -134.5t-119.5 -53.5q-71 0 -116.5 48t-45.5 127q0 82 49 136t119 54zM653 305q-41 0 -62 -40t-21 -91q0 -62 24 -107t69 -45q40 0 61 40t21 92q0 64 -26 107.5t-66 43.5zM1063 346q77 0 120 -52.5t43 -124.5q0 -81 -49.5 -134.5
t-119.5 -53.5q-71 0 -116.5 48t-45.5 127q0 82 49 136t119 54zM1056 305q-41 0 -62 -40t-21 -91q0 -62 24 -107t69 -45q40 0 61 40t21 92q0 64 -26 107.5t-66 43.5z" />
    <glyph glyph-name="plus.lin" horiz-adv-x="558" 
d="M516 268h-206v-208h-62v208h-206v58h206v208h62v-208h206v-58z" />
    <glyph glyph-name="minus.lin" horiz-adv-x="558" 
d="M516 268h-474v58h474v-58z" />
    <glyph glyph-name="multiply.lin" horiz-adv-x="558" 
d="M458 72l-183 184l-180 -184l-41 41l183 184l-183 183l43 43l182 -183l183 188l40 -41l-183 -187l183 -185z" />
    <glyph glyph-name="divide.lin" horiz-adv-x="558" 
d="M516 268h-474v58h474v-58zM278 56q-28 0 -48.5 21t-20.5 49t20.5 48.5t48.5 20.5t49 -20.5t21 -48.5t-21 -49t-49 -21zM279 398q-28 0 -48.5 21t-20.5 49t20.5 48.5t48.5 20.5t49 -20.5t21 -48.5t-20.5 -49t-49.5 -21z" />
    <glyph glyph-name="equal.lin" horiz-adv-x="558" 
d="M42 353v55h474v-55h-474zM42 207v55h474v-55h-474z" />
    <glyph glyph-name="less.lin" horiz-adv-x="558" 
d="M514 478l-400 -183l400 -180v-69l-472 220v59l472 220v-67z" />
    <glyph glyph-name="greater.lin" horiz-adv-x="558" 
d="M43 113l400 183l-400 180v69l472 -220v-59l-472 -220v67z" />
    <glyph glyph-name="plusminus.lin" horiz-adv-x="557" 
d="M516 399h-206v-208h-62v208h-206v58h206v208h62v-208h206v-58zM516 0h-474v58h474v-58z" />
    <glyph glyph-name="notequal.lin" horiz-adv-x="558" 
d="M42 353v55h296l99 110h61l-100 -110h118v-55h-167l-82 -91h249v-55h-299l-99 -110h-58l98 110h-116v55h166l81 91h-247z" />
    <glyph glyph-name="approxequal.lin" horiz-adv-x="558" 
d="M90 337l-45 18q46 99 123 99q28 0 76 -11l66 -16q69 -16 88 -16q24 0 39 14t32 45l45 -18q-23 -49 -52 -73t-72 -24q-38 0 -98 15l-65 17q-46 12 -66 12q-23 0 -38.5 -15.5t-32.5 -46.5zM90 177l-45 18q46 99 123 99q28 0 76 -11l66 -16q69 -16 88 -16q24 0 39 14t32 45
l45 -18q-23 -49 -52 -73t-72 -24q-38 0 -98 15l-65 17q-46 12 -66 12q-23 0 -38.5 -15.5t-32.5 -46.5z" />
    <glyph glyph-name="lessequal.lin" horiz-adv-x="558" 
d="M514 518l-384 -143l384 -142v-67l-472 180v59l472 180v-67zM514 0h-472v58h472v-58z" />
    <glyph glyph-name="greaterequal.lin" horiz-adv-x="558" 
d="M426 375l-384 143v67l472 -180v-59l-472 -180v67zM514 0h-472v58h472v-58z" />
    <glyph glyph-name="numbersign.lin" horiz-adv-x="593" 
d="M82 423v58h110l27 153h58l-27 -153h147l27 153h58l-27 -153h106v-58h-117l-30 -174h103v-58h-114l-26 -151h-58l26 151h-147l-26 -151h-58l26 151h-102v58h113l30 174h-99zM239 423l-30 -174h147l30 174h-147z" />
    <glyph glyph-name="ordfeminine.lin" horiz-adv-x="427" 
d="M140 288q-38 0 -69 25.5t-31 69.5q0 46 32 71t100 42l86 22v37q-1 43 -22 68t-55 25q-31 0 -50 -13l-3 -79q-5 -5 -36 -5q-40 0 -40 37q0 31 49.5 63.5t111.5 32.5q64 0 92.5 -29.5t28.5 -91.5v-203q0 -14 5.5 -19t22.5 -5h40v-24q-49 -22 -81 -22q-59 0 -61 63h-6
q-4 -3 -12 -11l-11 -11t-10 -9t-10.5 -8.5l-10 -7.5t-10.5 -6.5t-10.5 -4.5t-12 -4t-12.5 -2t-15 -1zM183 346q44 0 75 37v107l-75 -23q-63 -21 -63 -60q0 -28 18.5 -44.5t44.5 -16.5z" />
    <glyph glyph-name="ordmasculine.lin" horiz-adv-x="454" 
d="M115 498q1 -73 32 -125t90 -51q48 1 75.5 43t26.5 106q-1 81 -34.5 128.5t-87.5 46.5q-48 -1 -75.5 -42.5t-26.5 -105.5zM227 283q-91 0 -142 56t-51 138q0 86 56 146.5t137 60.5q89 0 141 -51.5t52 -141.5q0 -87 -56 -147.5t-137 -60.5z" />
    <glyph glyph-name="dollar.tab" 
d="M287 -125v114h-1q-49 0 -105.5 14t-91.5 36l-13 166h38l55 -136q53 -36 118 -37v252l-51 13q-145 39 -145 163q0 66 53.5 120t142.5 66v138h41v-135h1q44 0 90.5 -12t73.5 -27l6 -155h-34l-51 127q-38 23 -86 26v-237l61 -16q143 -39 143 -158q0 -75 -62.5 -132
t-141.5 -72v-118h-41zM341 271l-13 3v-239q49 9 80 40.5t31 80.5q0 93 -98 115zM176 492q0 -80 96 -105l15 -4v223q-49 -8 -80 -39.5t-31 -74.5z" />
    <glyph glyph-name="Euro.tab" 
d="M38 327l5 44h70q30 109 116.5 171t193.5 62q54 0 101 -24t47 -59q0 -36 -47 -69q-33 56 -68.5 80t-84.5 24q-63 0 -110.5 -51t-62.5 -134h250l-5 -44h-250v-22q0 -28 3 -53h236l-5 -44h-224q19 -81 71 -124t126 -43q84 0 146 54l20 -22q-75 -96 -197 -96q-113 0 -180 64
t-83 167h-84l5 44h74v20q0 28 3 55h-66z" />
    <glyph glyph-name="sterling.tab" 
d="M110 255v44h131l30 112q30 111 103.5 176.5t125.5 65.5q39 0 69.5 -26.5t30.5 -69.5q0 -17 -18 -30t-48 -16q-17 99 -65 99q-49 0 -96 -163l-40 -148h168v-44h-180l-3 -14q-39 -145 -145 -217q68 -25 117 -50l51 -26l46.5 -24l36.5 -19t24 -12t21 -8t16 -2q46 0 32 133
q70 0 70 -46q0 -43 -41 -86.5t-109 -43.5q-111 0 -265 116l-52 39q-35 -14 -65 -14q-48 0 -48 38q0 17 14.5 27t35.5 10q22 0 81 -19q40 31 65 120l26 98h-119z" />
    <glyph glyph-name="yen.tab" 
d="M85 248v44h171l-169 286l-64 26v32h251v-32l-75 -26l126 -229h4l131 220l-94 33v34h217v-32l-66 -30l-169 -281v-1h172v-44h-172v-75h172v-44h-172v-73l97 -23v-33h-284v33l98 23v73h-174v44h174v75h-174z" />
    <glyph glyph-name="florin.tab" 
d="M106 273l6 44h131q33 123 106 205t155 82q33 0 50 -16t17 -38q0 -25 -31 -64q-21 23 -31.5 33t-28.5 20.5t-34 10.5q-14 0 -25 -7.5t-26.5 -29.5t-32 -71.5t-34.5 -124.5h150l-10 -44h-150l-6 -31l-47 -227q-14 -68 -38 -120.5t-48.5 -81t-52 -46t-46.5 -22.5t-36 -5
q-22 0 -44 15.5t-22 41.5q0 13 7.5 28t17.5 22q63 -58 90 -58q26 0 41.5 35.5t31.5 114.5l66 334h-126z" />
    <glyph glyph-name="zero.tab" 
d="M153 264q0 -62 15.5 -114t54.5 -89t96 -37q55 0 91.5 55.5t36.5 152.5q0 107 -47 172t-116 65q-57 0 -94 -59t-37 -146zM304 -19q-112 0 -181 72.5t-69 193.5q0 106 73 186.5t172 80.5q114 0 180.5 -74.5t66.5 -192.5q0 -107 -71 -186.5t-171 -79.5z" />
    <glyph glyph-name="one.tab" 
d="M367 508v-450l141 -16v-42h-386v42l158 15v367h-150v42l233 42h4z" />
    <glyph glyph-name="two.tab" 
d="M276 128l-66 -56h283v-72h-401v25l42 36q136 117 183.5 170t47.5 107q0 46 -28.5 75.5t-74.5 29.5q-69 0 -131 -71l-28 20q81 122 192 122q73 0 115 -40t42 -99q0 -58 -43.5 -114.5t-132.5 -132.5z" />
    <glyph glyph-name="three.tab" 
d="M197 -204q-43 0 -71.5 16t-28.5 45q0 32 43 44l74 -62q75 0 122 42t47 105q0 67 -60 110t-148 37v42l43 22q136 69 136 162q0 39 -27 62t-72 23q-74 0 -121 -66l-28 20q32 51 81.5 83.5t107.5 32.5q73 0 111.5 -36.5t38.5 -84.5q0 -50 -27.5 -88t-87.5 -83l-31 -23v-3
q72 -10 122 -56t50 -120q0 -90 -89.5 -157t-184.5 -67z" />
    <glyph glyph-name="four.tab" 
d="M335 -195v210h-312v30l374 468h23v-440h139v-58h-139v-210h-85zM99 73h236v303z" />
    <glyph glyph-name="five.tab" 
d="M166 -204q-34 0 -62 17t-28 48q0 35 43 47l76 -69q76 8 124.5 54.5t48.5 113.5q0 64 -48.5 126t-190.5 144l94 224h261v-83h-254l-31 -78q256 -117 256 -286q0 -104 -91 -181t-198 -77z" />
    <glyph glyph-name="six.tab" 
d="M551 659q-118 -46 -213.5 -128t-138.5 -180q64 56 148 56q66 0 120 -50.5t54 -141.5q0 -102 -66.5 -168.5t-157.5 -66.5q-97 0 -162 62t-65 176q0 161 136 290.5t335 185.5zM284 349q-55 0 -100 -38q-14 -48 -14 -93q0 -89 40 -143t90 -54q57 0 89.5 40t32.5 109
q0 85 -39 132t-99 47z" />
    <glyph glyph-name="seven.tab" 
d="M163 -205l-70 29l375 589h-370v88h458v-9l-316 -552z" />
    <glyph glyph-name="eight.tab" 
d="M84 151q0 51 36.5 91.5t118.5 87.5l-37 28q-92 67 -92 151q0 71 60.5 121.5t148.5 50.5q76 0 128.5 -42t52.5 -105q0 -97 -134 -187l19 -13q63 -45 96.5 -85.5t33.5 -89.5q0 -81 -63.5 -130t-149.5 -49q-95 0 -156.5 47.5t-61.5 123.5zM298 286l-30 22q-51 -40 -72 -73.5
t-21 -81.5q0 -49 33.5 -91t95.5 -42q60 0 92.5 31t32.5 74q0 23 -9 43.5t-32.5 43.5t-38.5 35zM196 540q0 -71 94 -136l48 -35q75 71 75 150q0 56 -31.5 89t-77.5 33q-44 0 -76 -29t-32 -72z" />
    <glyph glyph-name="nine.tab" 
d="M65 -171q110 47 202.5 123.5t132.5 180.5q-60 -53 -130 -53q-87 0 -141.5 57.5t-54.5 142.5q0 93 60.5 162.5t162.5 69.5q96 0 162.5 -63.5t66.5 -169.5q0 -116 -63.5 -216.5t-164 -167t-225.5 -100.5zM312 140q58 0 101 37q11 42 11 88q0 100 -39.5 153t-99.5 53
q-51 0 -83 -40t-32 -116q0 -78 40 -126.5t102 -48.5z" />
    <glyph glyph-name="cent.tab" 
d="M272 -125l9 112q-80 12 -131 71t-51 160q0 105 67.5 177t157.5 85l12 132h41l-12 -129q58 -2 97 -30.5t39 -69.5q0 -47 -51 -47l-31 3l-10 85q-30 15 -47 17l-34 -386q18 -3 37 -3q30 0 59.5 16t44.5 32l15 17l20 -13q-2 -5 -5.5 -13t-18.5 -28.5t-34 -36.5t-52 -29
t-72 -13l-9 -109h-41zM187 257q0 -63 26.5 -113.5t74.5 -74.5l33 372q-57 -8 -95.5 -60t-38.5 -124z" />
    <glyph glyph-name="percent.tab" horiz-adv-x="900" 
d="M226 605q73 0 113 -52.5t40 -124.5q0 -81 -46 -134.5t-113 -53.5t-109.5 48t-42.5 127q0 82 46 136t112 54zM184 -50l470 680h59l-470 -680h-59zM219 564q-39 0 -60 -40t-21 -91q0 -62 23.5 -107t67.5 -45q38 0 59 40t21 92q0 64 -25.5 107.5t-64.5 43.5zM679 346
q73 0 113 -52.5t40 -124.5q0 -81 -46.5 -134.5t-112.5 -53.5q-67 0 -109.5 48t-42.5 127q0 82 46 136t112 54zM672 305q-39 0 -60 -40t-21 -91q0 -62 23.5 -107t67.5 -45q38 0 58.5 40t20.5 92q0 64 -25 107.5t-64 43.5z" />
    <glyph glyph-name="perthousand.tab" horiz-adv-x="1200" 
d="M182 605q73 0 113 -52.5t40 -124.5q0 -81 -46.5 -134.5t-112.5 -53.5q-67 0 -109.5 48t-42.5 127q0 82 46 136t112 54zM140 -50l470 680h59l-470 -680h-59zM175 564q-39 0 -60 -40t-21 -91q0 -62 23.5 -107t67.5 -45q38 0 58.5 40t20.5 92q0 64 -25 107.5t-64 43.5z
M635 346q73 0 113 -52.5t40 -124.5q0 -81 -46.5 -134.5t-112.5 -53.5q-67 0 -109.5 48t-42.5 127q0 82 46 136t112 54zM628 305q-39 0 -60 -40t-21 -91q0 -62 23.5 -107t67.5 -45q38 0 58.5 40t20.5 92q0 64 -25 107.5t-64 43.5zM1004 346q73 0 113 -52.5t40 -124.5
q0 -81 -46 -134.5t-112 -53.5q-68 0 -110 48t-42 127q0 82 45.5 136t111.5 54zM998 305q-39 0 -60 -40t-21 -91q0 -62 23 -107t67 -45q38 0 59 40t21 92q0 64 -25 107.5t-64 43.5z" />
    <glyph glyph-name="plus.tab" 
d="M537 208h-206v-208h-62v208h-206v58h206v208h62v-208h206v-58z" />
    <glyph glyph-name="minus.tab" 
d="M537 208h-474v58h474v-58z" />
    <glyph glyph-name="multiply.tab" 
d="M481 12l-183 184l-180 -184l-41 41l183 184l-183 183l43 43l182 -183l183 188l40 -41l-183 -187l183 -185z" />
    <glyph glyph-name="divide.tab" 
d="M537 208h-474v58h474v-58zM299 -4q-28 0 -48.5 21t-20.5 49t20.5 48.5t48.5 20.5t49 -20.5t21 -48.5t-20.5 -49t-49.5 -21zM300 338q-28 0 -48.5 21t-20.5 49t20.5 48.5t48.5 20.5t49 -20.5t21 -48.5t-21 -49t-49 -21z" />
    <glyph glyph-name="equal.tab" 
d="M63 293v55h474v-55h-474zM63 147v55h474v-55h-474z" />
    <glyph glyph-name="less.tab" 
d="M535 418l-400 -183l400 -180v-69l-472 220v59l472 220v-67z" />
    <glyph glyph-name="greater.tab" 
d="M64 53l400 183l-400 180v69l472 -220v-59l-472 -220v67z" />
    <glyph glyph-name="plusminus.tab" 
d="M537 338h-206v-208h-62v208h-206v58h206v208h62v-208h206v-58zM537 0h-474v58h474v-58z" />
    <glyph glyph-name="notequal.tab" 
d="M63 293v55h296l99 110h61l-100 -110h118v-55h-167l-82 -91h249v-55h-299l-99 -110h-58l98 110h-116v55h166l81 91h-247z" />
    <glyph glyph-name="approxequal.tab" 
d="M111 277l-45 18q46 99 123 99q28 0 76 -11l66 -16q69 -16 88 -16q24 0 39 14t32 45l45 -18q-23 -49 -52 -73t-72 -24q-38 0 -98 15l-65 17q-46 12 -66 12q-23 0 -38.5 -15.5t-32.5 -46.5zM111 117l-45 18q46 99 123 99q28 0 76 -11l66 -16q69 -16 88 -16q24 0 39 14
t32 45l45 -18q-23 -49 -52 -73t-72 -24q-38 0 -98 15l-65 17q-46 12 -66 12q-23 0 -38.5 -15.5t-32.5 -46.5z" />
    <glyph glyph-name="lessequal.tab" 
d="M535 458l-384 -143l384 -142v-67l-472 180v59l472 180v-67zM535 0h-472v58h472v-58z" />
    <glyph glyph-name="greaterequal.tab" 
d="M447 315l-384 143v67l472 -180v-59l-472 -180v67zM535 0h-472v58h472v-58z" />
    <glyph glyph-name="parenleft.tab" horiz-adv-x="300" 
d="M341 -180h-55q-191 202 -191 453q0 253 196 459h54q-86 -110 -125.5 -215.5t-39.5 -243.5q0 -133 38.5 -238.5t122.5 -214.5z" />
    <glyph glyph-name="parenright.tab" horiz-adv-x="300" 
d="M-41 732h55q191 -202 191 -453q0 -253 -196 -459h-54q86 110 125.5 215.5t39.5 243.5q0 133 -38.5 238.5t-122.5 214.5z" />
    <glyph glyph-name="bracketleft.tab" horiz-adv-x="300" 
d="M287 -181h-182v914h182v-39h-100v-836h100v-39z" />
    <glyph glyph-name="bracketright.tab" horiz-adv-x="300" 
d="M13 733h182v-914h-182v39h100v836h-100v39z" />
    <glyph glyph-name="braceleft.tab" horiz-adv-x="300" 
d="M128 277v-2q43 -17 62.5 -42t22.5 -73l10 -176q4 -83 23.5 -108t76.5 -25v-32h-15q-101 0 -137.5 42t-35.5 133l1 174q0 39 -19 61t-51 23l-38 1v46l38 1q32 1 51 23t19 61l-1 174q-1 91 35.5 133t137.5 42h15v-32q-57 0 -76.5 -25t-23.5 -108l-10 -176q-3 -48 -22.5 -73
t-62.5 -42z" />
    <glyph glyph-name="braceright.tab" horiz-adv-x="300" 
d="M177 275v2q-43 17 -62.5 42t-22.5 73l-10 176q-4 83 -23.5 108t-76.5 25v32h15q101 0 137.5 -42t35.5 -133l-1 -174q0 -39 19 -61t51 -23l38 -1v-46l-38 -1q-32 -1 -51 -23t-19 -61l1 -174q1 -91 -35.5 -133t-137.5 -42h-15v32q57 0 76.5 25t23.5 108l10 176
q3 48 22.5 73t62.5 42z" />
    <glyph glyph-name="numbersign.tab" 
d="M86 383v58h110l27 153h58l-27 -153h147l27 153h58l-27 -153h106v-58h-117l-30 -174h103v-58h-114l-26 -151h-58l26 151h-147l-26 -151h-58l26 151h-102v58h113l30 174h-99zM243 383l-30 -174h147l30 174h-147z" />
    <glyph glyph-name="period.tab" horiz-adv-x="300" 
d="M149 -4q-28 0 -48.5 21t-20.5 49t20.5 48.5t48.5 20.5t49 -20.5t21 -48.5t-20.5 -49t-49.5 -21z" />
    <glyph glyph-name="comma.tab" horiz-adv-x="300" 
d="M58 -179q44 30 66.5 69t22.5 75q0 78 -75 96q-8 35 6.5 63.5t50.5 28.5q38 0 65.5 -31.5t27.5 -93.5q0 -67 -40.5 -132.5t-104.5 -99.5q-17 21 -19 25z" />
    <glyph glyph-name="colon.tab" horiz-adv-x="300" 
d="M148 -4q-28 0 -48.5 21t-20.5 49t20.5 48.5t48.5 20.5t49 -20.5t21 -48.5t-21 -49t-49 -21zM151 337q-29 0 -49.5 20.5t-20.5 49.5q0 28 21 48.5t49 20.5t48.5 -20.5t20.5 -48.5t-20.5 -49t-48.5 -21z" />
    <glyph glyph-name="semicolon.tab" horiz-adv-x="300" 
d="M160 337q-28 0 -49 20.5t-21 49.5q0 28 21 48.5t49 20.5t48.5 -20.5t20.5 -48.5t-20.5 -49t-48.5 -21zM70 -179q44 30 66.5 69t22.5 75q0 78 -75 96q-8 35 6.5 63.5t50.5 28.5q38 0 65.5 -31.5t27.5 -93.5q0 -67 -40.5 -132.5t-104.5 -99.5q-17 21 -19 25z" />
    <glyph glyph-name="space.tab" horiz-adv-x="300" 
 />
    <glyph glyph-name="dollar.lintab" 
d="M281 -125v120h-1q-49 0 -105.5 14.5t-91.5 36.5l-13 169h38l55 -138q51 -37 118 -38v258l-54 14q-147 37 -147 164q0 75 56.5 126t144.5 63v120h41v-117h1q44 0 91 -12.5t73 -27.5l6 -158h-34l-51 130q-38 23 -86 26v-242l64 -17q145 -41 145 -162q0 -78 -63.5 -134.5
t-145.5 -70.5v-124h-41zM334 284l-12 3v-245q49 9 79.5 41.5t30.5 82.5q0 94 -98 118zM172 509q0 -85 94 -110l15 -4v228q-49 -8 -79 -39t-30 -75z" />
    <glyph glyph-name="Euro.lintab" 
d="M51 362l5 44h55q30 122 118.5 199t195.5 77q54 0 100.5 -26.5t46.5 -66.5t-51 -72q-62 111 -143 111q-59 0 -112 -62.5t-68 -159.5h229l-6 -44h-228v-23q0 -33 3 -62h215l-6 -44h-203q19 -99 70.5 -144t118.5 -45q91 0 155 61l21 -25q-76 -103 -199 -103
q-110 0 -179.5 68t-85.5 188h-68l5 44h59v25q0 33 4 60h-52z" />
    <glyph glyph-name="sterling.lintab" 
d="M93 260v44h122l28 166q11 66 35.5 118t54.5 81.5t61 44.5t60 15q41 0 76 -28t35 -67q0 -43 -70 -57q-23 109 -75 109q-23 0 -41 -34t-34 -129l-37 -219h176v-44h-183l-1 -7q-24 -142 -141 -224q48 -19 114 -52l27 -14q89 -48 120 -62t47 -14q17 0 26.5 14.5t11.5 37
t0 44.5t-7 41q77 5 77 -46q0 -45 -40 -91.5t-110 -46.5q-61 0 -123 30t-142 86l-60 42q-37 -17 -62 -17q-48 0 -48 41q0 18 15 29t36 11q28 0 82 -19q57 48 72 138l13 79h-115z" />
    <glyph glyph-name="yen.lintab" 
d="M75 258v44h179l-175 304l-64 26v32h251v-32l-75 -26l131 -258h4l136 249l-94 33v34h217v-32l-66 -30l-173 -298v-2h178v-44h-178v-75h178v-44h-178v-83l95 -23v-33h-282v33l96 23v83h-180v44h180v75h-180z" />
    <glyph glyph-name="florin.lintab" 
d="M73 273l6 44h139l8 38q27 136 104.5 230t165.5 94q33 0 50 -16t17 -38q0 -25 -31 -64q-21 23 -31.5 33t-28.5 20.5t-34 10.5q-15 0 -27.5 -9.5t-29.5 -38t-36.5 -94t-40.5 -166.5h156l-10 -44h-155l-53 -258q-14 -68 -38 -120.5t-48.5 -81t-52 -46t-46.5 -22.5t-36 -5
q-22 0 -44 15.5t-22 41.5q0 13 7.5 28t17.5 22q63 -58 90 -58q26 0 41.5 35.5t31.5 114.5l66 334h-136z" />
    <glyph glyph-name="zero.lintab" 
d="M456 310q0 145 -47.5 237t-117.5 92q-64 0 -105.5 -79t-41.5 -205q0 -147 46 -238t118 -91q66 0 107 79t41 205zM299 681q80 0 139.5 -49t88 -125t28.5 -167q0 -164 -72 -261t-184 -97q-111 0 -183 94t-72 246q0 164 71.5 261.5t183.5 97.5z" />
    <glyph glyph-name="one.lintab" 
d="M365 682v-621l163 -18v-43h-420v43l166 17v521l-165 -13l-7 40l253 74h10z" />
    <glyph glyph-name="two.lintab" 
d="M257 170l-95 -88h344v-82h-437v49l44 45l75 75l69.5 68t54.5 58.5t45 59t25 55t10 61.5q-1 60 -39.5 95.5t-89.5 35.5q-42 0 -77 -24.5t-74 -73.5l-32 22q87 155 215 155q87 0 138.5 -49t53.5 -124q1 -36 -11.5 -72t-26 -60.5t-50 -65t-55 -58.5l-70.5 -66
q-11 -11 -17 -16z" />
    <glyph glyph-name="three.lintab" 
d="M272 28q57 0 97 36t40 95q0 74 -64.5 115.5t-160.5 41.5v46q186 66 186 161q0 38 -26 62t-69 24q-66 0 -149 -78l-26 29q47 58 95.5 89.5t110.5 31.5q72 0 114.5 -38t42.5 -98q0 -29 -10.5 -53t-36 -46t-42 -33t-54.5 -33l-15 -9v-3q76 -11 134 -57.5t58 -116.5
q0 -86 -79.5 -148t-176.5 -62q-64 0 -105.5 25t-41.5 64q0 25 17 38.5t42 15.5l71 -92q23 -7 48 -7z" />
    <glyph glyph-name="four.lintab" 
d="M410 661v-414h137v-66h-137v-125l85 -24v-32h-259v33l85 23v125h-281v38l338 450zM112 247h209v282z" />
    <glyph glyph-name="five.lintab" 
d="M465 576h-294v-176q55 26 104 26q101 0 163 -55.5t62 -148.5q0 -103 -78.5 -170.5t-175.5 -67.5q-62 0 -104.5 25.5t-42.5 63.5q0 25 17 38.5t42 15.5l72 -93q22 -5 42 -5q67 0 103 42t36 116q0 67 -43.5 113.5t-120.5 46.5q-55 0 -112 -33h-7v350h337v-88z" />
    <glyph glyph-name="six.lintab" 
d="M498 663q-43 -15 -85.5 -38.5t-88.5 -59t-82 -89t-54 -115.5q68 60 153 60q79 0 137.5 -57.5t58.5 -152.5q0 -105 -71 -168t-156 -63q-109 0 -172 70.5t-63 180.5q0 86 27.5 160t70 124t99 89t110 60.5t107.5 33.5zM297 360q-63 0 -118 -42q-6 -34 -6 -74q0 -96 40 -158
t110 -62q53 0 86.5 43t33.5 106q0 82 -41 134.5t-105 52.5z" />
    <glyph glyph-name="seven.lintab" 
d="M235 0h-83l295 576h-346v88h429v-13z" />
    <glyph glyph-name="eight.lintab" 
d="M82 154q0 17 4.5 33t9 28t17 26l19 21t24.5 20t24.5 17l28 17.5t25.5 15.5l-12 8q-57 36 -85.5 75t-28.5 92q0 73 61.5 123.5t155.5 50.5q78 0 128.5 -39.5t50.5 -104.5q0 -100 -135 -190h1q79 -49 114.5 -89.5t35.5 -93.5q0 -83 -64.5 -133.5t-159.5 -50.5
q-93 0 -153.5 48.5t-60.5 125.5zM304 289l-40 24q-49 -39 -68 -71.5t-19 -79.5q0 -52 36.5 -97.5t101.5 -45.5q59 0 88.5 34.5t29.5 76.5q0 49 -32 84t-97 75zM193 528q0 -41 19 -68.5t58 -50.5l64 -40q81 73 81 159q0 54 -30 83t-79 29t-81 -31.5t-32 -80.5z" />
    <glyph glyph-name="nine.lintab" 
d="M110 9q33 12 63 26.5t69 40t70.5 55.5t59.5 74.5t43 95.5q-37 -33 -67.5 -46.5t-71.5 -13.5q-88 0 -148.5 57t-60.5 153q0 106 71.5 168.5t156.5 62.5q104 0 169.5 -73.5t65.5 -181.5q0 -84 -26.5 -155t-67.5 -119t-97.5 -86t-109.5 -59t-110 -34zM314 302q51 0 111 42
q6 34 6 74q0 98 -39 159.5t-109 61.5q-53 0 -87.5 -45t-34.5 -115q0 -76 42.5 -126.5t110.5 -50.5z" />
    <glyph glyph-name="percent.lintab" horiz-adv-x="900" 
d="M251 681q73 0 114 -52.5t41 -124.5q0 -81 -47 -134.5t-114 -53.5q-68 0 -111 48t-43 127q0 82 47 136t113 54zM157 -50l531 765h61l-531 -765h-61zM244 640q-39 0 -60 -40t-21 -91q0 -62 23.5 -107t67.5 -45q38 0 59 40t21 92q0 64 -25.5 107.5t-64.5 43.5zM654 346
q73 0 114 -52.5t41 -124.5q0 -81 -47 -134.5t-114 -53.5q-68 0 -111 48t-43 127q0 82 47 136t113 54zM647 305q-39 0 -60 -40t-21 -91q0 -62 23.5 -107t67.5 -45q38 0 58.5 40t20.5 92q0 64 -25 107.5t-64 43.5z" />
    <glyph glyph-name="perthousand.lintab" horiz-adv-x="1200" 
d="M212 681q73 0 113.5 -52.5t40.5 -124.5q0 -81 -46.5 -134.5t-113.5 -53.5t-110 48t-43 127q0 82 46.5 136t112.5 54zM117 -50l531 765h61l-531 -765h-61zM205 640q-39 0 -59.5 -40t-20.5 -91q0 -62 23 -107t67 -45q38 0 58.5 40t20.5 92q0 64 -25 107.5t-64 43.5z
M613 346q73 0 113.5 -52.5t40.5 -124.5q0 -81 -47 -134.5t-113 -53.5q-67 0 -110 48t-43 127q0 82 46.5 136t112.5 54zM606 305q-39 0 -59.5 -40t-20.5 -91q0 -62 23 -107t67 -45q38 0 58 40t20 92q0 64 -25 107.5t-63 43.5zM993 346q73 0 113.5 -52.5t40.5 -124.5
q0 -81 -47 -134.5t-113 -53.5q-67 0 -110 48t-43 127q0 82 46.5 136t112.5 54zM986 305q-39 0 -59.5 -40t-20.5 -91q0 -62 23 -107t67 -45q38 0 58 40t20 92q0 64 -25 107.5t-63 43.5z" />
    <glyph glyph-name="numbersign.lintab" 
d="M75 423v58h110l27 153h58l-27 -153h147l27 153h58l-27 -153h106v-58h-117l-30 -174h103v-58h-114l-26 -151h-58l26 151h-147l-26 -151h-58l26 151h-102v58h113l30 174h-99zM232 423l-30 -174h147l30 174h-147z" />
    <glyph glyph-name="plus.lintab" 
d="M537 278h-206v-208h-62v208h-206v58h206v208h62v-208h206v-58z" />
    <glyph glyph-name="minus.lintab" 
d="M537 278h-474v58h474v-58z" />
    <glyph glyph-name="multiply.lintab" 
d="M481 82l-183 184l-180 -184l-41 41l183 184l-183 183l43 43l182 -183l183 188l40 -41l-183 -187l183 -185z" />
    <glyph glyph-name="divide.lintab" 
d="M537 278h-474v58h474v-58zM299 66q-28 0 -48.5 21t-20.5 49t20.5 48.5t48.5 20.5t49 -20.5t21 -48.5t-20.5 -49t-49.5 -21zM300 408q-28 0 -48.5 21t-20.5 49t20.5 48.5t48.5 20.5t49 -20.5t21 -48.5t-21 -49t-49 -21z" />
    <glyph glyph-name="equal.lintab" 
d="M63 363v55h474v-55h-474zM63 217v55h474v-55h-474z" />
    <glyph glyph-name="less.lintab" 
d="M535 488l-400 -183l400 -180v-69l-472 220v59l472 220v-67z" />
    <glyph glyph-name="greater.lintab" 
d="M64 123l400 183l-400 180v69l472 -220v-59l-472 -220v67z" />
    <glyph glyph-name="plusminus.lintab" 
d="M537 399h-206v-208h-62v208h-206v58h206v208h62v-208h206v-58zM537 0h-474v58h474v-58z" />
    <glyph glyph-name="notequal.lintab" 
d="M63 363v55h296l99 110h61l-100 -110h118v-55h-167l-82 -91h249v-55h-299l-99 -110h-58l98 110h-116v55h166l81 91h-247z" />
    <glyph glyph-name="approxequal.lintab" 
d="M111 347l-45 18q46 99 123 99q28 0 76 -11l66 -16q69 -16 88 -16q24 0 39 14t32 45l45 -18q-23 -49 -52 -73t-72 -24q-38 0 -98 15l-65 17q-46 12 -66 12q-23 0 -38.5 -15.5t-32.5 -46.5zM111 187l-45 18q46 99 123 99q28 0 76 -11l66 -16q69 -16 88 -16q24 0 39 14
t32 45l45 -18q-23 -49 -52 -73t-72 -24q-38 0 -98 15l-65 17q-46 12 -66 12q-23 0 -38.5 -15.5t-32.5 -46.5z" />
    <glyph glyph-name="lessequal.lintab" 
d="M535 518l-384 -143l384 -142v-67l-472 180v59l472 180v-67zM535 0h-472v58h472v-58z" />
    <glyph glyph-name="greaterequal.lintab" 
d="M447 375l-384 143v67l472 -180v-59l-472 -180v67zM535 0h-472v58h472v-58z" />
    <glyph glyph-name="parenleft.uctab" horiz-adv-x="300" 
d="M336 -140h-55q-191 202 -191 453q0 253 196 459h54q-86 -110 -125.5 -215.5t-39.5 -243.5q0 -133 38.5 -238.5t122.5 -214.5z" />
    <glyph glyph-name="parenright.uctab" horiz-adv-x="300" 
d="M-36 772h55q191 -202 191 -453q0 -253 -196 -459h-54q86 110 125.5 215.5t39.5 243.5q0 133 -38.5 238.5t-122.5 214.5z" />
    <glyph glyph-name="bracketleft.uctab" horiz-adv-x="300" 
d="M280 -141h-182v914h182v-39h-100v-836h100v-39z" />
    <glyph glyph-name="bracketright.uctab" horiz-adv-x="300" 
d="M15 773h182v-914h-182v39h100v836h-100v39z" />
    <glyph glyph-name="braceleft.uctab" horiz-adv-x="300" 
d="M120 317v-2q43 -17 62.5 -42t22.5 -73l10 -176q4 -83 23.5 -108t76.5 -25v-32h-15q-101 0 -137.5 42t-35.5 133l1 174q0 39 -19 61t-51 23l-38 1v46l38 1q32 1 51 23t19 61l-1 174q-1 91 35.5 133t137.5 42h15v-32q-57 0 -76.5 -25t-23.5 -108l-10 -176q-3 -48 -22.5 -73
t-62.5 -42z" />
    <glyph glyph-name="braceright.uctab" horiz-adv-x="300" 
d="M180 315v2q-43 17 -62.5 42t-22.5 73l-10 176q-4 83 -23.5 108t-76.5 25v32h15q101 0 137.5 -42t35.5 -133l-1 -174q0 -39 19 -61t51 -23l38 -1v-46l-38 -1q-32 -1 -51 -23t-19 -61l1 -174q1 -91 -35.5 -133t-137.5 -42h-15v32q57 0 76.5 25t23.5 108l10 176
q3 48 22.5 73t62.5 42z" />
    <glyph glyph-name="zero.num" horiz-adv-x="510" 
d="M265 298q52 -1 78.5 41t26.5 103q2 83 -33 139.5t-89 56.5q-53 0 -80 -45t-28 -101q-1 -77 32.5 -135t92.5 -59zM255 258q-89 0 -147.5 60t-58.5 145q0 91 59 152.5t146 61.5q97 0 152 -62.5t55 -144.5q0 -90 -59.5 -151t-146.5 -61z" />
    <glyph glyph-name="one.num" horiz-adv-x="353" 
d="M229 667v-347l100 -10v-34h-288v34l104 11v271h-110v30l188 45h6z" />
    <glyph glyph-name="two.num" horiz-adv-x="383" 
d="M29 276v32l45 38q114 96 137 122q33 38 33 73q0 30 -22.5 51.5t-55.5 21.5q-56 0 -110 -59l-25 24q35 47 72.5 72.5t91.5 25.5q56 0 92 -29.5t37 -82.5q0 -12 -1.5 -23t-7 -22l-10 -19.5t-16 -20.5l-18 -19t-23.5 -21.5l-25 -21l-30 -24l-32 -25.5l-36 -29h224v-64h-320z
" />
    <glyph glyph-name="three.num" horiz-adv-x="396" 
d="M163 258q-61 0 -94 20.5t-33 49.5q0 38 48 45l49 -68q23 -7 54 -7q40 0 67 19t27 56q0 40 -38 62.5t-111 18.5v33l17 5q106 31 106 88q0 20 -16.5 32t-42.5 12q-39 0 -66 -14.5t-59 -43.5l-23 23q79 88 175 88q52 0 85 -21.5t33 -57.5q0 -30 -30.5 -56.5t-73.5 -42.5v-3
q65 -7 96.5 -35.5t31.5 -64.5q0 -57 -60.5 -97.5t-141.5 -40.5z" />
    <glyph glyph-name="four.num" horiz-adv-x="412" 
d="M15 368v23l249 279l30 -2v-249h99v-51h-99v-92h-78v92h-201zM83 419h133v149z" />
    <glyph glyph-name="five.num" horiz-adv-x="399" 
d="M157 258q-54 0 -86 18.5t-32 50.5q0 19 15 30.5t36 13.5l50 -65q14 -8 38 -8q50 0 77 22t27 58q0 41 -31.5 63t-78.5 22q-60 0 -98 -25h-11v227h267v-65h-225v-88q39 17 93 17q67 0 111 -31.5t44 -94.5q0 -65 -61 -105t-135 -40z" />
    <glyph glyph-name="six.num" horiz-adv-x="442" 
d="M223 258q-82 0 -128 48t-46 129q0 60 28.5 107t76 75.5t98 45.5t106.5 24l10 -33q-57 -15 -95.5 -30.5t-76 -49t-51.5 -79.5q48 36 110 36q61 0 102 -34.5t41 -89.5q0 -65 -53.5 -107t-121.5 -42zM233 296q39 0 59.5 25.5t20.5 67.5q0 45 -24.5 73.5t-66.5 28.5
q-43 0 -85 -29q-2 -24 -2 -37q0 -57 25.5 -93t72.5 -36z" />
    <glyph glyph-name="seven.num" horiz-adv-x="366" 
d="M65 276l216 320h-241v69h316v-12l-217 -377h-74z" />
    <glyph glyph-name="eight.num" horiz-adv-x="424" 
d="M207 258q-71 0 -117 28t-46 73q0 36 24.5 59t76.5 46v2q-79 36 -79 96q0 51 43.5 83t114.5 32q66 0 102.5 -27t36.5 -66q0 -55 -88 -93v-2q58 -23 80.5 -45.5t22.5 -60.5q0 -53 -48.5 -89t-122.5 -36zM221 292q40 0 62.5 18.5t22.5 44.5q0 25 -18.5 41t-72.5 39l-40 17
q-52 -30 -52 -80q0 -37 27 -58.5t71 -21.5zM245 502q43 28 43 73q0 31 -19.5 50t-54.5 19t-54.5 -17t-19.5 -40q0 -22 15.5 -37.5t62.5 -35.5z" />
    <glyph glyph-name="nine.num" horiz-adv-x="442" 
d="M219 677q82 0 128 -49t46 -131q0 -61 -28 -108t-76.5 -74.5t-100.5 -43.5t-114 -23l-10 33q98 23 156 56.5t78 102.5q-48 -36 -111 -36q-61 0 -102 34.5t-41 89.5q0 65 53.5 107t121.5 42zM209 639q-39 0 -59.5 -25.5t-20.5 -67.5q0 -44 23 -71.5t62 -27.5q56 0 91 26
q2 22 2 34q0 60 -25.5 96t-72.5 36z" />
    <glyph glyph-name="zero.den" horiz-adv-x="510" 
d="M265 22q52 -1 78.5 41t26.5 103q2 83 -33 139.5t-89 56.5q-53 0 -80 -45t-28 -101q-1 -77 32.5 -135t92.5 -59zM255 -18q-89 0 -147.5 60t-58.5 145q0 91 59 152.5t146 61.5q97 0 152 -62.5t55 -144.5q0 -90 -59.5 -151t-146.5 -61z" />
    <glyph glyph-name="one.den" horiz-adv-x="353" 
d="M229 391v-347l100 -10v-34h-288v34l104 11v271h-110v30l188 45h6z" />
    <glyph glyph-name="two.den" horiz-adv-x="383" 
d="M29 0v32l45 38q114 96 137 122q33 38 33 73q0 30 -22.5 51.5t-55.5 21.5q-56 0 -110 -59l-25 24q35 47 72.5 72.5t91.5 25.5q56 0 92 -29.5t37 -82.5q0 -12 -1.5 -23t-7 -22l-10 -19.5t-16 -20.5l-18 -19t-23.5 -21.5l-25 -21l-30 -24l-32 -25.5l-36 -29h224v-64h-320z
" />
    <glyph glyph-name="three.den" horiz-adv-x="396" 
d="M163 -18q-61 0 -94 20.5t-33 49.5q0 38 48 45l49 -68q23 -7 54 -7q40 0 67 19t27 56q0 40 -38 62.5t-111 18.5v33l17 5q106 31 106 88q0 20 -16.5 32t-42.5 12q-39 0 -66 -14.5t-59 -43.5l-23 23q79 88 175 88q52 0 85 -21.5t33 -57.5q0 -30 -30.5 -56.5t-73.5 -42.5v-3
q65 -7 96.5 -35.5t31.5 -64.5q0 -57 -60.5 -97.5t-141.5 -40.5z" />
    <glyph glyph-name="four.den" horiz-adv-x="412" 
d="M15 92v23l249 279l30 -2v-249h99v-51h-99v-92h-78v92h-201zM83 143h133v149z" />
    <glyph glyph-name="five.den" horiz-adv-x="399" 
d="M157 -18q-54 0 -86 18.5t-32 50.5q0 19 15 30.5t36 13.5l50 -65q14 -8 38 -8q50 0 77 22t27 58q0 41 -31.5 63t-78.5 22q-60 0 -98 -25h-11v227h267v-65h-225v-88q39 17 93 17q67 0 111 -31.5t44 -94.5q0 -65 -61 -105t-135 -40z" />
    <glyph glyph-name="six.den" horiz-adv-x="442" 
d="M223 -18q-82 0 -128 48t-46 129q0 60 28.5 107t76 75.5t98 45.5t106.5 24l10 -33q-57 -15 -95.5 -30.5t-76 -49t-51.5 -79.5q48 36 110 36q61 0 102 -34.5t41 -89.5q0 -65 -53.5 -107t-121.5 -42zM233 20q39 0 59.5 25.5t20.5 67.5q0 45 -24.5 73.5t-66.5 28.5
q-43 0 -85 -29q-2 -24 -2 -37q0 -57 25.5 -93t72.5 -36z" />
    <glyph glyph-name="seven.den" horiz-adv-x="396" 
d="M95 0l216 320h-241v69h316v-12l-217 -377h-74z" />
    <glyph glyph-name="eight.den" horiz-adv-x="424" 
d="M207 -18q-71 0 -117 28t-46 73q0 36 24.5 59t76.5 46v2q-79 36 -79 96q0 51 43.5 83t114.5 32q66 0 102.5 -27t36.5 -66q0 -55 -88 -93v-2q58 -23 80.5 -45.5t22.5 -60.5q0 -53 -48.5 -89t-122.5 -36zM221 16q40 0 62.5 18.5t22.5 44.5q0 25 -18.5 41t-72.5 39l-40 17
q-52 -30 -52 -80q0 -37 27 -58.5t71 -21.5zM245 226q43 28 43 73q0 31 -19.5 50t-54.5 19t-54.5 -17t-19.5 -40q0 -22 15.5 -37.5t62.5 -35.5z" />
    <glyph glyph-name="nine.den" horiz-adv-x="442" 
d="M219 401q82 0 128 -49t46 -131q0 -61 -28 -108t-76.5 -74.5t-100.5 -43.5t-114 -23l-10 33q98 23 156 56.5t78 102.5q-48 -36 -111 -36q-61 0 -102 34.5t-41 89.5q0 65 53.5 107t121.5 42zM209 363q-39 0 -59.5 -25.5t-20.5 -67.5q0 -44 23 -71.5t62 -27.5q56 0 91 26
q2 22 2 34q0 60 -25.5 96t-72.5 36z" />
    <glyph glyph-name="zero.sub" horiz-adv-x="510" 
d="M265 -108q52 -1 78.5 41t26.5 103q2 83 -33 139.5t-89 56.5q-53 0 -80 -45t-28 -101q-1 -77 32.5 -135t92.5 -59zM255 -148q-89 0 -147.5 60t-58.5 145q0 91 59 152.5t146 61.5q97 0 152 -62.5t55 -144.5q0 -90 -59.5 -151t-146.5 -61z" />
    <glyph glyph-name="one.sub" horiz-adv-x="353" 
d="M229 261v-347l100 -10v-34h-288v34l104 11v271h-110v30l188 45h6z" />
    <glyph glyph-name="two.sub" horiz-adv-x="383" 
d="M29 -130v32l45 38q114 96 137 122q33 38 33 73q0 30 -22.5 51.5t-55.5 21.5q-56 0 -110 -59l-25 24q35 47 72.5 72.5t91.5 25.5q56 0 92 -29.5t37 -82.5q0 -12 -1.5 -23t-7 -22l-10 -19.5t-16 -20.5l-18 -19t-23.5 -21.5l-25 -21l-30 -24l-32 -25.5l-36 -29h224v-64h-320
z" />
    <glyph glyph-name="three.sub" horiz-adv-x="396" 
d="M163 -148q-61 0 -94 20.5t-33 49.5q0 38 48 45l49 -68q23 -7 54 -7q40 0 67 19t27 56q0 40 -38 62.5t-111 18.5v33l17 5q106 31 106 88q0 20 -16.5 32t-42.5 12q-39 0 -66 -14.5t-59 -43.5l-23 23q79 88 175 88q52 0 85 -21.5t33 -57.5q0 -30 -30.5 -56.5t-73.5 -42.5v-3
q65 -7 96.5 -35.5t31.5 -64.5q0 -57 -60.5 -97.5t-141.5 -40.5z" />
    <glyph glyph-name="four.sub" horiz-adv-x="412" 
d="M15 -38v23l249 279l30 -2v-249h99v-51h-99v-92h-78v92h-201zM83 13h133v149z" />
    <glyph glyph-name="five.sub" horiz-adv-x="399" 
d="M157 -148q-54 0 -86 18.5t-32 50.5q0 19 15 30.5t36 13.5l50 -65q14 -8 38 -8q50 0 77 22t27 58q0 41 -31.5 63t-78.5 22q-60 0 -98 -25h-11v227h267v-65h-225v-88q39 17 93 17q67 0 111 -31.5t44 -94.5q0 -65 -61 -105t-135 -40z" />
    <glyph glyph-name="six.sub" horiz-adv-x="442" 
d="M223 -148q-82 0 -128 48t-46 129q0 60 28.5 107t76 75.5t98 45.5t106.5 24l10 -33q-57 -15 -95.5 -30.5t-76 -49t-51.5 -79.5q48 36 110 36q61 0 102 -34.5t41 -89.5q0 -65 -53.5 -107t-121.5 -42zM233 -110q39 0 59.5 25.5t20.5 67.5q0 45 -24.5 73.5t-66.5 28.5
q-43 0 -85 -29q-2 -24 -2 -37q0 -57 25.5 -93t72.5 -36z" />
    <glyph glyph-name="seven.sub" horiz-adv-x="396" 
d="M95 -130l216 320h-241v69h316v-12l-217 -377h-74z" />
    <glyph glyph-name="eight.sub" horiz-adv-x="424" 
d="M207 -148q-71 0 -117 28t-46 73q0 36 24.5 59t76.5 46v2q-79 36 -79 96q0 51 43.5 83t114.5 32q66 0 102.5 -27t36.5 -66q0 -55 -88 -93v-2q58 -23 80.5 -45.5t22.5 -60.5q0 -53 -48.5 -89t-122.5 -36zM221 -114q40 0 62.5 18.5t22.5 44.5q0 25 -18.5 41t-72.5 39l-40 17
q-52 -30 -52 -80q0 -37 27 -58.5t71 -21.5zM245 96q43 28 43 73q0 31 -19.5 50t-54.5 19t-54.5 -17t-19.5 -40q0 -22 15.5 -37.5t62.5 -35.5z" />
    <glyph glyph-name="nine.sub" horiz-adv-x="442" 
d="M219 271q82 0 128 -49t46 -131q0 -61 -28 -108t-76.5 -74.5t-100.5 -43.5t-114 -23l-10 33q63 15 103.5 30t78.5 48t52 81q-48 -36 -111 -36q-61 0 -102 34.5t-41 89.5q0 65 53.5 107t121.5 42zM209 233q-39 0 -59.5 -25.5t-20.5 -67.5q0 -44 23 -71.5t62 -27.5
q56 0 91 26q2 22 2 34q0 60 -25.5 96t-72.5 36z" />
    <glyph glyph-name="plus.sub" horiz-adv-x="442" 
d="M192 -107v153h-151v54h151v153h58v-153h151v-54h-151v-153h-58z" />
    <glyph glyph-name="minus.sub" horiz-adv-x="442" 
d="M401 46h-360v54h360v-54z" />
    <glyph glyph-name="zero.sup" horiz-adv-x="510" 
d="M265 332q52 -1 78.5 41t26.5 103q2 83 -33 139.5t-89 56.5q-53 0 -80 -45t-28 -101q-1 -77 32.5 -135t92.5 -59zM255 292q-89 0 -147.5 60t-58.5 145q0 91 59 152.5t146 61.5q97 0 152 -62.5t55 -144.5q0 -90 -59.5 -151t-146.5 -61z" />
    <glyph glyph-name="one.sup" horiz-adv-x="353" 
d="M229 701v-347l100 -10v-34h-288v34l104 11v271h-110v30l188 45h6z" />
    <glyph glyph-name="two.sup" horiz-adv-x="383" 
d="M29 310v32l45 38q114 96 137 122q33 38 33 73q0 30 -22.5 51.5t-55.5 21.5q-56 0 -110 -59l-25 24q35 47 72.5 72.5t91.5 25.5q56 0 92 -29.5t37 -82.5q0 -12 -1.5 -23t-7 -22l-10 -19.5t-16 -20.5l-18 -19t-23.5 -21.5l-25 -21l-30 -24l-32 -25.5l-36 -29h224v-64h-320z
" />
    <glyph glyph-name="three.sup" horiz-adv-x="396" 
d="M163 292q-61 0 -94 20.5t-33 49.5q0 38 48 45l49 -68q23 -7 54 -7q40 0 67 19t27 56q0 40 -38 62.5t-111 18.5v33l17 5q106 31 106 88q0 20 -16.5 32t-42.5 12q-39 0 -66 -14.5t-59 -43.5l-23 23q79 88 175 88q52 0 85 -21.5t33 -57.5q0 -30 -30.5 -56.5t-73.5 -42.5v-3
q65 -7 96.5 -35.5t31.5 -64.5q0 -57 -60.5 -97.5t-141.5 -40.5z" />
    <glyph glyph-name="four.sup" horiz-adv-x="412" 
d="M15 402v23l249 279l30 -2v-249h99v-51h-99v-92h-78v92h-201zM83 453h133v149z" />
    <glyph glyph-name="five.sup" horiz-adv-x="399" 
d="M157 292q-54 0 -86 18.5t-32 50.5q0 19 15 30.5t36 13.5l50 -65q14 -8 38 -8q50 0 77 22t27 58q0 41 -31.5 63t-78.5 22q-60 0 -98 -25h-11v227h267v-65h-225v-88q39 17 93 17q67 0 111 -31.5t44 -94.5q0 -65 -61 -105t-135 -40z" />
    <glyph glyph-name="six.sup" horiz-adv-x="442" 
d="M223 292q-82 0 -128 48t-46 129q0 60 28.5 107t76 75.5t98 45.5t106.5 24l10 -33q-57 -15 -95.5 -30.5t-76 -49t-51.5 -79.5q48 36 110 36q61 0 102 -34.5t41 -89.5q0 -65 -53.5 -107t-121.5 -42zM233 330q39 0 59.5 25.5t20.5 67.5q0 45 -24.5 73.5t-66.5 28.5
q-43 0 -85 -29q-2 -24 -2 -37q0 -57 25.5 -93t72.5 -36z" />
    <glyph glyph-name="seven.sup" horiz-adv-x="366" 
d="M65 310l216 320h-241v69h316v-12l-217 -377h-74z" />
    <glyph glyph-name="eight.sup" horiz-adv-x="424" 
d="M207 292q-71 0 -117 28t-46 73q0 36 24.5 59t76.5 46v2q-79 36 -79 96q0 51 43.5 83t114.5 32q66 0 102.5 -27t36.5 -66q0 -55 -88 -93v-2q58 -23 80.5 -45.5t22.5 -60.5q0 -53 -48.5 -89t-122.5 -36zM221 326q40 0 62.5 18.5t22.5 44.5q0 25 -18.5 41t-72.5 39l-40 17
q-52 -30 -52 -80q0 -37 27 -58.5t71 -21.5zM245 536q43 28 43 73q0 31 -19.5 50t-54.5 19t-54.5 -17t-19.5 -40q0 -22 15.5 -37.5t62.5 -35.5z" />
    <glyph glyph-name="nine.sup" horiz-adv-x="442" 
d="M219 711q82 0 128 -49t46 -131q0 -61 -28 -108t-76.5 -74.5t-100.5 -43.5t-114 -23l-10 33q98 23 156 56.5t78 102.5q-48 -36 -111 -36q-61 0 -102 34.5t-41 89.5q0 65 53.5 107t121.5 42zM209 673q-39 0 -59.5 -25.5t-20.5 -67.5q0 -44 23 -71.5t62 -27.5q56 0 91 26
q2 22 2 34q0 60 -25.5 96t-72.5 36z" />
    <glyph glyph-name="plus.sup" horiz-adv-x="442" 
d="M192 333v153h-151v54h151v153h58v-153h151v-54h-151v-153h-58z" />
    <glyph glyph-name="minus.sup" horiz-adv-x="442" 
d="M401 486h-360v54h360v-54z" />
    <glyph glyph-name="a.ord" horiz-adv-x="427" 
d="M146 244q-37 0 -67.5 25t-30.5 68q0 45 31.5 69.5t97.5 40.5l84 22v36q-1 42 -21.5 66.5t-53.5 24.5q-30 0 -49 -13l-3 -77q-5 -5 -35 -5q-39 0 -39 36q0 31 48.5 62.5t108.5 31.5q62 0 90.5 -28.5t28.5 -89.5v-199q0 -14 5.5 -18.5t21.5 -4.5h39v-24q-48 -21 -79 -21
q-58 0 -60 62h-5q-3 -3 -18 -17t-18.5 -17t-15 -11.5t-18.5 -11t-18.5 -5t-23.5 -2.5zM188 301q43 0 73 36v104l-73 -22q-31 -11 -46.5 -24t-15.5 -35q0 -28 18.5 -43.5t43.5 -15.5z" />
    <glyph glyph-name="b.ord" horiz-adv-x="462" 
d="M207 243q-61 0 -99 17l-29 11v480l-51 14v28l125 26v-246q15 22 45.5 40t72.5 18q63 0 108 -44t45 -131q0 -89 -65.5 -151t-151.5 -62zM233 576q-42 0 -80 -32v-236q34 -29 80 -29q47 0 81.5 40.5t34.5 111.5q0 66 -32 105.5t-84 39.5z" />
    <glyph glyph-name="c.ord" horiz-adv-x="398" 
d="M211 243q-73 0 -123 49t-50 133q0 91 62 149t141 58q50 0 83.5 -24t33.5 -57q0 -20 -11.5 -33t-32.5 -13l-29 3l-12 77q-22 11 -46 11q-49 0 -81.5 -39.5t-32.5 -95.5q0 -68 39 -112t99 -44q25 0 48.5 11.5t34.5 23.5l10 11l16 -13q-3 -8 -10.5 -20.5t-24 -31t-46.5 -31
t-68 -12.5z" />
    <glyph glyph-name="d.ord" horiz-adv-x="481" 
d="M234 772v27l148 20v-515l65 -15v-28l-112 -16l-20 53q-57 -55 -115 -55q-78 0 -120 51.5t-42 125.5q0 95 57.5 153t145.5 58q35 0 67 -8v135zM244 301q34 0 64 17v228q-7 15 -30 32t-56 17q-47 0 -78.5 -35.5t-31.5 -98.5q0 -70 31.5 -115t100.5 -45z" />
    <glyph glyph-name="e.ord" horiz-adv-x="425" 
d="M216 243q-48 0 -84 18t-55.5 46t-29 58t-9.5 59q0 91 54.5 149.5t137.5 58.5q68 0 105.5 -45t38.5 -125h-266q1 -72 39.5 -113t101.5 -41q30 0 57.5 13.5t40.5 26.5l13 14l16 -12q-2 -8 -10.5 -21.5t-26 -35t-50 -36t-73.5 -14.5zM212 594q-37 0 -65 -27.5t-36 -70.5h178
q-1 41 -20.5 69.5t-56.5 28.5z" />
    <glyph glyph-name="f.ord" horiz-adv-x="299" 
d="M35 255v29l51 15v281h-57v34l56 15v3q0 79 52 135.5t122 56.5q46 0 75 -22.5t29 -51.5q0 -18 -11.5 -30.5t-31.5 -12.5l-20 4l-20 68q-8 8 -36 8q-37 0 -60.5 -27.5t-23.5 -85.5v-53h108v-43h-108v-279l72 -16v-28h-197z" />
    <glyph glyph-name="g.ord" horiz-adv-x="438" 
d="M414 573l-92 5l-1 -2q41 -33 41 -83q0 -59 -48.5 -97t-113.5 -38q-30 0 -57 9q-29 -19 -29 -37q0 -21 31 -23l150 -7q59 -4 87.5 -28t28.5 -62q0 -51 -68.5 -95.5t-168.5 -44.5q-62 0 -104.5 24t-42.5 65q0 21 16.5 41.5t44.5 33.5l18 8v4l-57 48q20 49 65 85
q-66 37 -66 113q0 61 45.5 100t111.5 39q41 0 96 -20l113 13v-51zM211 394q32 1 53 27t20 68q-1 54 -24.5 82.5t-60.5 26.5q-35 0 -54.5 -25t-18.5 -67q1 -53 24 -83t61 -29zM289 229l-155 9q-30 -27 -30 -55q0 -27 27 -47t84 -20q66 0 101 22.5t35 50.5q0 37 -62 40z" />
    <glyph glyph-name="h.ord" horiz-adv-x="479" 
d="M277 255v30l46 14v191q-2 43 -19 63.5t-55 20.5q-29 0 -55.5 -13t-37.5 -24v-238l52 -15v-29h-178v29l51 16v455l-54 19v25l129 20v-256q58 69 130 69q58 0 84.5 -29.5t26.5 -99.5v-204l52 -15v-29h-172z" />
    <glyph glyph-name="i.ord" horiz-adv-x="251" 
d="M37 255v30l53 15v261l-47 15v30l120 26v-333l59 -14v-30h-185zM122 723q-21 0 -36.5 15.5t-15.5 36.5q0 20 15.5 35.5t36.5 15.5t36.5 -15.5t15.5 -35.5q0 -21 -15.5 -36.5t-36.5 -15.5z" />
    <glyph glyph-name="j.ord" horiz-adv-x="219" 
d="M9 78l-5 26q39 14 57 59t18 132v262l-48 19v30l121 26v-334q0 -89 -27 -140q-35 -71 -116 -80zM110 723q-21 0 -36 15.5t-15 36.5q0 20 15.5 35.5t35.5 15.5q22 0 37.5 -15.5t15.5 -35.5q0 -21 -15.5 -36.5t-37.5 -15.5z" />
    <glyph glyph-name="k.ord" horiz-adv-x="446" 
d="M83 300v451l-53 19v24l128 25v-520l52 -15v-29h-177v29zM382 242q-40 -1 -85 55l-135 172v3l35 11l105 95l-51 16v27h168v-25l-55 -14l-125 -103l188 -217q-12 -19 -45 -20z" />
    <glyph glyph-name="l.ord" horiz-adv-x="248" 
d="M33 255v29l50 15v443l-51 14v28l126 26v-511l54 -15v-29h-179z" />
    <glyph glyph-name="m.ord" horiz-adv-x="724" 
d="M523 255v30l46 14v192q-2 42 -18.5 62.5t-54.5 20.5q-50 0 -94 -38v-237l51 -15v-29h-171v30l45 14v192q-2 42 -18 62.5t-55 20.5q-30 0 -56.5 -14t-37.5 -25v-236l52 -15v-29h-177v30l51 14v258l-54 12v25l105 38h4l15 -73h3q60 73 132 73q50 0 73.5 -18t29.5 -56h5
q58 74 134 74q56 0 83 -28t27 -99v-206l52 -15v-29h-172z" />
    <glyph glyph-name="n.ord" horiz-adv-x="483" 
d="M35 255v29l51 15v258l-54 12v25l105 38h4l15 -73h3q11 14 25.5 28t45.5 29.5t62 15.5q57 0 83.5 -29.5t26.5 -99.5v-204l52 -15v-29h-172v30l45 14v191q-2 42 -18.5 63t-54.5 21q-30 0 -57 -14.5t-37 -25.5v-235l52 -15v-29h-177z" />
    <glyph glyph-name="o.ord" horiz-adv-x="454" 
d="M118 452q1 -72 31.5 -122.5t87.5 -49.5q46 1 73 42t26 103q-1 80 -33.5 126t-85.5 45q-47 -1 -73.5 -41.5t-25.5 -102.5zM227 242q-88 0 -138.5 54.5t-50.5 134.5q0 84 55 143t134 59q87 0 138 -50.5t51 -137.5q0 -85 -54.5 -144t-134.5 -59z" />
    <glyph glyph-name="p.ord" horiz-adv-x="454" 
d="M23 85v30l51 15v427l-54 12v25l104 38h4l14 -68h1q53 67 121 67q66 0 109 -43.5t43 -131.5q0 -89 -65.5 -151t-150.5 -62q-24 0 -52 7v-119l75 -18v-28h-200zM225 575q-39 0 -77 -28v-240q24 -27 77 -27q46 0 81 40t35 110q0 66 -32 105.5t-84 39.5z" />
    <glyph glyph-name="q.ord" horiz-adv-x="451" 
d="M228 85v28l80 19v153q-49 -42 -102 -42q-77 0 -122.5 53t-45.5 134q0 89 61 145t140 56q66 0 95 -26l41 28h7v-503l51 -15v-30h-205zM250 298q28 0 58 15v246q-32 35 -81 35q-51 0 -81 -39t-30 -99q0 -65 33.5 -111.5t100.5 -46.5z" />
    <glyph glyph-name="r.ord" horiz-adv-x="327" 
d="M35 255v29l51 16v257l-54 10v27l113 38h5l6 -92h2l23 27q29 37 47.5 51.5t38.5 14.5t31 -12t11 -33q0 -29 -28 -57l-65 26q-32 -22 -56 -47v-213l71 -12v-30h-196z" />
    <glyph glyph-name="s.ord" horiz-adv-x="360" 
d="M167 240q-54 0 -109 31l-12 112h26l43 -84q27 -25 63 -25q32 0 51 15t19 40q0 22 -16.5 39.5t-59.5 35.5l-34 15q-43 19 -62.5 43t-19.5 60q0 46 41.5 78.5t98.5 32.5q50 0 98 -27l5 -95h-25l-31 66q-24 22 -57 22q-28 0 -44 -14.5t-16 -36.5q0 -21 14 -36t50 -30l36 -16
q52 -23 73.5 -48t21.5 -59q0 -49 -46.5 -84t-107.5 -35z" />
    <glyph glyph-name="t.ord" horiz-adv-x="288" 
d="M159 246q-84 0 -82 87l2 247h-56v34l58 15l41 95h28v-103h107v-44h-105v-213q0 -21 4 -34.5t12 -19.5t16.5 -8t21.5 -2l58 5l5 -24q-47 -35 -110 -35z" />
    <glyph glyph-name="u.ord" horiz-adv-x="471" 
d="M343 243l-25 65q-57 -66 -133 -66q-109 0 -109 134v194l-55 14v31l130 14v-239q3 -90 82 -90q48 0 82 34v236l-64 13v31l139 13v-323l63 -14v-29z" />
    <glyph glyph-name="v.ord" horiz-adv-x="427" 
d="M235 243h-48l-140 337l-37 13v28h177v-28l-59 -13l91 -236l7 -19h2q4 12 7 19l95 231l-56 18v28h139v-28l-37 -13z" />
    <glyph glyph-name="w.ord" horiz-adv-x="622" 
d="M348 626l93 -270l8 -24h2q3 12 7 24l69 217l-59 20v28h142v-28l-38 -13l-110 -336h-53l-89 237l-8 27h-1l-9 -27l-87 -237h-57l-108 336l-38 13v28h178v-28l-59 -13l65 -224l7 -25h2q3 13 8 25l94 270h41z" />
    <glyph glyph-name="x.ord" horiz-adv-x="438" 
d="M420 255h-188v29l45 14l-75 111h-2l-81 -110l44 -15v-29h-144v29l49 14l112 143l-101 140l-47 12v28h182v-28l-45 -8l65 -100h1l75 99l-42 9v28h134v-28l-45 -9l-102 -129l113 -157l52 -14v-29z" />
    <glyph glyph-name="y.ord" horiz-adv-x="424" 
d="M333 575l-55 18v28h136v-28l-37 -14l-170 -407q-22 -54 -41.5 -76t-50.5 -22q-22 0 -36 13t-14 33q0 21 13 33t31 12q25 0 41 -31h1l39 85l-143 361l-37 13v28h179v-28l-58 -13l97 -260h5z" />
    <glyph glyph-name="z.ord" horiz-adv-x="390" 
d="M278 255h-245v29l217 301h-138l-37 -84h-26l1 125l61 -5h244v-14l-228 -315h151l46 92h27l-12 -132z" />
    <glyph glyph-name="egrave.ord" horiz-adv-x="425" 
d="M216 243q-48 0 -84 18t-55.5 46t-29 58t-9.5 59q0 91 54.5 149.5t137.5 58.5q68 0 105.5 -45t38.5 -125h-266q1 -72 39.5 -113t101.5 -41q30 0 57.5 13.5t40.5 26.5l13 14l16 -12q-2 -8 -10.5 -21.5t-26 -35t-50 -36t-73.5 -14.5zM212 594q-37 0 -65 -27.5t-36 -70.5h178
q-1 41 -20.5 69.5t-56.5 28.5zM126 837h63l50 -156h-34l-79 142v14z" />
    <glyph glyph-name="uacute.ord" horiz-adv-x="471" 
d="M343 243l-25 65q-57 -66 -133 -66q-109 0 -109 134v194l-55 14v31l130 14v-239q3 -90 82 -90q48 0 82 34v236l-64 13v31l139 13v-323l63 -14v-29zM257 837h64v-14l-79 -142h-33z" />
    <glyph glyph-name="bullet.alt" horiz-adv-x="333" 
d="M23 577q0 25 16.5 39t37.5 14q11 0 21 -3.5t16.5 -6.5t15.5 -13t12 -13t13 -17.5l12 -17.5h14l14.5 15l12.5 13t10 9.5t10 8.5l8.5 5.5t10 4.5t10 2t12.5 1q23 0 37.5 -17t14.5 -41q0 -26 -17 -44t-42 -18q-11 0 -22 4.5t-18 9.5t-20 15.5t-21 15.5h-6q-12 -20 -12 -40
q0 -23 14 -38t46 -33q65 -37 65 -87q0 -26 -17.5 -42.5t-48.5 -16.5q-16 -23 -42 -23q-30 0 -55 37q-4 6 -12 19t-13 19t-13.5 12t-18.5 6q-20 0 -30.5 -12.5t-9.5 -27.5h-12q-6 8 -6 27q0 25 18 40.5t44 15.5q25 0 44 -16t32 -32t26 -16q27 0 27 26q0 14 -11.5 28t-26 24.5
t-26 29.5t-11.5 41q0 21 21 63l-5 1q-51 -21 -66 -21q-25 0 -39 13.5t-14 36.5zM180 728q21 0 37.5 -13.5t16.5 -31.5q0 -27 -49 -81h-18q-1 2 -8.5 12l-14 19.5t-12 22.5t-5.5 23q0 20 15 34.5t38 14.5z" />
    <glyph glyph-name="Q.short" horiz-adv-x="786" 
d="M392 681q85 0 152.5 -29t107 -78t60 -108.5t20.5 -124.5q0 -149 -79.5 -245.5t-207.5 -114.5q57 -44 89 -66.5t75 -41.5t81 -19q47 0 100 28l15 -23q-55 -38 -88 -49q-35 -11 -76 -11q-77 0 -149 43.5t-192 146.5q-111 28 -178.5 118t-67.5 216q0 163 95 260.5t243 97.5z
M384 639q-58 0 -103 -26t-71 -69t-39.5 -92t-13.5 -101q0 -80 26 -154t84 -127t137 -53q74 0 127 47t75.5 112t22.5 136q0 132 -70.5 229.5t-174.5 97.5z" />
    <glyph glyph-name="f.short" horiz-adv-x="343" 
d="M33 0v34l63 21v365h-72v41l71 20v37q0 100 57 164t129 64q38 0 65 -20.5t27 -51.5q0 -23 -16.5 -35.5t-40.5 -12.5h-11l-34 77q-3 3 -14 3q-28 0 -54 -31.5t-25 -95.5l2 -109h137v-51h-136v-364l90 -24v-31h-238z" />
    <glyph glyph-name="f_f.short" horiz-adv-x="628" 
d="M324 0v34l57 21v368h-200v-368l57 -21v-34h-205v34l63 21v365h-72v41l73 20q2 97 75.5 167.5t162.5 70.5q66 0 105 -39q52 66 125 66q39 0 66 -20.5t27 -51.5q0 -23 -16.5 -35.5t-40.5 -12.5h-11l-34 77q-3 3 -14 3q-28 0 -54 -31t-25 -96l2 -109h137v-47h-136v-368
l90 -24v-31h-232zM181 475v-5h200v7q0 65 15 114l-24 66q-30 19 -60 19q-56 0 -93.5 -45t-37.5 -156z" />
    <glyph glyph-name="i.ger" horiz-adv-x="279" 
d="M31 0v34l67 22v342l-59 21v35l142 29v-428l75 -21v-34h-225zM133 601q-25 0 -43.5 18t-18.5 43t18.5 43t43.5 18q24 0 42.5 -18t18.5 -43t-18.5 -43t-42.5 -18z" />
    <glyph glyph-name="j.ger" horiz-adv-x="261" 
d="M2 -251l-5 29q50 16 72 76t22 172v366l-59 27v35l143 29v-457q0 -108 -32 -173q-21 -43 -58.5 -70.5t-82.5 -33.5zM127 601q-25 0 -43.5 18t-18.5 43t18.5 43t43.5 18q24 0 42.5 -18t18.5 -43t-18.5 -43t-42.5 -18z" />
    <glyph glyph-name="questiondown.uc" horiz-adv-x="406" 
d="M314 86v-104l-29 5q-52 9 -104.5 40.5t-91.5 86t-39 116.5q0 90 98 127l82 30l1 97h45l18 -163l-116 -41q-42 -15 -59 -32.5t-17 -42.5q0 -41 53.5 -73.5t134.5 -42.5zM254 684q25 0 43.5 -19t18.5 -44t-18.5 -43.5t-43.5 -18.5q-26 0 -44.5 18t-18.5 44t18.5 44.5
t44.5 18.5z" />
    <glyph glyph-name="exclamdown.uc" horiz-adv-x="285" 
d="M191 -18h-97l25 502h47zM143 684q25 0 43.5 -19t18.5 -44t-18.5 -43.5t-43.5 -18.5q-26 0 -44.5 18t-18.5 44t18.5 44.5t44.5 18.5z" />
    <glyph glyph-name="hyphen.uc" horiz-adv-x="343" 
d="M39 270v77h265v-77h-265z" />
    <glyph glyph-name="endash.uc" horiz-adv-x="408" 
d="M4 322v51h400v-51h-400z" />
    <glyph glyph-name="emdash.uc" horiz-adv-x="808" 
d="M4 322v51h800v-51h-800z" />
    <glyph glyph-name="guilsinglleft.uc" horiz-adv-x="390" 
d="M272 501l28 -25l-140 -206l139 -196l-27 -26l-202 214v17z" />
    <glyph glyph-name="guilsinglright.uc" horiz-adv-x="390" 
d="M118 48l-28 25l139 206l-138 196l27 26l202 -214v-17z" />
    <glyph glyph-name="guillemotleft.uc" horiz-adv-x="609" 
d="M272 501l28 -25l-140 -206l139 -196l-27 -26l-202 214v17zM491 501l28 -25l-140 -206l139 -196l-27 -26l-202 214v17z" />
    <glyph glyph-name="guillemotright.uc" horiz-adv-x="608" 
d="M118 48l-28 25l139 206l-138 196l27 26l202 -214v-17zM336 48l-28 25l139 206l-138 196l27 26l202 -214v-17z" />
    <glyph glyph-name="parenleft.uc" horiz-adv-x="343" 
d="M337 -140h-55q-191 202 -191 453q0 253 196 459h54q-86 -110 -125.5 -215.5t-39.5 -243.5q0 -133 38.5 -238.5t122.5 -214.5z" />
    <glyph glyph-name="parenright.uc" horiz-adv-x="343" 
d="M5 772h55q191 -202 191 -453q0 -253 -196 -459h-54q86 110 125.5 215.5t39.5 243.5q0 133 -38.5 238.5t-122.5 214.5z" />
    <glyph glyph-name="bracketleft.uc" horiz-adv-x="355" 
d="M310 -141h-182v914h182v-39h-100v-836h100v-39z" />
    <glyph glyph-name="bracketright.uc" horiz-adv-x="355" 
d="M45 773h182v-914h-182v39h100v836h-100v39z" />
    <glyph glyph-name="braceleft.uc" horiz-adv-x="355" 
d="M145 317v-2q43 -17 62.5 -42t22.5 -73l10 -176q4 -83 23.5 -108t76.5 -25v-32h-15q-101 0 -137.5 42t-35.5 133l1 174q0 39 -19 61t-51 23l-38 1v46l38 1q32 1 51 23t19 61l-1 174q-1 91 35.5 133t137.5 42h15v-32q-57 0 -76.5 -25t-23.5 -108l-10 -176q-3 -48 -22.5 -73
t-62.5 -42z" />
    <glyph glyph-name="braceright.uc" horiz-adv-x="355" 
d="M210 315v2q-43 17 -62.5 42t-22.5 73l-10 176q-4 83 -23.5 108t-76.5 25v32h15q101 0 137.5 -42t35.5 -133l-1 -174q0 -39 19 -61t51 -23l38 -1v-46l-38 -1q-32 -1 -51 -23t-19 -61l1 -174q1 -91 -35.5 -133t-137.5 -42h-15v32q57 0 76.5 25t23.5 108l10 176
q3 48 22.5 73t62.5 42z" />
    <glyph glyph-name="slash.uc" horiz-adv-x="504" 
d="M74 -163l-48 21l403 925l48 -21z" />
    <glyph glyph-name="backslash.uc" horiz-adv-x="504" 
d="M477 -142l-48 -21l-403 925l48 21z" />
    <glyph glyph-name="bar.uc" horiz-adv-x="248" 
d="M153 -161l-58 -1v935h58v-934z" />
    <glyph glyph-name="at.uc" horiz-adv-x="956" 
d="M535 220l13 41h-6l-23 -34q-56 -83 -87 -111q-42 -38 -83 -38q-40 0 -61 24t-22 63q-1 84 51.5 171.5t125 141t132.5 53.5q43 0 71 -24l9 36h59l-97 -320q-16 -61 -8 -85t35 -24q62 0 129 81t67 199q0 126 -85.5 210.5t-217.5 84.5q-161 0 -275 -123.5t-114 -304.5
q0 -154 94 -240.5t244 -86.5q68 0 143 18v-25q-87 -33 -190 -33q-168 0 -268.5 98t-100.5 250q0 100 42.5 191t110.5 154.5t155.5 101t176.5 37.5q161 0 253.5 -94t92.5 -227q0 -69 -26.5 -131.5t-67.5 -104.5t-90.5 -66.5t-96.5 -24.5q-57 0 -82 36t-3 106zM392 147
q37 0 113 108t94 166l11 35q-29 36 -64 36q-62 0 -124 -100.5t-62 -197.5q0 -47 32 -47z" />
    <glyph glyph-name="A.sc" horiz-adv-x="621" 
d="M17 0v33l53 16l207 475l33 6l34 10l203 -493l61 -13v-34h-234v34l76 15l-51 127h-220l-49 -122l88 -20v-34h-201zM289 446l-90 -222h180l-89 222h-1z" />
    <glyph glyph-name="B.sc" horiz-adv-x="546" 
d="M42 0v34l71 19v418l-71 21v33l211 2q101 1 162 -28.5t61 -89.5q0 -97 -160 -126v-2q80 2 137.5 -34t57.5 -96q0 -75 -67 -114.5t-174 -38.5zM290 254h-88v-193q30 -30 96 -30q51 0 85.5 28.5t34.5 79.5q0 48 -36 78.5t-92 36.5zM202 494v-205q94 4 137 31t43 80
q0 99 -180 94z" />
    <glyph glyph-name="C.sc" horiz-adv-x="617" 
d="M337 -23q-75 0 -132.5 24t-90 63t-48.5 84t-16 93q0 129 86.5 211.5t221.5 82.5q23 0 43.5 -2.5t40.5 -8l32.5 -9t33.5 -11.5t27 -10l5 -146h-31l-54 111q-45 35 -113 35q-85 0 -140.5 -60t-55.5 -176q0 -107 60 -172t159 -65q53 0 102 33l60 116h31l-13 -147
q-43 -16 -68 -24t-63 -15t-77 -7z" />
    <glyph glyph-name="D.sc" horiz-adv-x="653" 
d="M202 489v-422q31 -30 100 -28q98 2 153 64.5t55 144.5q0 72 -22 120.5t-65 74.5t-95.5 36t-125.5 10zM42 0v34l71 19v418l-71 21v33l232 2q148 1 238.5 -68.5t90.5 -181.5q0 -129 -93 -204.5t-265 -74.5z" />
    <glyph glyph-name="E.sc" horiz-adv-x="559" 
d="M328 247h-126v-203h215l73 117h34l-33 -161h-449v34l71 19v418l-71 21v33h375l74 4v-148h-32l-46 103h-211v-195h126l28 74h28v-182h-32z" />
    <glyph glyph-name="F.sc" horiz-adv-x="508" 
d="M316 242h-114v-192l87 -11v-39h-247v34l71 19v418l-71 21v33h355l75 4v-153h-30l-47 108h-193v-203h114l25 73h27v-183h-31z" />
    <glyph glyph-name="G.sc" horiz-adv-x="637" 
d="M345 -18q-147 0 -221 76t-74 189q0 121 91.5 207t233.5 86q82 0 164 -41l4 -142h-32l-49 104q-47 36 -105 36q-103 0 -157.5 -65t-54.5 -178q0 -103 65.5 -164.5t162.5 -61.5q45 0 85 20v141l-80 16v29h214v-31l-48 -12v-158l-28 -13q-81 -38 -171 -38z" />
    <glyph glyph-name="H.sc" horiz-adv-x="681" 
d="M409 0v34l71 19v192h-278v-192l70 -19v-34h-230v34l71 19v418l-71 21v33h230v-33l-70 -21v-181h278v181l-71 21v33h230v-33l-71 -21v-418l71 -19v-34h-230z" />
    <glyph glyph-name="I.sc" horiz-adv-x="314" 
d="M42 0v34l71 19v418l-71 21v33h230v-33l-70 -21v-418l70 -19v-34h-230z" />
    <glyph glyph-name="J.sc" horiz-adv-x="316" 
d="M209 471v-390q0 -124 -47.5 -187.5t-181.5 -82.5l-7 30q148 27 148 226v404l-82 21v33h241v-33z" />
    <glyph glyph-name="K.sc" horiz-adv-x="606" 
d="M42 0v34l71 19v418l-71 21v33h230v-33l-70 -21v-418l70 -19v-34h-230zM448 0l-240 274v8l30 12l203 179l-63 20v32h191v-32l-69 -20l-197 -175l220 -250l68 -14v-34h-143z" />
    <glyph glyph-name="L.sc" horiz-adv-x="513" 
d="M202 44h181l78 140h31l-33 -184h-417v34l71 19v418l-71 21v33h246v-33l-86 -20v-428z" />
    <glyph glyph-name="M.sc" horiz-adv-x="793" 
d="M35 0v34l70 19l14 418l-74 21v33h172l184 -367l155 332l7 35h184v-33l-70 -21l8 -418l71 -19v-34h-236v35l77 18l-3 411l-185 -390l-17 -43h-31l-18 43l-179 352l-8 -370l95 -27v-29h-216z" />
    <glyph glyph-name="N.sc" horiz-adv-x="669" 
d="M562 1l-28 -10l-368 410v-340l90 -28v-33h-211v34l71 19v409l-74 30v33h134l333 -374v311l-91 31v32h211v-33l-70 -21v-387z" />
    <glyph glyph-name="O.sc" horiz-adv-x="643" 
d="M343 23q66 0 108.5 55t42.5 158q0 111 -53.5 188t-137.5 77q-73 0 -114.5 -57t-41.5 -152q0 -64 18.5 -122.5t65 -102.5t112.5 -44zM322 540q120 0 195.5 -76t75.5 -198q0 -123 -76 -204t-195 -81q-121 0 -196.5 75t-75.5 197q0 124 76.5 205.5t195.5 81.5z" />
    <glyph glyph-name="P.sc" horiz-adv-x="521" 
d="M244 244q75 5 116 37.5t41 88.5q0 55 -50.5 88t-148.5 33v-438l105 -19v-34h-265v34l71 19v418l-71 21v33l192 1q127 1 194 -38t67 -108q0 -56 -39 -96t-94.5 -56t-117.5 -13v29z" />
    <glyph glyph-name="Q.sc" horiz-adv-x="643" 
d="M50 253q0 124 76.5 205.5t195.5 81.5q120 0 195.5 -76t75.5 -198q0 -95 -56.5 -171.5t-147.5 -99.5q59 -45 93.5 -68.5t85 -45.5t93.5 -22q81 0 158 41l15 -17q-54 -46 -96 -62q-52 -21 -115 -21q-51 0 -109.5 26t-104.5 58.5t-114 85.5l-26 21q-99 16 -159 87.5
t-60 174.5zM303 501q-73 0 -114.5 -57t-41.5 -152q0 -64 18.5 -122.5t65 -102.5t112.5 -44t108.5 55t42.5 158q0 111 -53.5 188t-137.5 77z" />
    <glyph glyph-name="R.sc" horiz-adv-x="587" 
d="M42 0v34l71 19v418l-71 21v33l201 2q117 1 182 -33.5t65 -103.5q0 -54 -42.5 -90.5t-96.5 -54.5v-2l152 -196l69 -13v-34h-146l-131 169l-41 56h-52v-172l70 -19v-34h-230zM202 491v-226h76q51 7 84.5 36t33.5 76q0 117 -194 114z" />
    <glyph glyph-name="S.sc" horiz-adv-x="465" 
d="M52 22l-12 154h34l54 -121q42 -30 103 -30q52 0 82.5 25t30.5 71q0 66 -83 91l-86 27q-68 19 -96 54.5t-28 89.5q0 64 59 110.5t143 46.5q77 0 148 -28l5 -144h-29l-46 101q-35 31 -90 31q-48 0 -78.5 -24t-30.5 -62q0 -35 17 -54.5t64 -33.5l71 -23q82 -25 112.5 -58.5
t30.5 -85.5q0 -75 -61.5 -125t-150.5 -50t-163 38z" />
    <glyph glyph-name="T.sc" horiz-adv-x="566" 
d="M101 525h364l63 5l8 -158h-31l-53 112h-125v-431l79 -19v-34h-246v34l79 19v431h-124l-54 -112h-31l7 158z" />
    <glyph glyph-name="U.sc" horiz-adv-x="668" 
d="M335 -18q-117 0 -173 54.5t-56 173.5v261l-71 21v33h231v-33l-71 -20v-253q0 -97 38 -137.5t110 -40.5q80 0 122.5 42.5t42.5 139.5l-1 240l-87 30v32h213v-33l-71 -23l-2 -259q-1 -109 -62 -168.5t-163 -59.5z" />
    <glyph glyph-name="V.sc" horiz-adv-x="590" 
d="M275 -9l-210 484l-55 18v32h226v-32l-73 -19l152 -364l151 357l-92 25v33h206v-32l-57 -21l-207 -481h-41z" />
    <glyph glyph-name="W.sc" horiz-adv-x="864" 
d="M228 -7l-160 482l-55 18v32h225v-32l-76 -18l123 -383l123 325l-22 58l-63 18v32h242v-33l-84 -17l142 -382l118 373l-88 26v33h198v-32l-58 -22l-158 -478h-66l-137 361l-137 -361h-67z" />
    <glyph glyph-name="X.sc" horiz-adv-x="622" 
d="M213 475l120 -156h2l123 153l-82 20v33h212v-33l-64 -17l-164 -190l186 -237l56 -14v-34h-241v35l73 14l-140 180h-2l-142 -176l70 -19v-34h-202v35l64 14l183 214l-167 212l-59 17v33h245v-33z" />
    <glyph glyph-name="Y.sc" horiz-adv-x="550" 
d="M483 472l-164 -268v-151l79 -19v-34h-246v34l79 19v131l-165 291l-56 18v32h220v-31l-64 -18l126 -233h1l136 227l-81 23v32h192v-31z" />
    <glyph glyph-name="Z.sc" horiz-adv-x="552" 
d="M36 0v27l345 455h-234l-55 -122h-30l15 170l64 -5h377v-7l-359 -473h251l76 128h31l-34 -177l-67 4h-380z" />
    <glyph glyph-name="Oslash.sc" horiz-adv-x="643" 
d="M62 -33l67 86q-79 74 -79 200q0 124 76.5 205.5t195.5 81.5q86 0 154 -43l49 62h45l-65 -83q88 -77 88 -210q0 -123 -76 -204t-195 -81q-95 0 -165 49l-49 -63h-46zM343 23q66 0 108.5 55t42.5 158q0 96 -43 171l-245 -314q52 -70 137 -70zM147 292q0 -97 38 -167
l245 313q-52 63 -127 63q-73 0 -114.5 -57t-41.5 -152z" />
    <glyph glyph-name="AE.sc" horiz-adv-x="830" 
d="M602 241h-113v-197h199l73 117h34l-33 -161h-428v34l70 17v191h-161l-114 -188l86 -19v-35h-205v33l52 16l274 421l-89 23v32h440l75 4v-148h-32l-46 103h-195v-204h113l26 73h27v-182h-30zM404 483h-9l-128 -203h137v203z" />
    <glyph glyph-name="OE.sc" horiz-adv-x="882" 
d="M814 0h-282q-32 0 -88 -4.5t-92 -4.5q-142 0 -222 70.5t-80 192.5q0 124 88 201t228 77q32 0 88 -3.5t109 -3.5h173l78 4l-1 -148h-31l-46 103h-199l3 -196h114l26 73h25v-182h-28l-23 70h-114v-205h201l71 117h35zM456 119v343q-35 33 -115 33q-86 0 -141 -55.5
t-55 -158.5q0 -106 52.5 -180t150.5 -74q59 0 83.5 24t24.5 68z" />
    <glyph glyph-name="Eth.sc" horiz-adv-x="653" 
d="M42 0v34l71 19v187h-90v39h90v192l-71 21v33l232 2q148 1 238.5 -68.5t90.5 -181.5q0 -129 -93 -204.5t-265 -74.5zM340 240h-138v-173q31 -30 100 -28q98 2 153 64.5t55 144.5q0 72 -22 120.5t-65 74.5t-95.5 36t-125.5 10v-210h138v-39z" />
    <glyph glyph-name="Dcroat.sc" horiz-adv-x="653" 
d="M42 0v34l71 19v187h-90v39h90v192l-71 21v33l232 2q148 1 238.5 -68.5t90.5 -181.5q0 -129 -93 -204.5t-265 -74.5zM340 240h-138v-173q31 -30 100 -28q98 2 153 64.5t55 144.5q0 72 -22 120.5t-65 74.5t-95.5 36t-125.5 10v-210h138v-39z" />
    <glyph glyph-name="Eng.sc" horiz-adv-x="669" 
d="M559 471v-390q0 -124 -47.5 -187.5t-181.5 -82.5l-7 30q159 25 173 192l-330 368v-340l90 -28v-33h-211v34l71 19v409l-74 30v33h134l333 -374v311l-91 31v32h211v-33z" />
    <glyph glyph-name="IJ.sc" horiz-adv-x="630" 
d="M42 0v34l71 19v418l-71 21v33h230v-33l-70 -21v-418l70 -19v-34h-230zM523 471v-390q0 -124 -47.5 -187.5t-181.5 -82.5l-7 30q148 27 148 226v404l-82 21v33h241v-33z" />
    <glyph glyph-name="uni0237.sc" horiz-adv-x="316" 
d="M209 471v-390q0 -124 -47.5 -187.5t-181.5 -82.5l-7 30q148 27 148 226v404l-82 21v33h241v-33z" />
    <glyph glyph-name="Aacute.sc" horiz-adv-x="621" 
d="M17 0v33l53 16l207 475l33 6l34 10l203 -493l61 -13v-34h-234v34l76 15l-51 127h-220l-49 -122l88 -20v-34h-201zM289 446l-90 -222h180l-89 222h-1zM349 796h80v-19l-99 -186h-41z" />
    <glyph glyph-name="Abreve.sc" horiz-adv-x="621" 
d="M17 0v33l53 16l207 475l33 6l34 10l203 -493l61 -13v-34h-234v34l76 15l-51 127h-220l-49 -122l88 -20v-34h-201zM289 446l-90 -222h180l-89 222h-1zM312 607q-117 0 -124 162h36q7 -43 31.5 -72t65.5 -29q36 0 59 29.5t30 71.5h35q-3 -78 -33.5 -120t-99.5 -42z" />
    <glyph glyph-name="Acircumflex.sc" horiz-adv-x="621" 
d="M17 0v33l53 16l207 475l33 6l34 10l203 -493l61 -13v-34h-234v34l76 15l-51 127h-220l-49 -122l88 -20v-34h-201zM289 446l-90 -222h180l-89 222h-1zM235 591h-47l101 205h57l101 -205h-49l-83 131z" />
    <glyph glyph-name="Adieresis.sc" horiz-adv-x="621" 
d="M17 0v33l53 16l207 475l33 6l34 10l203 -493l61 -13v-34h-234v34l76 15l-51 127h-220l-49 -122l88 -20v-34h-201zM289 446l-90 -222h180l-89 222h-1zM217 646q-23 0 -39.5 16.5t-16.5 39.5t16.5 40t39.5 17t40 -17t17 -40t-17 -39.5t-40 -16.5zM414 646q-23 0 -40 16.5
t-17 39.5t17 40t40 17t40 -17t17 -40t-17 -39.5t-40 -16.5z" />
    <glyph glyph-name="Agrave.sc" horiz-adv-x="621" 
d="M17 0v33l53 16l207 475l33 6l34 10l203 -493l61 -13v-34h-234v34l76 15l-51 127h-220l-49 -122l88 -20v-34h-201zM289 446l-90 -222h180l-89 222h-1zM299 591l-100 186v19h80l61 -205h-41z" />
    <glyph glyph-name="Amacron.sc" horiz-adv-x="621" 
d="M17 0v33l53 16l207 475l33 6l34 10l203 -493l61 -13v-34h-234v34l76 15l-51 127h-220l-49 -122l88 -20v-34h-201zM289 446l-90 -222h180l-89 222h-1zM171 667v60h290v-60h-290z" />
    <glyph glyph-name="Aogonek.sc" horiz-adv-x="621" 
d="M17 0v33l53 16l207 475l33 6l34 10l203 -493l61 -13v-34h-116q-109 -63 -109 -130q0 -28 14.5 -44.5t40.5 -16.5q25 0 42.5 9.5t44.5 36.5l17 -17q-28 -44 -60 -70.5t-80 -26.5q-43 0 -68 25t-25 64q0 22 8 41.5t33 48t42.5 45.5l65.5 63l-59 148h-220l-49 -122l88 -20
v-34h-201zM289 446l-90 -222h180l-89 222h-1z" />
    <glyph glyph-name="Aring.sc" horiz-adv-x="621" 
d="M17 0v33l53 16l207 475l33 6l34 10l203 -493l61 -13v-34h-234v34l76 15l-51 127h-220l-49 -122l88 -20v-34h-201zM289 446l-90 -222h180l-89 222h-1zM199 724q0 48 34 81t83 33q50 0 83.5 -32.5t33.5 -81.5q0 -48 -34 -81t-83 -33q-50 0 -83.5 32.5t-33.5 81.5zM245 724
q0 -32 20.5 -52.5t50.5 -20.5t50.5 20.5t20.5 52.5t-20.5 52.5t-50.5 20.5t-50.5 -20.5t-20.5 -52.5z" />
    <glyph glyph-name="Aringacute.sc" horiz-adv-x="621" 
d="M17 0v33l53 16l207 475l33 6l34 10l203 -493l61 -13v-34h-234v34l76 15l-51 127h-220l-49 -122l88 -20v-34h-201zM289 446l-90 -222h180l-89 222h-1zM197 692q0 48 34 81t83 33q50 0 83.5 -32.5t33.5 -81.5q0 -48 -34 -81t-83 -33q-50 0 -83.5 32.5t-33.5 81.5zM243 692
q0 -32 20.5 -52.5t50.5 -20.5t50.5 20.5t20.5 52.5t-20.5 52.5t-50.5 20.5t-50.5 -20.5t-20.5 -52.5zM376 987h93v-20l-120 -119h-52z" />
    <glyph glyph-name="AEacute.sc" horiz-adv-x="830" 
d="M602 241h-113v-197h199l73 117h34l-33 -161h-428v34l70 17v191h-161l-114 -188l86 -19v-35h-205v33l52 16l274 421l-89 23v32h440l75 4v-148h-32l-46 103h-195v-204h113l26 73h27v-182h-30zM404 483h-9l-128 -203h137v203zM489 796h80v-19l-99 -186h-41z" />
    <glyph glyph-name="Atilde.sc" horiz-adv-x="621" 
d="M17 0v33l53 16l207 475l33 6l34 10l203 -493l61 -13v-34h-234v34l76 15l-51 127h-220l-49 -122l88 -20v-34h-201zM289 446l-90 -222h180l-89 222h-1zM329 645l-39 23q-48 29 -70.5 23t-43.5 -56l-30 13l5 13q55 138 154 83l48 -27q37 -22 58.5 -11t43.5 62l30 -13l-5 -13
q-30 -78 -67 -101.5t-84 4.5z" />
    <glyph glyph-name="Cacute.sc" horiz-adv-x="617" 
d="M337 -23q-75 0 -132.5 24t-90 63t-48.5 84t-16 93q0 129 86.5 211.5t221.5 82.5q23 0 43.5 -2.5t40.5 -8l32.5 -9t33.5 -11.5t27 -10l5 -146h-31l-54 111q-45 35 -113 35q-85 0 -140.5 -60t-55.5 -176q0 -107 60 -172t159 -65q53 0 102 33l60 116h31l-13 -147
q-43 -16 -68 -24t-63 -15t-77 -7zM375 796h80v-19l-99 -186h-41z" />
    <glyph glyph-name="Ccaron.sc" horiz-adv-x="617" 
d="M337 -23q-75 0 -132.5 24t-90 63t-48.5 84t-16 93q0 129 86.5 211.5t221.5 82.5q23 0 43.5 -2.5t40.5 -8l32.5 -9t33.5 -11.5t27 -10l5 -146h-31l-54 111q-45 35 -113 35q-85 0 -140.5 -60t-55.5 -176q0 -107 60 -172t159 -65q53 0 102 33l60 116h31l-13 -147
q-43 -16 -68 -24t-63 -15t-77 -7zM425 796h47l-101 -205h-57l-101 205h49l82 -131z" />
    <glyph glyph-name="Ccedilla.sc" horiz-adv-x="617" 
d="M337 -23q-75 0 -132.5 24t-90 63t-48.5 84t-16 93q0 129 86.5 211.5t221.5 82.5q23 0 43.5 -2.5t40.5 -8l32.5 -9t33.5 -11.5t27 -10l5 -146h-31l-54 111q-45 35 -113 35q-85 0 -140.5 -60t-55.5 -176q0 -107 60 -172t159 -65q53 0 102 33l60 116h31l-13 -147
q-100 -38 -164 -44l-25 -42q32 -3 51.5 -21.5t19.5 -48.5q0 -29 -16.5 -52t-44 -37t-52.5 -22t-52 -13l-5 29q27 8 42.5 14.5t32 22t16.5 36.5q0 38 -53 58l46 74h-4z" />
    <glyph glyph-name="Ccircumflex.sc" horiz-adv-x="617" 
d="M337 -23q-75 0 -132.5 24t-90 63t-48.5 84t-16 93q0 129 86.5 211.5t221.5 82.5q23 0 43.5 -2.5t40.5 -8l32.5 -9t33.5 -11.5t27 -10l5 -146h-31l-54 111q-45 35 -113 35q-85 0 -140.5 -60t-55.5 -176q0 -107 60 -172t159 -65q53 0 102 33l60 116h31l-13 -147
q-43 -16 -68 -24t-63 -15t-77 -7zM261 591h-47l101 205h57l101 -205h-49l-83 131z" />
    <glyph glyph-name="Cdotaccent.sc" horiz-adv-x="617" 
d="M337 -23q-75 0 -132.5 24t-90 63t-48.5 84t-16 93q0 129 86.5 211.5t221.5 82.5q23 0 43.5 -2.5t40.5 -8l32.5 -9t33.5 -11.5t27 -10l5 -146h-31l-54 111q-45 35 -113 35q-85 0 -140.5 -60t-55.5 -176q0 -107 60 -172t159 -65q53 0 102 33l60 116h31l-13 -147
q-43 -16 -68 -24t-63 -15t-77 -7zM342 629q-26 0 -44 18.5t-18 43.5t18 43.5t44 18.5t44 -18.5t18 -43.5t-18 -43.5t-44 -18.5z" />
    <glyph glyph-name="Dcaron.sc" horiz-adv-x="653" 
d="M202 489v-422q31 -30 100 -28q98 2 153 64.5t55 144.5q0 72 -22 120.5t-65 74.5t-95.5 36t-125.5 10zM42 0v34l71 19v418l-71 21v33l232 2q148 1 238.5 -68.5t90.5 -181.5q0 -129 -93 -204.5t-265 -74.5zM379 796h47l-101 -205h-57l-101 205h49l82 -131z" />
    <glyph glyph-name="Eacute.sc" horiz-adv-x="559" 
d="M328 247h-126v-203h215l73 117h34l-33 -161h-449v34l71 19v418l-71 21v33h375l74 4v-148h-32l-46 103h-211v-195h126l28 74h28v-182h-32zM328 796h80v-19l-99 -186h-41z" />
    <glyph glyph-name="Ebreve.sc" horiz-adv-x="559" 
d="M328 247h-126v-203h215l73 117h34l-33 -161h-449v34l71 19v418l-71 21v33h375l74 4v-148h-32l-46 103h-211v-195h126l28 74h28v-182h-32zM291 607q-117 0 -124 162h36q7 -43 31.5 -72t65.5 -29q36 0 59 29.5t30 71.5h35q-3 -78 -33.5 -120t-99.5 -42z" />
    <glyph glyph-name="Ecaron.sc" horiz-adv-x="559" 
d="M328 247h-126v-203h215l73 117h34l-33 -161h-449v34l71 19v418l-71 21v33h375l74 4v-148h-32l-46 103h-211v-195h126l28 74h28v-182h-32zM378 796h47l-101 -205h-57l-101 205h49l82 -131z" />
    <glyph glyph-name="Ecircumflex.sc" horiz-adv-x="559" 
d="M328 247h-126v-203h215l73 117h34l-33 -161h-449v34l71 19v418l-71 21v33h375l74 4v-148h-32l-46 103h-211v-195h126l28 74h28v-182h-32zM213 591h-47l101 205h57l101 -205h-49l-83 131z" />
    <glyph glyph-name="Edieresis.sc" horiz-adv-x="559" 
d="M328 247h-126v-203h215l73 117h34l-33 -161h-449v34l71 19v418l-71 21v33h375l74 4v-148h-32l-46 103h-211v-195h126l28 74h28v-182h-32zM194 646q-23 0 -39.5 16.5t-16.5 39.5t16.5 40t39.5 17t40 -17t17 -40t-17 -39.5t-40 -16.5zM391 646q-23 0 -40 16.5t-17 39.5
t17 40t40 17t40 -17t17 -40t-17 -39.5t-40 -16.5z" />
    <glyph glyph-name="Edotaccent.sc" horiz-adv-x="559" 
d="M328 247h-126v-203h215l73 117h34l-33 -161h-449v34l71 19v418l-71 21v33h375l74 4v-148h-32l-46 103h-211v-195h126l28 74h28v-182h-32zM295 629q-25 0 -43.5 18.5t-18.5 43.5t18.5 43.5t43.5 18.5t43.5 -18.5t18.5 -43.5t-18.5 -43.5t-43.5 -18.5z" />
    <glyph glyph-name="Egrave.sc" horiz-adv-x="559" 
d="M328 247h-126v-203h215l73 117h34l-33 -161h-449v34l71 19v418l-71 21v33h375l74 4v-148h-32l-46 103h-211v-195h126l28 74h28v-182h-32zM278 591l-100 186v19h80l61 -205h-41z" />
    <glyph glyph-name="Emacron.sc" horiz-adv-x="559" 
d="M328 247h-126v-203h215l73 117h34l-33 -161h-449v34l71 19v418l-71 21v33h375l74 4v-148h-32l-46 103h-211v-195h126l28 74h28v-182h-32zM147 667v60h290v-60h-290z" />
    <glyph glyph-name="Eogonek.sc" horiz-adv-x="559" 
d="M371 0h-329v34l71 19v418l-71 21v33h375l74 4v-148h-32l-46 103h-211v-195h126l28 74h28v-182h-32l-24 66h-126v-203h215l73 117h34l-33 -161h-78l-61.5 -64t-29 -39t-12.5 -38q0 -50 52 -50q25 0 43.5 9.5t44.5 36.5l17 -17q-28 -44 -60 -70.5t-80 -26.5q-43 0 -69.5 24
t-26.5 61q0 43 29.5 76.5t110.5 97.5z" />
    <glyph glyph-name="Gbreve.sc" horiz-adv-x="637" 
d="M345 -18q-147 0 -221 76t-74 189q0 121 91.5 207t233.5 86q82 0 164 -41l4 -142h-32l-49 104q-47 36 -105 36q-103 0 -157.5 -65t-54.5 -178q0 -103 65.5 -164.5t162.5 -61.5q45 0 85 20v141l-80 16v29h214v-31l-48 -12v-158l-28 -13q-81 -38 -171 -38zM343 607
q-117 0 -124 162h36q7 -43 31.5 -72t65.5 -29q36 0 59 29.5t30 71.5h35q-3 -78 -33.5 -120t-99.5 -42z" />
    <glyph glyph-name="Gcircumflex.sc" horiz-adv-x="637" 
d="M345 -18q-147 0 -221 76t-74 189q0 121 91.5 207t233.5 86q82 0 164 -41l4 -142h-32l-49 104q-47 36 -105 36q-103 0 -157.5 -65t-54.5 -178q0 -103 65.5 -164.5t162.5 -61.5q45 0 85 20v141l-80 16v29h214v-31l-48 -12v-158l-28 -13q-81 -38 -171 -38zM266 591h-47
l101 205h57l101 -205h-49l-83 131z" />
    <glyph glyph-name="Gcommaaccent.sc" horiz-adv-x="637" 
d="M345 -18q-147 0 -221 76t-74 189q0 121 91.5 207t233.5 86q82 0 164 -41l4 -142h-32l-49 104q-47 36 -105 36q-103 0 -157.5 -65t-54.5 -178q0 -103 65.5 -164.5t162.5 -61.5q45 0 85 20v141l-80 16v29h214v-31l-48 -12v-158l-28 -13q-81 -38 -171 -38zM257 -267l-8 27
q92 29 92 73q0 20 -18.5 32.5t-45.5 14.5v2q8 55 68 55q33 0 51 -20t18 -51q0 -93 -157 -133z" />
    <glyph glyph-name="Gdotaccent.sc" horiz-adv-x="637" 
d="M345 -18q-147 0 -221 76t-74 189q0 121 91.5 207t233.5 86q82 0 164 -41l4 -142h-32l-49 104q-47 36 -105 36q-103 0 -157.5 -65t-54.5 -178q0 -103 65.5 -164.5t162.5 -61.5q45 0 85 20v141l-80 16v29h214v-31l-48 -12v-158l-28 -13q-81 -38 -171 -38zM347 629
q-25 0 -43.5 18.5t-18.5 43.5t18.5 43.5t43.5 18.5t43.5 -18.5t18.5 -43.5t-18.5 -43.5t-43.5 -18.5z" />
    <glyph glyph-name="Hbar.sc" horiz-adv-x="681" 
d="M409 0v34l71 19v192h-278v-192l70 -19v-34h-230v34l71 19v318h-81v41h81v59l-71 21v33h230v-33l-70 -21v-59h278v59l-71 21v33h230v-33l-71 -21v-59h81v-41h-81v-318l71 -19v-34h-230zM202 371v-81h278v81h-278z" />
    <glyph glyph-name="Hcircumflex.sc" horiz-adv-x="681" 
d="M409 0v34l71 19v192h-278v-192l70 -19v-34h-230v34l71 19v418l-71 21v33h230v-33l-70 -21v-181h278v181l-71 21v33h230v-33l-71 -21v-418l71 -19v-34h-230zM259 591h-47l101 205h57l101 -205h-49l-83 131z" />
    <glyph glyph-name="Idotaccent.sc" horiz-adv-x="314" 
d="M42 0v34l71 19v418l-71 21v33h230v-33l-70 -21v-418l70 -19v-34h-230zM158 634q-26 0 -44 18t-18 44t18 44t44 18t44 -18t18 -44t-18 -44t-44 -18z" />
    <glyph glyph-name="Iacute.sc" horiz-adv-x="314" 
d="M42 0v34l71 19v418l-71 21v33h230v-33l-70 -21v-418l70 -19v-34h-230zM190 796h80v-19l-99 -186h-41z" />
    <glyph glyph-name="Ibreve.sc" horiz-adv-x="314" 
d="M42 0v34l71 19v418l-71 21v33h230v-33l-70 -21v-418l70 -19v-34h-230zM153 607q-117 0 -124 162h36q7 -43 31.5 -72t65.5 -29q36 0 59 29.5t30 71.5h35q-3 -78 -33.5 -120t-99.5 -42z" />
    <glyph glyph-name="Icircumflex.sc" horiz-adv-x="314" 
d="M42 0v34l71 19v418l-71 21v33h230v-33l-70 -21v-418l70 -19v-34h-230zM76 591h-47l101 205h57l101 -205h-49l-83 131z" />
    <glyph glyph-name="Idieresis.sc" horiz-adv-x="314" 
d="M64 646q-23 0 -39.5 16.5t-16.5 39.5t16.5 40t39.5 17t40 -17t17 -40t-17 -39.5t-40 -16.5zM249 646q-23 0 -40 16.5t-17 39.5t17 40t40 17t40 -17t17 -40t-17 -39.5t-40 -16.5zM42 0v34l71 19v418l-71 21v33h230v-33l-70 -21v-418l70 -19v-34h-230z" />
    <glyph glyph-name="Igrave.sc" horiz-adv-x="314" 
d="M42 0v34l71 19v418l-71 21v33h230v-33l-70 -21v-418l70 -19v-34h-230zM140 591l-100 186v19h80l61 -205h-41z" />
    <glyph glyph-name="Imacron.sc" horiz-adv-x="314" 
d="M42 0v34l71 19v418l-71 21v33h230v-33l-70 -21v-418l70 -19v-34h-230zM41 667v60h232v-60h-232z" />
    <glyph glyph-name="Iogonek.sc" horiz-adv-x="314" 
d="M42 0v34l71 19v418l-71 21v33h230v-33l-70 -21v-418l70 -19v-34h-96q-36 -62 -47 -88.5t-11 -52.5q0 -50 52 -50q25 0 43.5 9.5t44.5 36.5l17 -17q-28 -44 -60 -70.5t-80 -26.5q-43 0 -69.5 24t-26.5 61q0 9 1 17.5t4.5 18.5t6.5 17t10 18.5t10.5 18t13.5 20l14.5 19.5
l16.5 22l17 23h-91z" />
    <glyph glyph-name="Itilde.sc" horiz-adv-x="314" 
d="M42 0v34l71 19v418l-71 21v33h230v-33l-70 -21v-418l70 -19v-34h-230zM170 645l-39 23q-48 29 -70.5 23t-43.5 -56l-30 13l5 13q55 138 154 83l48 -27q37 -22 58.5 -11t43.5 62l30 -13l-5 -13q-30 -78 -67 -101.5t-84 4.5z" />
    </font>
</defs>
</svg>
