<?xml version="1.0" encoding="utf-8"?>
<!-- Generator: Adobe Illustrator 21.0.0, SVG Export Plug-In . SVG Version: 6.00 Build 0)  -->
<svg version="1.1" id="Layer_1" xmlns="http://www.w3.org/2000/svg" xmlns:xlink="http://www.w3.org/1999/xlink" x="0px" y="0px"
	 viewBox="0 0 229.2 27.5" style="enable-background:new 0 0 229.2 27.5;" xml:space="preserve">
<g>
	<path d="M0,27L10,1.8h3.2l10,25.2h-3.1l-2.9-7.5H6L3.1,27H0z M10.8,7.2L7,17h9.2l-3.8-9.8c-0.3-0.9-0.6-1.6-0.7-2.1L10.8,7.2z"/>
	<path d="M40.7,11.2c1.9,1.7,2.8,4,2.8,6.9c0,2.9-0.9,5.1-2.8,6.9c-1.9,1.7-4.1,2.6-6.5,2.6c-2.4,0-4.6-0.9-6.5-2.6
		c-1.9-1.7-2.8-4-2.8-6.9c0-2.9,0.9-5.1,2.8-6.9c1.9-1.7,4.1-2.6,6.5-2.6C36.6,8.6,38.8,9.5,40.7,11.2z M29.6,23
		c1.2,1.3,2.8,2,4.6,2s3.4-0.7,4.6-2c1.2-1.3,1.9-3,1.9-5c0-2-0.6-3.6-1.9-5c-1.2-1.3-2.8-2-4.6-2s-3.4,0.7-4.6,2
		c-1.2,1.3-1.8,3-1.8,5C27.8,20.1,28.4,21.7,29.6,23z"/>
	<path d="M47.1,6V2.5h3.4V6H47.1z M47.4,27V9.1h2.8V27H47.4z"/>
	<path d="M53.8,11.4V9.1h2.8V5.6c0-1.7,0.5-3.1,1.5-4.1c1-1,2.3-1.5,4.1-1.5c0.7,0,1.3,0.1,1.7,0.2l-0.4,2.4
		c-0.4-0.1-0.8-0.2-1.2-0.2c-1.9,0-2.8,1.1-2.8,3.2v3.5h4.1v2.2h-4.1V27h-2.8V11.4H53.8z"/>
	<path d="M82.6,18.5H67.8c0.1,1.9,0.7,3.5,1.8,4.7c1.1,1.2,2.6,1.9,4.4,1.9c1.5,0,2.7-0.4,3.6-1.1c0.9-0.7,1.7-1.7,2.4-3l2,1.2
		c-1.8,3.5-4.5,5.2-8.2,5.2c-2.5,0-4.6-0.9-6.3-2.7c-1.7-1.8-2.6-4-2.6-6.8c0-2.7,0.9-5,2.6-6.8c1.7-1.8,3.9-2.7,6.4-2.7
		c2.6,0,4.7,0.8,6.3,2.5s2.3,3.8,2.3,6.5V18.5z M74,11c-1.5,0-2.8,0.5-3.9,1.4c-1,1-1.7,2.2-2.1,3.8h11.7c-0.1-1.6-0.7-2.9-1.9-3.8
		C76.8,11.5,75.4,11,74,11z"/>
	<path d="M97.2,27V1.8h3.2l9.1,22.7l9.1-22.7h3.3V27H119V7.6l-1.3,3.5L111.1,27H108l-6.6-15.9c-0.7-1.9-1.2-3.1-1.3-3.5V27H97.2z"/>
	<path d="M141.4,21.1l2,1.3c-1.7,3.4-4.4,5.1-8,5.1c-2.6,0-4.8-0.9-6.5-2.7c-1.7-1.8-2.6-4-2.6-6.8c0-2.7,0.9-5,2.7-6.8
		c1.8-1.8,3.9-2.7,6.5-2.7c1.9,0,3.6,0.4,4.9,1.3c1.4,0.9,2.4,2.1,3,3.6l-2.1,1.4c-1.2-2.5-3.1-3.8-5.8-3.8c-1.8,0-3.3,0.6-4.6,1.9
		c-1.2,1.3-1.8,2.9-1.8,5c0,2.1,0.6,3.8,1.8,5s2.7,1.9,4.6,1.9c1.4,0,2.6-0.3,3.5-1C139.8,23.3,140.7,22.3,141.4,21.1z"/>
	<path d="M144.9,27l10-25.2h3.2l10,25.2h-3.1l-2.9-7.5H151L148,27H144.9z M155.8,7.2l-3.8,9.8h9.2l-3.8-9.8
		c-0.3-0.9-0.6-1.6-0.7-2.1L155.8,7.2z"/>
	<path d="M180.3,8.8l-0.5,2.6c-0.5-0.2-1-0.2-1.4-0.2c-1.3,0-2.3,0.6-3.2,1.7c-0.9,1.1-1.3,2.6-1.3,4.3V27h-2.8V9.1h2.8v3.2
		c1.1-2.5,2.9-3.7,5.2-3.7C179.4,8.6,179.9,8.7,180.3,8.8z"/>
	<path d="M199.1,1.8V27h-2.8v-3.2c-1.4,2.5-3.5,3.7-6.2,3.7c-2.5,0-4.6-0.9-6.2-2.7c-1.6-1.8-2.4-4-2.4-6.8c0-2.7,0.8-4.9,2.5-6.7
		c1.7-1.8,3.7-2.7,6-2.7c1.5,0,2.8,0.3,3.9,1c1.1,0.7,1.9,1.6,2.5,2.7V1.8H199.1z M190.5,24.9c1.7,0,3.1-0.6,4.3-1.9s1.7-2.9,1.7-5
		s-0.6-3.7-1.7-5s-2.6-1.9-4.3-1.9c-1.7,0-3.2,0.6-4.3,1.9s-1.7,2.9-1.7,5s0.6,3.7,1.7,5S188.7,24.9,190.5,24.9z"/>
	<path d="M204.6,27V1.8h2.8V27H204.6z"/>
	<path d="M229.2,18.5h-14.8c0.1,1.9,0.7,3.5,1.8,4.7c1.1,1.2,2.6,1.9,4.4,1.9c1.5,0,2.7-0.4,3.6-1.1c0.9-0.7,1.7-1.7,2.4-3l2,1.2
		c-1.8,3.5-4.5,5.2-8.2,5.2c-2.5,0-4.6-0.9-6.3-2.7c-1.7-1.8-2.6-4-2.6-6.8c0-2.7,0.9-5,2.6-6.8c1.7-1.8,3.9-2.7,6.4-2.7
		c2.6,0,4.7,0.8,6.3,2.5s2.3,3.8,2.3,6.5V18.5z M220.6,11c-1.5,0-2.8,0.5-3.9,1.4c-1,1-1.7,2.2-2.1,3.8h11.7
		c-0.1-1.6-0.7-2.9-1.9-3.8C223.4,11.5,222,11,220.6,11z"/>
</g>
</svg>
